<svg width="785" height="591" viewBox="0 0 785 591" fill="none" xmlns="http://www.w3.org/2000/svg">
<path d="M744.827 51.3134C744.827 76.1121 727.741 93.2014 706.045 93.2014C681.913 93.2014 667.004 74.3467 667.004 51.3134C667.004 26.6334 684.095 9.44139 706.045 9.44139C727.741 9.44139 744.827 26.6334 744.827 51.3134ZM755.655 51.3134C755.655 20.8014 732.609 0.621398 706.045 0.621398C679.204 0.621398 656.159 20.8014 656.159 51.3134C656.159 80.1854 676.901 102.008 706.045 102.008C732.609 102.008 755.655 81.8134 755.655 51.3134ZM696.032 48.4601V32.0547H707.145C712.711 32.0547 719.34 32.8854 719.34 39.6508C719.34 47.7894 713.239 48.4601 706.313 48.4601H696.032ZM696.032 56.3254H704.685L719.188 80.3148H729.615L713.925 55.6254C722.333 54.6974 728.539 50.4934 728.539 40.3174C728.539 28.9601 721.643 24.2121 708.087 24.2121H686.821V80.3148H696.032V56.3254" fill="white"/>
<path d="M265.843 51.3133H199.4L75.6547 401.983H211.931L224.113 354.48H307.248L319.424 401.983H455.708L331.971 51.3133H265.525H265.843ZM241.111 270.875L265.947 163.732L291.044 270.875H241.111Z" fill="#F68712"/>
<path d="M539.271 94.5507H480.969L372.361 402.297H491.965L502.653 360.603H575.62L586.297 402.297H705.907L597.311 94.5507H539.009H539.271ZM517.575 287.235L539.364 193.208L561.403 287.235H517.575Z" fill="#F68712"/>
<path d="M46.1187 501.955H36.2747V476.72H10.8448V501.955H0.962006V445.079H10.8448V468.751H36.2747V445.079H46.1187V501.955" fill="white"/>
<path d="M71.6653 488.36L80.2586 459.688H90.376L73.5786 508.36C71.0013 515.469 66.6267 519.024 60.4547 519.024C59.0733 519.024 57.5493 518.789 55.884 518.317V510.939L57.6813 511.056C60.076 511.056 61.88 510.62 63.0907 509.748C64.3013 508.876 65.2586 507.412 65.9626 505.356L67.3293 501.728L52.4853 459.688H62.72L71.6653 488.36" fill="white"/>
<path d="M110.728 489.923L119.673 459.688H129.477L114.829 501.955H106.587L91.8213 459.688H101.665L110.728 489.923Z" fill="white"/>
<path d="M156.119 448.633C156.119 447.332 156.553 446.237 157.427 445.352C158.299 444.467 159.503 444.024 161.04 444.024C162.576 444.024 163.788 444.467 164.673 445.352C165.557 446.237 166.001 447.332 166.001 448.633C166.001 449.936 165.557 451.029 164.673 451.915C163.788 452.8 162.576 453.243 161.04 453.243C159.503 453.243 158.299 452.8 157.427 451.915C156.553 451.029 156.119 449.936 156.119 448.633V448.633ZM149.633 495.119C151.509 495.119 153.272 494.663 154.927 493.751C156.58 492.84 157.824 491.616 158.657 490.079V482.111H153.54C150.024 482.111 147.381 482.723 145.611 483.947C143.839 485.171 142.955 486.901 142.955 489.141C142.955 490.964 143.56 492.416 144.771 493.497C145.981 494.577 147.603 495.119 149.633 495.119V495.119ZM138.267 448.595C138.267 447.292 138.703 446.199 139.576 445.313C140.448 444.428 141.652 443.985 143.188 443.985C144.725 443.985 145.936 444.428 146.821 445.313C147.707 446.199 148.149 447.292 148.149 448.595C148.149 449.897 147.707 450.991 146.821 451.876C145.936 452.761 144.725 453.204 143.188 453.204C141.652 453.204 140.448 452.761 139.576 451.876C138.703 450.991 138.267 449.897 138.267 448.595ZM160.064 501.955C159.647 501.147 159.283 499.832 158.969 498.009C155.948 501.16 152.251 502.735 147.876 502.735C143.631 502.735 140.167 501.524 137.485 499.103C134.803 496.68 133.463 493.685 133.463 490.119C133.463 485.613 135.135 482.156 138.481 479.747C141.827 477.339 146.612 476.133 152.837 476.133H158.657V473.36C158.657 471.173 158.045 469.421 156.821 468.107C155.597 466.791 153.736 466.133 151.236 466.133C149.073 466.133 147.303 466.675 145.923 467.755C144.543 468.836 143.853 470.209 143.853 471.876H134.36C134.36 469.559 135.128 467.391 136.665 465.372C138.201 463.353 140.292 461.772 142.935 460.625C145.577 459.48 148.527 458.907 151.783 458.907C156.729 458.907 160.675 460.151 163.619 462.637C166.561 465.124 168.072 468.621 168.149 473.125V492.188C168.149 495.991 168.683 499.024 169.751 501.289V501.955H160.064" fill="white"/>
<path d="M208.111 501.955H198.619V441.955H208.111V501.955Z" fill="white"/>
<path d="M244.048 497.813C241.261 501.095 237.303 502.735 232.173 502.735C227.589 502.735 224.12 501.395 221.763 498.712C219.405 496.029 218.228 492.149 218.228 487.071V459.688H227.72V486.955C227.72 492.319 229.947 495.001 234.4 495.001C239.009 495.001 242.12 493.347 243.736 490.04V459.688H253.228V501.955H244.283L244.048 497.813" fill="white"/>
<path d="M270.611 481.251C270.611 485.6 271.509 489.005 273.305 491.465C275.103 493.927 277.603 495.157 280.805 495.157C284.009 495.157 286.503 493.907 288.287 491.407C290.069 488.907 290.963 485.248 290.963 480.431C290.963 476.16 290.044 472.775 288.208 470.275C286.372 467.775 283.879 466.524 280.728 466.524C277.628 466.524 275.167 467.755 273.345 470.216C271.521 472.677 270.611 476.355 270.611 481.251V481.251ZM261.119 480.431C261.119 476.289 261.939 472.56 263.579 469.239C265.22 465.919 267.524 463.367 270.493 461.583C273.463 459.799 276.873 458.907 280.728 458.907C286.431 458.907 291.06 460.743 294.615 464.415C298.169 468.087 300.089 472.956 300.376 479.024L300.415 481.251C300.415 485.417 299.615 489.141 298.013 492.423C296.411 495.704 294.12 498.243 291.137 500.04C288.156 501.837 284.712 502.735 280.805 502.735C274.843 502.735 270.069 500.749 266.489 496.779C262.908 492.807 261.119 487.513 261.119 480.9V480.431Z" fill="white"/>
<path d="M320.337 449.415V459.688H327.797V466.72H320.337V490.313C320.337 491.928 320.656 493.093 321.295 493.809C321.932 494.525 323.072 494.884 324.712 494.884C325.805 494.884 326.912 494.753 328.032 494.493V501.837C325.871 502.436 323.788 502.735 321.783 502.735C314.491 502.735 310.845 498.712 310.845 490.665V466.72H303.892V459.688H310.845V449.415H320.337Z" fill="white"/>
<path d="M346.939 449.415V459.688H354.4V466.72H346.939V490.313C346.939 491.928 347.257 493.093 347.896 493.809C348.533 494.525 349.673 494.884 351.313 494.884C352.408 494.884 353.515 494.753 354.633 494.493V501.837C352.472 502.436 350.389 502.735 348.384 502.735C341.092 502.735 337.447 498.712 337.447 490.665V466.72H330.493V459.688H337.447V449.415H346.939Z" fill="white"/>
<path d="M368.188 481.251C368.188 485.6 369.087 489.005 370.884 491.465C372.681 493.927 375.181 495.157 378.384 495.157C381.587 495.157 384.08 493.907 385.864 491.407C387.648 488.907 388.54 485.248 388.54 480.431C388.54 476.16 387.623 472.775 385.787 470.275C383.951 467.775 381.456 466.524 378.305 466.524C375.207 466.524 372.745 467.755 370.923 470.216C369.1 472.677 368.188 476.355 368.188 481.251V481.251ZM358.696 480.431C358.696 476.289 359.517 472.56 361.157 469.239C362.797 465.919 365.103 463.367 368.072 461.583C371.04 459.799 374.452 458.907 378.305 458.907C384.009 458.907 388.637 460.743 392.192 464.415C395.747 468.087 397.668 472.956 397.955 479.024L397.993 481.251C397.993 485.417 397.192 489.141 395.591 492.423C393.989 495.704 391.697 498.243 388.716 500.04C385.733 501.837 382.291 502.735 378.384 502.735C372.42 502.735 367.648 500.749 364.068 496.779C360.487 492.807 358.696 487.513 358.696 480.9V480.431" fill="white"/>
<path d="M419.751 483.829L415.532 488.165V501.955H406.04V441.955H415.532V476.564L418.501 472.852L430.181 459.688H441.587L425.884 477.305L443.267 501.955H432.291L419.751 483.829" fill="white"/>
<path d="M464.477 466.524C461.873 466.524 459.771 467.436 458.169 469.259C456.568 471.081 455.545 473.621 455.103 476.876H473.188V476.173C472.98 472.996 472.133 470.593 470.649 468.965C469.165 467.339 467.108 466.524 464.477 466.524V466.524ZM465.611 502.735C459.595 502.735 454.719 500.841 450.981 497.052C447.244 493.263 445.376 488.217 445.376 481.915V480.743C445.376 476.524 446.189 472.755 447.817 469.435C449.445 466.115 451.731 463.529 454.673 461.68C457.616 459.832 460.897 458.907 464.517 458.907C470.272 458.907 474.719 460.743 477.856 464.415C480.995 468.087 482.564 473.283 482.564 480.001V483.829H454.947C455.233 487.319 456.399 490.079 458.443 492.111C460.487 494.141 463.059 495.157 466.157 495.157C470.507 495.157 474.048 493.4 476.783 489.884L481.9 494.767C480.207 497.292 477.948 499.252 475.123 500.645C472.297 502.039 469.127 502.735 465.611 502.735Z" fill="white"/>
<path d="M500.024 501.955H490.532V441.955H500.024V501.955Z" fill="white"/>
<path d="M537.915 480.431C537.915 476.212 537.075 472.865 535.396 470.392C533.716 467.917 531.313 466.68 528.188 466.68C524.308 466.68 521.521 468.283 519.829 471.485V490.235C521.548 493.516 524.36 495.157 528.267 495.157C531.288 495.157 533.651 493.94 535.356 491.505C537.063 489.069 537.915 485.379 537.915 480.431V480.431ZM547.368 481.251C547.368 487.788 545.884 493.003 542.915 496.896C539.947 500.789 535.963 502.735 530.963 502.735C526.327 502.735 522.616 501.212 519.829 498.165V518.204H510.337V459.688H519.087L519.477 463.985C522.264 460.6 526.053 458.907 530.845 458.907C536.001 458.907 540.044 460.828 542.973 464.669C545.904 468.511 547.368 473.843 547.368 480.665V481.251" fill="white"/>
<path d="M563.111 481.251C563.111 485.6 564.009 489.005 565.805 491.465C567.603 493.927 570.103 495.157 573.305 495.157C576.509 495.157 579.003 493.907 580.787 491.407C582.571 488.907 583.461 485.248 583.461 480.431C583.461 476.16 582.544 472.775 580.708 470.275C578.872 467.775 576.379 466.524 573.228 466.524C570.129 466.524 567.668 467.755 565.845 470.216C564.021 472.677 563.111 476.355 563.111 481.251V481.251ZM553.619 480.431C553.619 476.289 554.439 472.56 556.079 469.239C557.72 465.919 560.024 463.367 562.993 461.583C565.963 459.799 569.373 458.907 573.228 458.907C578.931 458.907 583.56 460.743 587.115 464.415C590.669 468.087 592.589 472.956 592.876 479.024L592.915 481.251C592.915 485.417 592.115 489.141 590.513 492.423C588.911 495.704 586.62 498.243 583.637 500.04C580.656 501.837 577.212 502.735 573.305 502.735C567.343 502.735 562.571 500.749 558.989 496.779C555.408 492.807 553.619 487.513 553.619 480.9V480.431Z" fill="white"/>
<path d="M611.04 501.955H601.548V459.688H611.04V501.955ZM600.961 448.712C600.961 447.253 601.424 446.043 602.349 445.079C603.273 444.116 604.595 443.633 606.313 443.633C608.032 443.633 609.36 444.116 610.297 445.079C611.236 446.043 611.704 447.253 611.704 448.712C611.704 450.144 611.236 451.336 610.297 452.287C609.36 453.236 608.032 453.712 606.313 453.712C604.595 453.712 603.273 453.236 602.349 452.287C601.424 451.336 600.961 450.144 600.961 448.712Z" fill="white"/>
<path d="M645.064 490.469C645.064 488.777 644.367 487.488 642.973 486.603C641.58 485.717 639.269 484.936 636.04 484.259C632.811 483.581 630.116 482.723 627.955 481.68C623.215 479.389 620.845 476.068 620.845 471.72C620.845 468.073 622.381 465.027 625.455 462.579C628.527 460.131 632.433 458.907 637.173 458.907C642.225 458.907 646.307 460.157 649.419 462.657C652.531 465.157 654.087 468.4 654.087 472.384H644.595C644.595 470.561 643.917 469.044 642.564 467.833C641.209 466.623 639.412 466.016 637.173 466.016C635.089 466.016 633.391 466.499 632.075 467.461C630.76 468.425 630.103 469.715 630.103 471.329C630.103 472.788 630.715 473.92 631.939 474.728C633.163 475.535 635.636 476.348 639.36 477.169C643.084 477.989 646.008 478.965 648.129 480.099C650.252 481.232 651.828 482.592 652.856 484.18C653.885 485.769 654.4 487.696 654.4 489.961C654.4 493.764 652.824 496.844 649.673 499.2C646.521 501.557 642.395 502.735 637.291 502.735C633.827 502.735 630.74 502.111 628.032 500.86C625.324 499.611 623.215 497.892 621.704 495.704C620.193 493.516 619.439 491.16 619.439 488.633H628.657C628.788 490.873 629.633 492.599 631.196 493.809C632.759 495.02 634.829 495.625 637.407 495.625C639.907 495.625 641.808 495.151 643.111 494.2C644.412 493.249 645.064 492.007 645.064 490.469" fill="white"/>
<path d="M688.267 497.813C685.48 501.095 681.521 502.735 676.392 502.735C671.808 502.735 668.339 501.395 665.981 498.712C663.625 496.029 662.447 492.149 662.447 487.071V459.688H671.939V486.955C671.939 492.319 674.165 495.001 678.619 495.001C683.228 495.001 686.34 493.347 687.955 490.04V459.688H697.447V501.955H688.501L688.267 497.813" fill="white"/>
<path d="M732.72 497.813C729.933 501.095 725.975 502.735 720.845 502.735C716.261 502.735 712.792 501.395 710.435 498.712C708.077 496.029 706.9 492.149 706.9 487.071V459.688H716.392V486.955C716.392 492.319 718.619 495.001 723.072 495.001C727.681 495.001 730.793 493.347 732.407 490.04V459.688H741.9V501.955H732.955L732.72 497.813" fill="white"/>
<path d="M775.259 490.469C775.259 488.777 774.563 487.488 773.169 486.603C771.776 485.717 769.464 484.936 766.236 484.259C763.007 483.581 760.311 482.723 758.149 481.68C753.409 479.389 751.04 476.068 751.04 471.72C751.04 468.073 752.576 465.027 755.649 462.579C758.723 460.131 762.628 458.907 767.368 458.907C772.42 458.907 776.503 460.157 779.615 462.657C782.727 465.157 784.283 468.4 784.283 472.384H774.791C774.791 470.561 774.113 469.044 772.759 467.833C771.405 466.623 769.608 466.016 767.368 466.016C765.285 466.016 763.585 466.499 762.271 467.461C760.956 468.425 760.297 469.715 760.297 471.329C760.297 472.788 760.909 473.92 762.133 474.728C763.357 475.535 765.832 476.348 769.556 477.169C773.28 477.989 776.203 478.965 778.325 480.099C780.448 481.232 782.023 482.592 783.052 484.18C784.08 485.769 784.595 487.696 784.595 489.961C784.595 493.764 783.019 496.844 779.868 499.2C776.717 501.557 772.589 502.735 767.485 502.735C764.021 502.735 760.936 502.111 758.228 500.86C755.519 499.611 753.409 497.892 751.9 495.704C750.389 493.516 749.633 491.16 749.633 488.633H758.852C758.983 490.873 759.829 492.599 761.392 493.809C762.955 495.02 765.024 495.625 767.603 495.625C770.103 495.625 772.004 495.151 773.305 494.2C774.608 493.249 775.259 492.007 775.259 490.469" fill="white"/>
<path d="M197.18 554.677C197.18 556.548 196.651 557.976 195.593 558.96C194.535 559.947 193.04 560.438 191.107 560.438C189.187 560.438 187.648 559.792 186.492 558.503C185.336 557.212 184.757 555.453 184.757 553.226V551.208C184.757 549.056 185.341 547.333 186.511 546.043C187.679 544.752 189.211 544.107 191.107 544.107C193.064 544.107 194.568 544.609 195.621 545.612C196.672 546.615 197.199 548.028 197.199 549.849H194.52C194.52 548.632 194.229 547.762 193.648 547.238C193.067 546.717 192.22 546.456 191.107 546.456C189.957 546.456 189.051 546.879 188.391 547.726C187.731 548.572 187.4 549.75 187.4 551.26V553.341C187.4 554.813 187.731 555.972 188.391 556.819C189.051 557.667 189.957 558.089 191.107 558.089C192.232 558.089 193.079 557.832 193.648 557.315C194.216 556.797 194.501 555.919 194.501 554.677H197.18ZM180.427 552.244C180.427 554.347 180.916 556.293 181.895 558.084C182.873 559.876 184.204 561.279 185.885 562.292C187.568 563.307 189.388 563.815 191.345 563.815C193.303 563.815 195.119 563.307 196.795 562.292C198.471 561.279 199.797 559.876 200.777 558.084C201.756 556.293 202.244 554.347 202.244 552.244C202.244 550.168 201.761 548.241 200.796 546.469C199.828 544.697 198.504 543.3 196.823 542.28C195.14 541.259 193.315 540.748 191.345 540.748C189.388 540.748 187.565 541.254 185.877 542.261C184.188 543.271 182.859 544.667 181.885 546.452C180.913 548.235 180.427 550.168 180.427 552.244V552.244ZM178.317 552.254C178.317 549.784 178.888 547.489 180.032 545.373C181.176 543.256 182.76 541.589 184.785 540.372C186.809 539.156 188.996 538.547 191.345 538.547C193.693 538.547 195.877 539.156 197.896 540.372C199.915 541.589 201.495 543.256 202.639 545.373C203.783 547.489 204.355 549.784 204.355 552.254C204.355 554.664 203.804 556.921 202.704 559.025C201.603 561.129 200.04 562.821 198.016 564.099C195.991 565.377 193.768 566.016 191.345 566.016C188.935 566.016 186.717 565.384 184.693 564.117C182.668 562.85 181.1 561.167 179.987 559.062C178.873 556.957 178.317 554.688 178.317 552.254Z" fill="white"/>
<path d="M217.717 567.671V584.429H227.856C230.713 584.429 232.968 583.688 234.62 582.207C236.272 580.726 237.099 578.683 237.099 576.081C237.099 570.473 234.049 567.671 227.952 567.671H217.717ZM217.717 562.744H226.992C229.679 562.744 231.827 562.072 233.436 560.726C235.047 559.38 235.852 557.554 235.852 555.244C235.852 552.68 235.105 550.816 233.613 549.652C232.12 548.488 229.849 547.904 226.8 547.904H217.717V562.744ZM211.576 589.45V542.884H226.8C231.853 542.884 235.655 543.928 238.203 546.017C240.749 548.108 242.024 551.199 242.024 555.292C242.024 557.467 241.405 559.392 240.169 561.067C238.933 562.738 237.248 564.035 235.116 564.952C237.632 565.655 239.62 566.993 241.08 568.966C242.541 570.937 243.271 573.29 243.271 576.017C243.271 580.196 241.917 583.48 239.211 585.868C236.501 588.256 232.675 589.45 227.728 589.45H211.576" fill="white"/>
<path d="M257.856 589.45H251.939V554.845H257.856V589.45ZM251.46 545.667C251.46 544.707 251.752 543.897 252.339 543.235C252.925 542.574 253.795 542.243 254.945 542.243C256.097 542.243 256.971 542.574 257.568 543.235C258.164 543.897 258.464 544.707 258.464 545.667C258.464 546.626 258.164 547.426 257.568 548.066C256.971 548.704 256.097 549.024 254.945 549.024C253.795 549.024 252.925 548.704 252.339 548.066C251.752 547.426 251.46 546.626 251.46 545.667" fill="white"/>
<path d="M287.472 580.272C287.472 578.672 286.869 577.431 285.664 576.545C284.46 575.661 282.359 574.899 279.364 574.259C276.368 573.619 273.991 572.85 272.232 571.956C270.472 571.06 269.172 569.995 268.329 568.757C267.488 567.52 267.067 566.05 267.067 564.344C267.067 561.509 268.267 559.109 270.664 557.148C273.064 555.185 276.128 554.205 279.86 554.205C283.783 554.205 286.964 555.219 289.407 557.243C291.848 559.269 293.069 561.86 293.069 565.015H287.12C287.12 563.396 286.432 561.999 285.057 560.825C283.681 559.654 281.949 559.067 279.86 559.067C277.705 559.067 276.021 559.536 274.807 560.473C273.591 561.412 272.984 562.637 272.984 564.152C272.984 565.58 273.548 566.657 274.679 567.383C275.808 568.108 277.849 568.8 280.803 569.46C283.756 570.123 286.149 570.911 287.984 571.828C289.817 572.744 291.176 573.848 292.061 575.137C292.945 576.428 293.388 578.001 293.388 579.855C293.388 582.948 292.152 585.425 289.679 587.291C287.205 589.157 283.996 590.089 280.051 590.089C277.28 590.089 274.827 589.599 272.696 588.619C270.563 587.637 268.895 586.268 267.691 584.509C266.485 582.749 265.883 580.847 265.883 578.8H271.8C271.907 580.784 272.7 582.355 274.183 583.517C275.664 584.679 277.621 585.26 280.051 585.26C282.291 585.26 284.087 584.808 285.44 583.9C286.795 582.996 287.472 581.785 287.472 580.272" fill="white"/>
<path d="M306.693 554.845L306.885 559.195C309.529 555.868 312.983 554.205 317.248 554.205C324.561 554.205 328.249 558.331 328.313 566.583V589.45H322.397V566.55C322.376 564.056 321.805 562.212 320.685 561.017C319.567 559.824 317.824 559.226 315.457 559.226C313.537 559.226 311.853 559.737 310.404 560.761C308.953 561.785 307.824 563.128 307.013 564.791V589.45H301.097V554.845H306.693" fill="white"/>
<path d="M341.619 572.531C341.619 576.369 342.509 579.45 344.289 581.774C346.069 584.099 348.452 585.26 351.437 585.26C354.444 585.26 356.832 584.083 358.601 581.726C360.371 579.371 361.256 576.071 361.256 571.828C361.256 568.032 360.355 564.956 358.553 562.601C356.752 560.244 354.359 559.067 351.373 559.067C348.452 559.067 346.096 560.229 344.305 562.554C342.515 564.877 341.619 568.203 341.619 572.531V572.531ZM335.669 571.828C335.669 568.437 336.336 565.389 337.669 562.68C339.001 559.973 340.856 557.884 343.235 556.412C345.611 554.941 348.324 554.205 351.373 554.205C356.085 554.205 359.897 555.837 362.807 559.099C365.717 562.36 367.173 566.7 367.173 572.116V572.531C367.173 575.9 366.528 578.923 365.239 581.599C363.948 584.274 362.104 586.359 359.705 587.85C357.307 589.344 354.551 590.089 351.437 590.089C346.747 590.089 342.945 588.459 340.036 585.196C337.125 581.935 335.669 577.617 335.669 572.243V571.828" fill="white"/>
<path d="M379.071 572.531C379.071 576.455 379.88 579.525 381.501 581.741C383.121 583.96 385.36 585.068 388.217 585.068C391.969 585.068 394.709 583.385 396.436 580.015V564.12C394.667 560.857 391.948 559.226 388.281 559.226C385.381 559.226 383.121 560.345 381.501 562.584C379.88 564.824 379.071 568.138 379.071 572.531V572.531ZM373.153 571.86C373.153 566.55 374.411 562.281 376.928 559.05C379.443 555.82 382.737 554.205 386.809 554.205C390.861 554.205 394.071 555.592 396.436 558.362V540.325H402.353V589.45H396.916L396.629 585.74C394.263 588.64 390.968 590.089 386.745 590.089C382.737 590.089 379.469 588.448 376.943 585.165C374.416 581.881 373.153 577.596 373.153 572.307V571.86" fill="white"/>
<path d="M425.157 559.067C422.769 559.067 420.765 559.936 419.145 561.673C417.524 563.411 416.523 565.847 416.139 568.981H433.473V568.533C433.303 565.526 432.492 563.197 431.043 561.545C429.592 559.893 427.631 559.067 425.157 559.067V559.067ZM425.893 590.089C421.203 590.089 417.387 588.549 414.444 585.468C411.501 582.388 410.029 578.267 410.029 573.107V572.019C410.029 568.587 410.685 565.521 411.997 562.825C413.308 560.126 415.141 558.016 417.499 556.492C419.853 554.968 422.408 554.205 425.157 554.205C429.656 554.205 433.153 555.687 435.648 558.65C438.143 561.615 439.391 565.857 439.391 571.38V573.843H415.947C416.032 577.255 417.028 580.011 418.937 582.111C420.845 584.211 423.271 585.26 426.213 585.26C428.303 585.26 430.073 584.835 431.521 583.981C432.972 583.128 434.241 581.999 435.328 580.591L438.943 583.405C436.043 587.861 431.692 590.089 425.893 590.089Z" fill="white"/>
<path d="M492.353 589.45H461.843V585.196L477.963 567.286C480.349 564.579 481.996 562.378 482.904 560.681C483.808 558.987 484.263 557.233 484.263 555.42C484.263 552.991 483.527 550.997 482.056 549.44C480.584 547.884 478.623 547.105 476.171 547.105C473.228 547.105 470.941 547.943 469.309 549.616C467.68 551.29 466.863 553.62 466.863 556.604H460.947C460.947 552.319 462.327 548.854 465.088 546.209C467.851 543.567 471.544 542.243 476.171 542.243C480.499 542.243 483.92 543.379 486.437 545.649C488.953 547.92 490.211 550.943 490.211 554.717C490.211 559.302 487.291 564.76 481.448 571.092L468.975 584.621H492.353V589.45" fill="white"/>
<path d="M521.907 561.497C521.907 556.487 521.201 552.836 519.796 550.543C518.388 548.25 516.16 547.105 513.111 547.105C510.083 547.105 507.876 548.245 506.491 550.526C505.104 552.809 504.389 556.316 504.348 561.049V570.516C504.348 575.549 505.077 579.264 506.537 581.662C507.999 584.061 510.211 585.26 513.175 585.26C516.095 585.26 518.264 584.131 519.684 581.871C521.1 579.611 521.843 576.049 521.907 571.188V561.497ZM527.823 569.589C527.823 576.519 526.639 581.668 524.272 585.036C521.907 588.405 518.207 590.089 513.175 590.089C508.205 590.089 504.528 588.443 502.14 585.148C499.752 581.854 498.516 576.935 498.431 570.389V562.489C498.431 555.644 499.615 550.56 501.98 547.233C504.348 543.907 508.057 542.243 513.111 542.243C518.121 542.243 521.809 543.848 524.177 547.057C526.543 550.267 527.759 555.219 527.823 561.913V569.589" fill="white"/>
<path d="M565.913 589.45H535.403V585.196L551.521 567.286C553.908 564.579 555.556 562.378 556.464 560.681C557.368 558.987 557.823 557.233 557.823 555.42C557.823 552.991 557.087 550.997 555.616 549.44C554.144 547.884 552.183 547.105 549.731 547.105C546.788 547.105 544.501 547.943 542.869 549.616C541.24 551.29 540.423 553.62 540.423 556.604H534.507C534.507 552.319 535.887 548.854 538.648 546.209C541.409 543.567 545.104 542.243 549.731 542.243C554.059 542.243 557.48 543.379 559.997 545.649C562.513 547.92 563.771 550.943 563.771 554.717C563.771 559.302 560.851 564.76 555.008 571.092L542.535 584.621H565.913V589.45" fill="white"/>
<path d="M602.693 589.45H572.183V585.196L588.301 567.286C590.688 564.579 592.336 562.378 593.243 560.681C594.148 558.987 594.603 557.233 594.603 555.42C594.603 552.991 593.867 550.997 592.396 549.44C590.924 547.884 588.961 547.105 586.511 547.105C583.568 547.105 581.281 547.943 579.649 549.616C578.019 551.29 577.203 553.62 577.203 556.604H571.287C571.287 552.319 572.667 548.854 575.428 546.209C578.189 543.567 581.884 542.243 586.511 542.243C590.839 542.243 594.26 543.379 596.777 545.649C599.293 547.92 600.551 550.943 600.551 554.717C600.551 559.302 597.629 564.76 591.788 571.092L579.315 584.621H602.693V589.45Z" fill="white"/>
</svg>
