<svg width="681" height="591" viewBox="0 0 681 591" fill="none" xmlns="http://www.w3.org/2000/svg">
<path d="M669.827 51.3133C669.827 76.112 652.741 93.2014 631.045 93.2014C606.913 93.2014 592.004 74.3467 592.004 51.3133C592.004 26.6333 609.095 9.44132 631.045 9.44132C652.741 9.44132 669.827 26.6333 669.827 51.3133ZM680.655 51.3133C680.655 20.8013 657.609 0.621337 631.045 0.621337C604.204 0.621337 581.159 20.8013 581.159 51.3133C581.159 80.1853 601.901 102.008 631.045 102.008C657.609 102.008 680.655 81.8133 680.655 51.3133ZM621.032 48.46V32.0547H632.145C637.711 32.0547 644.34 32.8854 644.34 39.6507C644.34 47.7894 638.239 48.46 631.313 48.46H621.032ZM621.032 56.3254H629.685L644.188 80.3147H654.615L638.925 55.6254C647.333 54.6974 653.539 50.4934 653.539 40.3174C653.539 28.96 646.643 24.212 633.087 24.212H611.821V80.3147H621.032V56.3254" fill="white"/>
<path d="M190.843 51.3133H124.4L0.654663 401.983H136.931L149.113 354.48H232.248L244.424 401.983H380.708L256.971 51.3133H190.525H190.843ZM166.111 270.875L190.947 163.732L216.044 270.875H166.111Z" fill="#F68712"/>
<path d="M464.271 94.5507H405.969L297.361 402.297H416.965L427.653 360.603H500.62L511.297 402.297H630.907L522.311 94.5507H464.009H464.271ZM442.575 287.235L464.364 193.208L486.403 287.235H442.575Z" fill="#F68712"/>
<path d="M24.1494 447.408L31.6494 435.065H38.3987L27.336 451.784L38.7427 468.877H32.0547L24.2427 456.221L16.4307 468.877H9.71204L21.1174 451.784L10.0547 435.065H16.7427L24.1494 447.408" fill="white"/>
<path d="M48.8053 452.345C48.8053 456.096 49.6746 459.107 51.4146 461.377C53.1546 463.648 55.4826 464.784 58.3986 464.784C61.3359 464.784 63.6693 463.632 65.3986 461.331C67.1279 459.028 67.9919 455.804 67.9919 451.659C67.9919 447.951 67.112 444.945 65.352 442.643C63.592 440.341 61.2533 439.189 58.336 439.189C55.4826 439.189 53.1799 440.325 51.4306 442.596C49.6799 444.867 48.8053 448.117 48.8053 452.345V452.345ZM42.9919 451.659C42.9919 448.345 43.6439 445.367 44.9453 442.721C46.2479 440.075 48.06 438.033 50.3826 436.596C52.7066 435.159 55.3573 434.44 58.336 434.44C62.94 434.44 66.664 436.033 69.508 439.221C72.352 442.408 73.7733 446.648 73.7733 451.94V452.345C73.7733 455.637 73.1439 458.591 71.8826 461.205C70.6226 463.82 68.8213 465.856 66.4773 467.315C64.1333 468.773 61.4399 469.503 58.3986 469.503C53.8159 469.503 50.1026 467.908 47.2586 464.721C44.4146 461.533 42.9919 457.315 42.9919 452.065V451.659" fill="white"/>
<path d="M103.805 451.689C103.805 447.877 102.992 444.867 101.368 442.659C99.7426 440.451 97.5133 439.345 94.6799 439.345C91.1799 439.345 88.5546 440.899 86.8053 444.003V460.159C88.5346 463.241 91.1799 464.784 94.7426 464.784C97.5133 464.784 99.7159 463.684 101.352 461.487C102.988 459.289 103.805 456.023 103.805 451.689V451.689ZM109.587 452.345C109.587 457.492 108.409 461.637 106.055 464.784C103.701 467.929 100.513 469.503 96.4919 469.503C92.3879 469.503 89.1586 468.2 86.8053 465.596V481.877H81.0239V435.065H86.3053L86.5866 438.815C88.9399 435.899 92.2119 434.44 96.3986 434.44C100.461 434.44 103.675 435.971 106.04 439.033C108.404 442.096 109.587 446.356 109.587 451.815V452.345Z" fill="white"/>
<path d="M121.212 452.345C121.212 456.096 122.081 459.107 123.821 461.377C125.56 463.648 127.888 464.784 130.805 464.784C133.743 464.784 136.076 463.632 137.805 461.331C139.535 459.028 140.399 455.804 140.399 451.659C140.399 447.951 139.519 444.945 137.759 442.643C135.997 440.341 133.659 439.189 130.743 439.189C127.888 439.189 125.587 440.325 123.836 442.596C122.087 444.867 121.212 448.117 121.212 452.345ZM115.399 451.659C115.399 448.345 116.049 445.367 117.352 442.721C118.655 440.075 120.467 438.033 122.789 436.596C125.112 435.159 127.764 434.44 130.743 434.44C135.347 434.44 139.071 436.033 141.915 439.221C144.759 442.408 146.18 446.648 146.18 451.94V452.345C146.18 455.637 145.549 458.591 144.289 461.205C143.029 463.82 141.227 465.856 138.883 467.315C136.54 468.773 133.847 469.503 130.805 469.503C126.221 469.503 122.508 467.908 119.664 464.721C116.821 461.533 115.399 457.315 115.399 452.065V451.659" fill="white"/>
<path d="M159.743 435.065V464.159H172.117V435.065H177.899V464.159H190.243V435.065H196.055V468.877H153.931V435.065H159.743" fill="white"/>
<path d="M227.055 435.065H232.836V468.877H227.055V444.221L211.461 468.877H205.68V435.065H211.461V459.752L227.055 435.065Z" fill="white"/>
<path d="M265.555 422.721C265.555 425.251 264.696 427.285 262.977 428.823C261.259 430.359 259.003 431.127 256.212 431.127C253.42 431.127 251.159 430.353 249.431 428.807C247.701 427.259 246.836 425.232 246.836 422.721H251.555C251.555 424.179 251.951 425.32 252.743 426.143C253.535 426.965 254.691 427.377 256.212 427.377C257.669 427.377 258.811 426.971 259.633 426.159C260.456 425.345 260.868 424.2 260.868 422.721H265.555ZM263.992 435.065H269.773V468.877H263.992V444.221L248.399 468.877H242.617V435.065H248.399V459.752L263.992 435.065Z" fill="white"/>
<path d="M305.431 454.471H301.212V468.877H295.399V435.065H301.212V449.377H304.992L316.368 435.065H323.368L309.992 451.315L324.493 468.877H317.149L305.431 454.471" fill="white"/>
<path d="M352.243 451.689C352.243 447.877 351.431 444.867 349.805 442.659C348.181 440.451 345.952 439.345 343.119 439.345C339.619 439.345 336.993 440.899 335.243 444.003V460.159C336.972 463.241 339.619 464.784 343.181 464.784C345.952 464.784 348.155 463.684 349.791 461.487C351.425 459.289 352.243 456.023 352.243 451.689V451.689ZM358.024 452.345C358.024 457.492 356.848 461.637 354.493 464.784C352.139 467.929 348.952 469.503 344.931 469.503C340.827 469.503 337.597 468.2 335.243 465.596V481.877H329.463V435.065H334.743L335.024 438.815C337.379 435.899 340.649 434.44 344.837 434.44C348.9 434.44 352.113 435.971 354.477 439.033C356.843 442.096 358.024 446.356 358.024 451.815V452.345" fill="white"/>
<path d="M378.681 439.189C376.348 439.189 374.389 440.039 372.805 441.736C371.223 443.435 370.243 445.815 369.868 448.877H386.805V448.44C386.639 445.503 385.848 443.227 384.431 441.612C383.015 439.997 381.097 439.189 378.681 439.189V439.189ZM379.4 469.503C374.816 469.503 371.087 467.997 368.212 464.987C365.337 461.976 363.9 457.951 363.9 452.908V451.845C363.9 448.492 364.54 445.497 365.821 442.861C367.103 440.227 368.895 438.164 371.196 436.675C373.499 435.184 375.993 434.44 378.681 434.44C383.076 434.44 386.493 435.888 388.931 438.784C391.368 441.679 392.587 445.825 392.587 451.221V453.627H369.681C369.764 456.96 370.739 459.653 372.603 461.705C374.467 463.757 376.837 464.784 379.712 464.784C381.753 464.784 383.483 464.367 384.9 463.533C386.316 462.7 387.556 461.596 388.619 460.221L392.149 462.971C389.316 467.325 385.067 469.503 379.4 469.503" fill="white"/>
<path d="M405.837 464.159H421.368V440.408H410.963L410.619 448.471C410.264 455.2 408.671 460.429 405.837 464.159V464.159ZM398.993 464.159L400.993 461.689C403.243 458.773 404.524 454.399 404.837 448.565L405.368 435.065H427.149V464.159H431.493V478.815H425.712V468.877H402.119V478.815H396.337L396.368 464.159H398.993" fill="white"/>
<path d="M459.775 435.065H465.556V468.877H459.775V444.221L444.181 468.877H438.4V435.065H444.181V459.752L459.775 435.065Z" fill="white"/>
<path d="M499.961 439.752H488.619V468.877H482.837V439.752H471.712V435.065H499.961V439.752" fill="white"/>
<path d="M533.212 468.877H527.431V454.44H511.9V468.877H506.087V435.065H511.9V449.721H527.431V435.065H533.212V468.877Z" fill="white"/>
<path d="M582.087 468.877H576.275V435.065H582.087V468.877ZM548.805 451.44V464.159H557.4C559.567 464.159 561.243 463.601 562.431 462.487C563.619 461.372 564.212 459.845 564.212 457.908C564.212 456.033 563.633 454.497 562.477 453.299C561.321 452.101 559.701 451.481 557.619 451.44H548.805ZM548.805 446.721H557.587C561.42 446.763 564.452 447.763 566.681 449.721C568.909 451.679 570.024 454.336 570.024 457.689C570.024 461.065 568.879 463.773 566.587 465.815C564.295 467.856 561.212 468.877 557.337 468.877H543.024V435.065H548.805V446.721" fill="white"/>
<path d="M615.619 422.721C615.619 425.251 614.759 427.285 613.04 428.823C611.321 430.359 609.067 431.127 606.275 431.127C603.483 431.127 601.223 430.353 599.493 428.807C597.764 427.259 596.9 425.232 596.9 422.721H601.619C601.619 424.179 602.015 425.32 602.805 426.143C603.597 426.965 604.753 427.377 606.275 427.377C607.733 427.377 608.873 426.971 609.696 426.159C610.519 425.345 610.931 424.2 610.931 422.721H615.619ZM614.056 435.065H619.837V468.877H614.056V444.221L598.461 468.877H592.681V435.065H598.461V459.752L614.056 435.065Z" fill="white"/>
<path d="M226.047 503.689C226.047 499.877 225.235 496.867 223.609 494.659C221.984 492.451 219.755 491.345 216.921 491.345C213.421 491.345 210.797 492.899 209.047 496.003V512.159C210.776 515.241 213.421 516.784 216.984 516.784C219.755 516.784 221.959 515.684 223.593 513.487C225.229 511.289 226.047 508.023 226.047 503.689V503.689ZM231.828 504.345C231.828 509.492 230.651 513.637 228.297 516.784C225.943 519.929 222.755 521.503 218.735 521.503C214.631 521.503 211.401 520.2 209.047 517.596V533.878H203.265V487.065H208.547L208.828 490.815C211.183 487.899 214.453 486.44 218.64 486.44C222.703 486.44 225.916 487.971 228.281 491.033C230.645 494.096 231.828 498.356 231.828 503.815V504.345" fill="white"/>
<path d="M252.484 491.189C250.151 491.189 248.192 492.039 246.609 493.736C245.025 495.435 244.047 497.815 243.672 500.877H260.609V500.44C260.443 497.503 259.651 495.227 258.235 493.612C256.817 491.997 254.901 491.189 252.484 491.189V491.189ZM253.203 521.503C248.62 521.503 244.891 519.997 242.016 516.987C239.14 513.976 237.703 509.951 237.703 504.908V503.845C237.703 500.492 238.344 497.497 239.625 494.861C240.907 492.227 242.697 490.164 245 488.675C247.301 487.184 249.797 486.44 252.484 486.44C256.88 486.44 260.297 487.888 262.735 490.784C265.172 493.679 266.391 497.825 266.391 503.221V505.627H243.484C243.568 508.96 244.541 511.653 246.407 513.705C248.271 515.757 250.64 516.784 253.516 516.784C255.557 516.784 257.287 516.367 258.703 515.533C260.12 514.7 261.359 513.596 262.421 512.221L265.953 514.971C263.12 519.325 258.869 521.503 253.203 521.503" fill="white"/>
<path d="M296.516 474.721C296.516 477.251 295.656 479.285 293.937 480.823C292.219 482.359 289.964 483.127 287.172 483.127C284.38 483.127 282.12 482.353 280.391 480.807C278.661 479.259 277.797 477.232 277.797 474.721H282.516C282.516 476.179 282.911 477.32 283.703 478.143C284.495 478.965 285.651 479.377 287.172 479.377C288.631 479.377 289.771 478.971 290.593 478.159C291.416 477.345 291.828 476.2 291.828 474.721H296.516ZM294.953 487.065H300.735V520.877H294.953V496.221L279.359 520.877H273.577V487.065H279.359V511.752L294.953 487.065Z" fill="white"/>
<path d="M335.14 491.752H323.797V520.877H318.016V491.752H306.891V487.065H335.14V491.752" fill="white"/>
<path d="M362.64 487.065H368.421V520.877H362.64V496.221L347.047 520.877H341.265V487.065H347.047V511.752L362.64 487.065" fill="white"/>
<path d="M405.328 520.877H399.547V506.44H384.016V520.877H378.203V487.065H384.016V501.721H399.547V487.065H405.328V520.877Z" fill="white"/>
<path d="M433.723 494.869H419.752V520.877H414.545V490.587H433.723V494.869" fill="white"/>
<path d="M121.691 554.952C121.691 556.823 121.161 558.25 120.104 559.235C119.047 560.221 117.551 560.713 115.617 560.713C113.697 560.713 112.159 560.067 111.003 558.777C109.847 557.487 109.269 555.728 109.269 553.501V551.483C109.269 549.331 109.852 547.608 111.021 546.317C112.189 545.026 113.721 544.381 115.617 544.381C117.575 544.381 119.079 544.884 120.132 545.887C121.184 546.889 121.711 548.303 121.711 550.124H119.031C119.031 548.907 118.74 548.037 118.159 547.513C117.577 546.992 116.731 546.731 115.617 546.731C114.468 546.731 113.563 547.154 112.903 548.001C112.241 548.847 111.911 550.025 111.911 551.535V553.616C111.911 555.088 112.241 556.247 112.903 557.093C113.563 557.941 114.468 558.364 115.617 558.364C116.743 558.364 117.591 558.107 118.159 557.589C118.728 557.072 119.012 556.193 119.012 554.952H121.691ZM104.937 552.519C104.937 554.623 105.427 556.568 106.407 558.359C107.384 560.15 108.715 561.554 110.397 562.567C112.079 563.581 113.899 564.089 115.856 564.089C117.813 564.089 119.631 563.581 121.305 562.567C122.983 561.554 124.309 560.15 125.288 558.359C126.267 556.568 126.756 554.623 126.756 552.519C126.756 550.443 126.272 548.516 125.307 546.744C124.34 544.972 123.016 543.574 121.333 542.555C119.652 541.533 117.825 541.023 115.856 541.023C113.899 541.023 112.076 541.528 110.388 542.536C108.7 543.545 107.369 544.941 106.397 546.726C105.424 548.511 104.937 550.443 104.937 552.519ZM102.828 552.528C102.828 550.059 103.4 547.764 104.544 545.648C105.687 543.531 107.271 541.864 109.296 540.647C111.321 539.431 113.508 538.821 115.856 538.821C118.205 538.821 120.388 539.431 122.408 540.647C124.425 541.864 126.007 543.531 127.151 545.648C128.295 547.764 128.867 550.059 128.867 552.528C128.867 554.938 128.316 557.196 127.215 559.3C126.113 561.404 124.551 563.096 122.527 564.373C120.501 565.652 118.279 566.291 115.856 566.291C113.445 566.291 111.229 565.659 109.204 564.392C107.18 563.125 105.611 561.441 104.497 559.337C103.384 557.233 102.828 554.962 102.828 552.528" fill="white"/>
<path d="M142.228 567.945V584.704H152.367C155.224 584.704 157.479 583.962 159.131 582.481C160.784 581 161.609 578.957 161.609 576.356C161.609 570.748 158.56 567.945 152.463 567.945H142.228ZM142.228 563.019H151.504C154.189 563.019 156.337 562.347 157.948 561.001C159.557 559.655 160.363 557.828 160.363 555.519C160.363 552.956 159.616 551.091 158.124 549.926C156.631 548.762 154.36 548.179 151.312 548.179H142.228V563.019ZM136.088 589.725V543.159H151.312C156.365 543.159 160.165 544.203 162.713 546.292C165.261 548.383 166.536 551.473 166.536 555.567C166.536 557.741 165.916 559.667 164.68 561.341C163.444 563.013 161.759 564.309 159.628 565.226C162.143 565.929 164.131 567.268 165.592 569.24C167.052 571.212 167.783 573.564 167.783 576.292C167.783 580.471 166.428 583.755 163.721 586.143C161.013 588.531 157.185 589.725 152.24 589.725H136.088" fill="white"/>
<path d="M182.367 589.725H176.451V555.12H182.367V589.725ZM175.971 545.941C175.971 544.981 176.263 544.172 176.851 543.511C177.436 542.849 178.305 542.517 179.456 542.517C180.608 542.517 181.481 542.849 182.079 543.511C182.676 544.172 182.975 544.981 182.975 545.941C182.975 546.9 182.676 547.7 182.079 548.34C181.481 548.979 180.608 549.299 179.456 549.299C178.305 549.299 177.436 548.979 176.851 548.34C176.263 547.7 175.971 546.9 175.971 545.941Z" fill="white"/>
<path d="M211.983 580.547C211.983 578.947 211.38 577.705 210.176 576.82C208.971 575.936 206.871 575.173 203.875 574.533C200.88 573.893 198.501 573.125 196.743 572.231C194.984 571.335 193.683 570.269 192.841 569.032C191.999 567.795 191.577 566.325 191.577 564.619C191.577 561.784 192.777 559.384 195.176 557.423C197.575 555.46 200.639 554.48 204.371 554.48C208.293 554.48 211.476 555.493 213.917 557.517C216.359 559.544 217.58 562.135 217.58 565.289H211.631C211.631 563.671 210.943 562.273 209.568 561.1C208.192 559.928 206.46 559.341 204.371 559.341C202.216 559.341 200.533 559.811 199.317 560.748C198.103 561.687 197.495 562.912 197.495 564.426C197.495 565.855 198.059 566.932 199.189 567.657C200.32 568.383 202.36 569.074 205.315 569.735C208.268 570.397 210.66 571.185 212.495 572.103C214.328 573.019 215.687 574.123 216.572 575.412C217.457 576.703 217.9 578.276 217.9 580.129C217.9 583.223 216.663 585.7 214.189 587.567C211.716 589.432 208.507 590.364 204.563 590.364C201.791 590.364 199.339 589.873 197.207 588.893C195.075 587.912 193.405 586.543 192.201 584.784C190.996 583.024 190.395 581.123 190.395 579.074H196.311C196.417 581.059 197.212 582.629 198.693 583.792C200.176 584.955 202.132 585.535 204.563 585.535C206.801 585.535 208.597 585.083 209.952 584.176C211.305 583.271 211.983 582.06 211.983 580.547" fill="white"/>
<path d="M231.205 555.12L231.396 559.469C234.04 556.143 237.493 554.48 241.759 554.48C249.072 554.48 252.761 558.605 252.824 566.857V589.725H246.908V566.825C246.887 564.331 246.316 562.487 245.197 561.292C244.077 560.099 242.335 559.501 239.968 559.501C238.048 559.501 236.364 560.012 234.915 561.036C233.464 562.06 232.335 563.403 231.524 565.067V589.725H225.608V555.12H231.205Z" fill="white"/>
<path d="M266.131 572.805C266.131 576.644 267.02 579.725 268.8 582.049C270.58 584.373 272.964 585.535 275.948 585.535C278.955 585.535 281.343 584.357 283.112 582.001C284.881 579.645 285.768 576.345 285.768 572.103C285.768 568.307 284.867 565.232 283.065 562.876C281.263 560.519 278.869 559.341 275.884 559.341C272.964 559.341 270.607 560.504 268.816 562.828C267.025 565.152 266.131 568.477 266.131 572.805ZM260.181 572.103C260.181 568.712 260.848 565.664 262.18 562.956C263.512 560.248 265.367 558.159 267.745 556.687C270.123 555.216 272.835 554.48 275.884 554.48C280.597 554.48 284.408 556.112 287.319 559.373C290.229 562.635 291.684 566.975 291.684 572.391V572.805C291.684 576.176 291.039 579.197 289.749 581.873C288.459 584.549 286.615 586.633 284.216 588.125C281.817 589.619 279.061 590.364 275.948 590.364C271.257 590.364 267.457 588.733 264.547 585.471C261.636 582.209 260.181 577.892 260.181 572.517V572.103" fill="white"/>
<path d="M303.581 572.805C303.581 576.729 304.391 579.8 306.012 582.016C307.632 584.235 309.871 585.344 312.728 585.344C316.481 585.344 319.22 583.66 320.948 580.289V564.395C319.177 561.132 316.46 559.501 312.792 559.501C309.892 559.501 307.632 560.621 306.012 562.859C304.391 565.099 303.581 568.413 303.581 572.805V572.805ZM297.664 572.135C297.664 566.825 298.923 562.556 301.439 559.325C303.955 556.095 307.248 554.48 311.321 554.48C315.372 554.48 318.581 555.867 320.948 558.637V540.6H326.864V589.725H321.428L321.14 586.015C318.773 588.915 315.479 590.364 311.257 590.364C307.248 590.364 303.981 588.723 301.455 585.44C298.928 582.156 297.664 577.871 297.664 572.581V572.135Z" fill="white"/>
<path d="M349.668 559.341C347.28 559.341 345.276 560.211 343.656 561.948C342.035 563.685 341.033 566.123 340.649 569.256H357.984V568.808C357.813 565.801 357.003 563.472 355.553 561.82C354.103 560.168 352.141 559.341 349.668 559.341ZM350.404 590.364C345.713 590.364 341.897 588.824 338.955 585.743C336.012 582.662 334.54 578.541 334.54 573.381V572.293C334.54 568.861 335.196 565.796 336.508 563.1C337.819 560.401 339.652 558.291 342.009 556.767C344.364 555.243 346.917 554.48 349.668 554.48C354.167 554.48 357.664 555.961 360.159 558.925C362.653 561.889 363.901 566.132 363.901 571.655V574.117H340.457C340.543 577.529 341.539 580.285 343.448 582.385C345.355 584.485 347.781 585.535 350.724 585.535C352.813 585.535 354.583 585.109 356.032 584.256C357.483 583.403 358.751 582.273 359.839 580.865L363.453 583.68C360.553 588.136 356.203 590.364 350.404 590.364" fill="white"/>
<path d="M416.864 589.725H386.352V585.471L402.472 567.561C404.859 564.854 406.507 562.652 407.413 560.956C408.319 559.261 408.773 557.508 408.773 555.695C408.773 553.265 408.037 551.272 406.567 549.715C405.095 548.159 403.132 547.38 400.681 547.38C397.739 547.38 395.452 548.217 393.82 549.891C392.189 551.565 391.373 553.895 391.373 556.879H385.457C385.457 552.593 386.837 549.128 389.599 546.484C392.36 543.841 396.055 542.517 400.681 542.517C405.009 542.517 408.431 543.654 410.948 545.924C413.464 548.195 414.721 551.217 414.721 554.992C414.721 559.576 411.8 565.035 405.959 571.367L393.485 584.896H416.864V589.725" fill="white"/>
<path d="M446.416 561.772C446.416 556.761 445.712 553.111 444.305 550.817C442.899 548.525 440.671 547.38 437.621 547.38C434.593 547.38 432.387 548.52 431.001 550.801C429.615 553.084 428.9 556.591 428.857 561.324V570.791C428.857 575.824 429.588 579.538 431.048 581.937C432.509 584.336 434.721 585.535 437.685 585.535C440.605 585.535 442.775 584.405 444.193 582.145C445.611 579.885 446.352 576.324 446.416 571.462V561.772ZM452.333 569.864C452.333 576.793 451.149 581.943 448.783 585.311C446.416 588.68 442.717 590.364 437.685 590.364C432.716 590.364 429.039 588.717 426.651 585.423C424.263 582.128 423.025 577.209 422.941 570.664V562.764C422.941 555.919 424.125 550.835 426.491 547.508C428.857 544.181 432.568 542.517 437.621 542.517C442.631 542.517 446.32 544.123 448.687 547.332C451.053 550.541 452.269 555.493 452.333 562.188V569.864Z" fill="white"/>
<path d="M490.424 589.725H459.912V585.471L476.032 567.561C478.419 564.854 480.067 562.652 480.973 560.956C481.879 559.261 482.333 557.508 482.333 555.695C482.333 553.265 481.597 551.272 480.127 549.715C478.655 548.159 476.692 547.38 474.241 547.38C471.297 547.38 469.012 548.217 467.38 549.891C465.749 551.565 464.933 553.895 464.933 556.879H459.017C459.017 552.593 460.397 549.128 463.159 546.484C465.92 543.841 469.615 542.517 474.241 542.517C478.569 542.517 481.991 543.654 484.508 545.924C487.023 548.195 488.281 551.217 488.281 554.992C488.281 559.576 485.36 565.035 479.519 571.367L467.045 584.896H490.424V589.725" fill="white"/>
<path d="M527.204 589.725H496.692V585.471L512.812 567.561C515.199 564.854 516.847 562.652 517.753 560.956C518.659 559.261 519.113 557.508 519.113 555.695C519.113 553.265 518.377 551.272 516.907 549.715C515.435 548.159 513.472 547.38 511.02 547.38C508.077 547.38 505.792 548.217 504.16 549.891C502.529 551.565 501.713 553.895 501.713 556.879H495.797C495.797 552.593 497.177 549.128 499.939 546.484C502.7 543.841 506.395 542.517 511.02 542.517C515.349 542.517 518.771 543.654 521.288 545.924C523.803 548.195 525.061 551.217 525.061 554.992C525.061 559.576 522.14 565.035 516.297 571.367L503.825 584.896H527.204V589.725" fill="white"/>
</svg>
