<svg width="320" height="154" viewBox="0 0 320 154" fill="none" xmlns="http://www.w3.org/2000/svg">
<path d="M4.304 144.96H6.736V132.8H21.152V144.96H23.568V118.56H21.152V130.656H6.736V118.56H4.304V144.96ZM39.155 145.472C40.787 145.472 42.2697 145.12 43.603 144.416C44.947 143.712 46.0083 142.725 46.787 141.456L45.059 140.528C43.6937 142.533 41.7577 143.536 39.251 143.536C37.9497 143.536 36.7923 143.259 35.779 142.704C34.7657 142.139 33.971 141.365 33.395 140.384C32.8297 139.392 32.547 138.261 32.547 136.992H47.299C47.3203 136.875 47.331 136.773 47.331 136.688C47.3417 136.603 47.347 136.501 47.347 136.384C47.3043 134.752 46.9097 133.312 46.163 132.064C45.427 130.805 44.4243 129.824 43.155 129.12C41.8963 128.416 40.4563 128.064 38.835 128.064C37.651 128.064 36.5363 128.288 35.491 128.736C34.4563 129.184 33.5443 129.808 32.755 130.608C31.9657 131.408 31.347 132.341 30.899 133.408C30.451 134.464 30.227 135.605 30.227 136.832C30.227 138.464 30.611 139.936 31.379 141.248C32.1577 142.549 33.219 143.579 34.563 144.336C35.907 145.093 37.4377 145.472 39.155 145.472ZM32.675 135.232C32.8137 134.197 33.1657 133.291 33.731 132.512C34.307 131.723 35.0377 131.109 35.923 130.672C36.8083 130.224 37.7897 130 38.867 130C39.923 130 40.8883 130.224 41.763 130.672C42.6377 131.12 43.363 131.739 43.939 132.528C44.515 133.317 44.8723 134.219 45.011 135.232H32.675ZM52.9475 144.96H55.2835V134.288C55.2835 133.52 55.4702 132.811 55.8435 132.16C56.2275 131.499 56.7768 130.971 57.4915 130.576C58.2062 130.171 59.0648 129.968 60.0675 129.968C61.4968 129.968 62.6062 130.416 63.3955 131.312C64.1955 132.208 64.5955 133.499 64.5955 135.184V144.96H66.9315V134.736C66.9315 132.624 66.3822 130.987 65.2835 129.824C64.1955 128.651 62.7022 128.064 60.8035 128.064C59.4488 128.064 58.2968 128.331 57.3475 128.864C56.4088 129.397 55.7208 130.048 55.2835 130.816V128.576H52.9475V144.96ZM73.67 144.96H76.006V137.184L82.998 144.96H85.99L78.134 136.288L85.606 128.576H82.55L76.006 135.28V117.44H73.67V144.96ZM92.607 125.296C93.0337 125.296 93.3963 125.147 93.695 124.848C93.9937 124.549 94.143 124.187 94.143 123.76C94.143 123.333 93.9937 122.976 93.695 122.688C93.3963 122.389 93.0337 122.24 92.607 122.24C92.1803 122.24 91.8177 122.389 91.519 122.688C91.231 122.976 91.087 123.333 91.087 123.76C91.087 124.187 91.231 124.549 91.519 124.848C91.8177 125.147 92.1803 125.296 92.607 125.296ZM91.439 144.96H93.775V128.576H91.439V144.96ZM100.834 144.96H103.17V117.44H100.834V144.96ZM118.036 145.472C119.743 145.472 121.279 145.104 122.644 144.368C124.02 143.632 125.109 142.608 125.909 141.296C126.708 139.984 127.108 138.475 127.108 136.768C127.108 135.051 126.708 133.541 125.909 132.24C125.109 130.928 124.02 129.904 122.644 129.168C121.279 128.432 119.743 128.064 118.036 128.064C116.33 128.064 114.788 128.432 113.412 129.168C112.047 129.904 110.964 130.928 110.164 132.24C109.364 133.541 108.964 135.051 108.964 136.768C108.964 138.475 109.364 139.984 110.164 141.296C110.964 142.608 112.047 143.632 113.412 144.368C114.788 145.104 116.33 145.472 118.036 145.472ZM118.036 143.392C116.756 143.392 115.615 143.109 114.612 142.544C113.61 141.979 112.82 141.2 112.244 140.208C111.668 139.205 111.38 138.059 111.38 136.768C111.38 135.477 111.668 134.336 112.244 133.344C112.82 132.341 113.61 131.557 114.612 130.992C115.615 130.427 116.756 130.144 118.036 130.144C119.317 130.144 120.458 130.427 121.46 130.992C122.463 131.557 123.253 132.341 123.829 133.344C124.404 134.336 124.692 135.477 124.692 136.768C124.692 138.059 124.404 139.205 123.829 140.208C123.253 141.2 122.463 141.979 121.46 142.544C120.458 143.109 119.317 143.392 118.036 143.392ZM121.812 123.52C122.207 123.52 122.543 123.381 122.82 123.104C123.098 122.827 123.236 122.491 123.236 122.096C123.236 121.701 123.098 121.365 122.82 121.088C122.543 120.811 122.207 120.672 121.812 120.672C121.418 120.672 121.082 120.811 120.804 121.088C120.527 121.365 120.388 121.701 120.388 122.096C120.388 122.491 120.527 122.827 120.804 123.104C121.082 123.381 121.418 123.52 121.812 123.52ZM114.26 123.52C114.655 123.52 114.991 123.381 115.268 123.104C115.546 122.827 115.684 122.491 115.684 122.096C115.684 121.701 115.546 121.365 115.268 121.088C114.991 120.811 114.655 120.672 114.26 120.672C113.866 120.672 113.53 120.811 113.252 121.088C112.975 121.365 112.836 121.701 112.836 122.096C112.836 122.491 112.975 122.827 113.252 123.104C113.53 123.381 113.866 123.52 114.26 123.52ZM137.16 145.472C138.941 145.472 140.392 144.992 141.512 144.032C142.642 143.072 143.208 141.771 143.208 140.128C143.208 139.168 143.01 138.411 142.616 137.856C142.221 137.291 141.666 136.827 140.952 136.464C140.237 136.091 139.405 135.728 138.456 135.376C137.794 135.12 137.176 134.864 136.6 134.608C136.034 134.352 135.576 134.048 135.224 133.696C134.872 133.333 134.696 132.875 134.696 132.32C134.696 131.563 134.973 130.949 135.528 130.48C136.093 130.011 136.824 129.776 137.72 129.776C139.181 129.776 140.402 130.421 141.384 131.712L142.456 130.352C141.816 129.627 141.09 129.067 140.28 128.672C139.48 128.277 138.621 128.08 137.704 128.08C136.701 128.08 135.805 128.272 135.016 128.656C134.226 129.029 133.608 129.547 133.16 130.208C132.712 130.859 132.488 131.605 132.488 132.448C132.488 133.28 132.696 133.968 133.112 134.512C133.538 135.045 134.077 135.488 134.728 135.84C135.378 136.192 136.05 136.507 136.744 136.784C137.629 137.125 138.376 137.429 138.984 137.696C139.592 137.963 140.05 138.283 140.36 138.656C140.68 139.029 140.84 139.547 140.84 140.208C140.84 141.275 140.477 142.117 139.752 142.736C139.026 143.355 138.157 143.664 137.144 143.664C136.141 143.664 135.229 143.376 134.408 142.8C133.586 142.213 132.92 141.397 132.408 140.352L131.16 141.696C131.736 142.901 132.541 143.835 133.576 144.496C134.61 145.147 135.805 145.472 137.16 145.472ZM152.706 145.472C153.752 145.472 154.669 145.227 155.458 144.736L154.866 142.88C154.397 143.232 153.842 143.408 153.202 143.408C151.848 143.408 151.17 142.475 151.17 140.608V130.336H155.25V128.576H151.17V122.448H148.834V128.576H147.17V130.336H148.834V140.736C148.834 142.24 149.17 143.408 149.842 144.24C150.525 145.061 151.48 145.472 152.706 145.472ZM168.548 145.472C170.254 145.472 171.79 145.104 173.156 144.368C174.532 143.632 175.62 142.608 176.42 141.296C177.22 139.984 177.62 138.475 177.62 136.768C177.62 135.051 177.22 133.541 176.42 132.24C175.62 130.928 174.532 129.904 173.156 129.168C171.79 128.432 170.254 128.064 168.548 128.064C166.841 128.064 165.3 128.432 163.924 129.168C162.558 129.904 161.476 130.928 160.676 132.24C159.876 133.541 159.476 135.051 159.476 136.768C159.476 138.475 159.876 139.984 160.676 141.296C161.476 142.608 162.558 143.632 163.924 144.368C165.3 145.104 166.841 145.472 168.548 145.472ZM168.548 143.392C167.268 143.392 166.126 143.109 165.124 142.544C164.121 141.979 163.332 141.2 162.756 140.208C162.18 139.205 161.892 138.059 161.892 136.768C161.892 135.477 162.18 134.336 162.756 133.344C163.332 132.341 164.121 131.557 165.124 130.992C166.126 130.427 167.268 130.144 168.548 130.144C169.828 130.144 170.969 130.427 171.972 130.992C172.974 131.557 173.764 132.341 174.34 133.344C174.916 134.336 175.204 135.477 175.204 136.768C175.204 138.059 174.916 139.205 174.34 140.208C173.764 141.2 172.974 141.979 171.972 142.544C170.969 143.109 169.828 143.392 168.548 143.392ZM172.324 123.52C172.718 123.52 173.054 123.381 173.332 123.104C173.609 122.827 173.748 122.491 173.748 122.096C173.748 121.701 173.609 121.365 173.332 121.088C173.054 120.811 172.718 120.672 172.324 120.672C171.929 120.672 171.593 120.811 171.316 121.088C171.038 121.365 170.9 121.701 170.9 122.096C170.9 122.491 171.038 122.827 171.316 123.104C171.593 123.381 171.929 123.52 172.324 123.52ZM164.772 123.52C165.166 123.52 165.502 123.381 165.78 123.104C166.057 122.827 166.196 122.491 166.196 122.096C166.196 121.701 166.057 121.365 165.78 121.088C165.502 120.811 165.166 120.672 164.772 120.672C164.377 120.672 164.041 120.811 163.764 121.088C163.486 121.365 163.348 121.701 163.348 122.096C163.348 122.491 163.486 122.827 163.764 123.104C164.041 123.381 164.377 123.52 164.772 123.52ZM183.415 153.28H185.751V141.504C186.444 142.741 187.383 143.712 188.567 144.416C189.762 145.12 191.079 145.472 192.519 145.472C194.087 145.472 195.484 145.093 196.711 144.336C197.948 143.579 198.919 142.544 199.623 141.232C200.338 139.92 200.695 138.432 200.695 136.768C200.695 135.093 200.338 133.605 199.623 132.304C198.908 130.992 197.932 129.957 196.695 129.2C195.468 128.443 194.066 128.064 192.487 128.064C191.036 128.064 189.714 128.411 188.519 129.104C187.335 129.787 186.412 130.741 185.751 131.968V128.576H183.415V153.28ZM191.975 143.44C190.748 143.44 189.66 143.157 188.711 142.592C187.762 142.016 187.015 141.227 186.471 140.224C185.927 139.211 185.655 138.059 185.655 136.768C185.655 135.467 185.927 134.315 186.471 133.312C187.015 132.309 187.762 131.525 188.711 130.96C189.66 130.384 190.748 130.096 191.975 130.096C193.202 130.096 194.284 130.384 195.223 130.96C196.172 131.525 196.919 132.315 197.463 133.328C198.007 134.331 198.279 135.483 198.279 136.784C198.279 138.075 198.007 139.221 197.463 140.224C196.919 141.227 196.172 142.016 195.223 142.592C194.284 143.157 193.202 143.44 191.975 143.44ZM213.567 145.472C215.018 145.472 216.335 145.12 217.519 144.416C218.703 143.712 219.647 142.741 220.351 141.504V144.96H222.687V128.576H220.351V131.984C219.732 130.757 218.815 129.797 217.599 129.104C216.394 128.411 215.05 128.064 213.567 128.064C212.01 128.064 210.612 128.443 209.375 129.2C208.148 129.947 207.178 130.976 206.463 132.288C205.759 133.6 205.407 135.088 205.407 136.752C205.407 138.437 205.764 139.936 206.479 141.248C207.204 142.56 208.18 143.595 209.407 144.352C210.634 145.099 212.02 145.472 213.567 145.472ZM214.143 143.44C212.927 143.44 211.839 143.152 210.879 142.576C209.93 142 209.183 141.211 208.639 140.208C208.095 139.205 207.823 138.059 207.823 136.768C207.823 135.467 208.095 134.315 208.639 133.312C209.183 132.309 209.93 131.525 210.879 130.96C211.828 130.384 212.916 130.096 214.143 130.096C215.37 130.096 216.458 130.384 217.407 130.96C218.356 131.525 219.098 132.309 219.631 133.312C220.175 134.315 220.447 135.467 220.447 136.768C220.447 138.059 220.175 139.211 219.631 140.224C219.087 141.227 218.34 142.016 217.391 142.592C216.452 143.157 215.37 143.44 214.143 143.44ZM229.735 144.96H232.071V117.44H229.735V144.96ZM244.462 144.96H245.998L253.966 128.576H251.23L245.23 141.632L239.246 128.576H236.51L244.462 144.96ZM266.173 145.472C267.805 145.472 269.287 145.12 270.621 144.416C271.965 143.712 273.026 142.725 273.805 141.456L272.077 140.528C270.711 142.533 268.775 143.536 266.269 143.536C264.967 143.536 263.81 143.259 262.797 142.704C261.783 142.139 260.989 141.365 260.413 140.384C259.847 139.392 259.565 138.261 259.565 136.992H274.317C274.338 136.875 274.349 136.773 274.349 136.688C274.359 136.603 274.365 136.501 274.365 136.384C274.322 134.752 273.927 133.312 273.181 132.064C272.445 130.805 271.442 129.824 270.173 129.12C268.914 128.416 267.474 128.064 265.853 128.064C264.669 128.064 263.554 128.288 262.509 128.736C261.474 129.184 260.562 129.808 259.773 130.608C258.983 131.408 258.365 132.341 257.917 133.408C257.469 134.464 257.245 135.605 257.245 136.832C257.245 138.464 257.629 139.936 258.397 141.248C259.175 142.549 260.237 143.579 261.581 144.336C262.925 145.093 264.455 145.472 266.173 145.472ZM259.693 135.232C259.831 134.197 260.183 133.291 260.749 132.512C261.325 131.723 262.055 131.109 262.941 130.672C263.826 130.224 264.807 130 265.885 130C266.941 130 267.906 130.224 268.781 130.672C269.655 131.12 270.381 131.739 270.957 132.528C271.533 133.317 271.89 134.219 272.029 135.232H259.693ZM279.965 144.96H282.301V117.44H279.965V144.96ZM295.968 145.472C298.453 145.472 300.229 144.917 301.296 143.808C302.362 142.688 302.896 140.811 302.896 138.176V128.576H300.56V137.76C300.56 139.829 300.208 141.307 299.504 142.192C298.81 143.067 297.632 143.504 295.968 143.504C294.314 143.504 293.136 143.067 292.432 142.192C291.728 141.307 291.376 139.829 291.376 137.76V128.576H289.04V138.176C289.04 140.811 289.573 142.688 290.64 143.808C291.706 144.917 293.482 145.472 295.968 145.472ZM313.584 145.472C314.629 145.472 315.546 145.227 316.336 144.736L315.744 142.88C315.274 143.232 314.72 143.408 314.08 143.408C312.725 143.408 312.048 142.475 312.048 140.608V130.336H316.128V128.576H312.048V122.448H309.712V128.576H308.048V130.336H309.712V140.736C309.712 142.24 310.048 143.408 310.72 144.24C311.402 145.061 312.357 145.472 313.584 145.472Z" fill="#f5f300"/>
<path d="M2.9615 96.96C2.9615 98.0646 3.85693 98.96 4.9615 98.96H43.5655C50.1105 98.96 55.7828 97.8493 60.5825 95.628C65.4218 93.367 69.1505 90.154 71.7685 85.989C74.4262 81.7843 75.755 76.7665 75.755 70.9355C75.755 64.2318 73.97 58.8173 70.4 54.692C68.0711 52.0008 66.3437 49.9511 63.552 48.5429C61.8454 47.682 61.3908 44.8458 62.8908 43.6611C67.6756 39.8821 70.068 35.074 70.068 27.418C70.068 19.1673 66.3707 10.9992 60.976 6.9135C55.621 2.82783 49.243 0.784998 39.842 0.784998H4.9615C3.85693 0.784998 2.9615 1.68043 2.9615 2.785V96.96ZM28.9285 39.9245C27.8239 39.9245 26.9285 39.0291 26.9285 37.9245V24.4565C26.9285 23.3519 27.8239 22.4565 28.9285 22.4565H29.3085C43.5 22.4565 45.8745 24.8083 45.8745 31.512C45.8745 38.4537 38.3525 39.9245 29.3085 39.9245H28.9285ZM28.9285 78.229C27.8239 78.229 26.9285 77.3336 26.9285 76.229V61.6785C26.9285 60.5739 27.8239 59.6785 28.9285 59.6785H33.4735C38.7492 59.6785 42.7555 59.6702 45.4925 61.6535C48.2295 63.6368 49.598 66.4928 49.598 70.2215C49.598 77.5598 44.2232 78.229 33.4735 78.229H28.9285Z" fill="#f5f300"/>
<path d="M75.7647 96.1025C75.1349 97.4295 76.1027 98.96 77.5715 98.96H98.6751C98.9559 98.96 99.2336 98.9009 99.49 98.7865L106.182 95.801L138.814 83.4138C139.742 83.0618 140.787 83.4426 141.27 84.3087L148.877 97.9349C149.231 98.5678 149.899 98.96 150.624 98.96H171.934C173.414 98.96 174.381 97.4083 173.73 96.0794L127.549 1.90443C127.213 1.21926 126.516 0.784998 125.753 0.784998H122.265C121.492 0.784998 120.789 1.22973 120.458 1.92751L75.7647 96.1025ZM117.259 69.5076C115.571 70.2 113.913 68.4563 114.69 66.8057L122.605 49.9867C123.34 48.4257 125.573 48.4648 126.253 50.0504L131.2 61.5929C131.64 62.6193 131.154 63.8072 130.121 64.231L117.259 69.5076Z" fill="#f5f300"/>
<path d="M207.688 99.864C215.264 99.864 221.848 99.6542 227.441 97.2345C233.034 94.7752 237.358 91.2448 240.413 86.6435C243.507 82.0422 245.053 76.5087 245.053 70.043C245.053 64.45 242.864 59.8288 240.484 56.1795C238.143 52.4905 234.692 49.2775 230.131 46.5405C225.609 43.8035 220.095 41.0467 213.59 38.27C209.345 36.485 208.172 34.9975 206.07 33.8075C203.967 32.5778 202.916 30.7135 202.916 28.2145C202.916 25.9127 203.767 24.8865 205.47 23.4962C205.706 23.303 205.987 23.1688 206.287 23.1119C211.651 22.0939 216.736 23.9248 220.699 25.3516C220.899 25.4236 221.085 25.5275 221.254 25.6567C223.668 27.5048 225.468 28.3333 227.552 29.5975C228.413 30.1196 229.534 29.9837 230.202 29.2298L242.852 14.9368C243.636 14.0508 243.494 12.6696 242.576 11.9233C239.984 9.81628 236.346 6.68849 233.689 5.5815C230.357 4.19316 226.847 2.0825 223.158 1.2495C219.508 0.416501 213.958 0 210.507 0C203.883 0 198.072 1.428 193.074 4.284C188.115 7.10033 185.268 9.78933 182.531 14.351C179.794 18.873 178.425 23.6727 178.425 28.75C178.425 34.7397 180.25 40.7773 183.899 44.863C187.548 48.909 192.11 52.1815 197.584 54.6805C202.463 56.9018 206.469 58.8058 209.603 60.3925C212.776 61.9792 215.117 62.6055 216.624 64.2715C218.131 65.9375 219.885 68.02 219.885 70.519C219.885 73.5733 217.834 74.8542 215.732 76.3615C213.669 77.8688 211.872 77.6225 208.342 77.6225C200.664 77.6225 195.997 72.5533 190.515 68.1406C189.679 67.4677 188.464 67.617 187.786 68.4488L176.373 82.4501C175.688 83.2904 175.798 84.5254 176.622 85.2302C186.454 93.6447 194.502 99.864 207.688 99.864Z" fill="#f5f300"/>
<path d="M254 96.96C254 98.0646 254.895 98.96 256 98.96H317.12C318.225 98.96 319.12 98.0646 319.12 96.96V79.849C319.12 78.7444 318.225 77.849 317.12 77.849H279.622C278.517 77.849 277.622 76.9536 277.622 75.849V64.809C277.622 63.7044 278.517 62.809 279.622 62.809H299.692C300.797 62.809 301.692 61.9136 301.692 60.809V41.698C301.692 40.5934 300.797 39.698 299.692 39.698H280.622C279.517 39.698 278.622 38.8026 278.622 37.698V28.896C278.622 27.7914 279.517 26.896 280.622 26.896H317.12C318.225 26.896 319.12 26.0006 319.12 24.896V2.785C319.12 1.68043 318.225 0.784998 317.12 0.784998C315.113 0.784998 312.996 0.784998 312.033 0.784998C311.682 0.784998 311.34 0.877306 311.036 1.05265L255.001 33.3828C254.381 33.7399 254 34.4004 254 35.1151V96.96Z" fill="#f5f300"/>
</svg>
