<?xml version="1.0" encoding="utf-8"?>
<!-- Generator: Adobe Illustrator 22.0.1, SVG Export Plug-In . SVG Version: 6.00 Build 0)  -->
<svg version="1.0" id="Layer_1" xmlns="http://www.w3.org/2000/svg" xmlns:xlink="http://www.w3.org/1999/xlink" x="0px" y="0px"
	 viewBox="0 0 400 195" style="enable-background:new 0 0 400 195;" xml:space="preserve">
<style type="text/css">
	.st0{fill:#808184;}
	.st1{fill:#C71E44;}
</style>
<polygon class="st0" points="19,149.3597412 19,154.0520935 257.2847595,154.0520935 257.2847595,151.8487701 
	257.2847595,149.3597412 "/>
<g>
	<path class="st1" d="M85.5794983,69.9347763l-0.026268,0.6419601c0.6320877,0.2101517,1.315094,0.572998,1.9242096,0.8389664
		c0.7683792,0.3332977,1.546608,0.6600113,2.283783,1.0622635c1.3265915,0.7273331,2.5563202,1.5859985,3.7121658,2.5694656
		c0.5237427,0.4449234,1.1361465,1.1131439,1.5663071,1.6483841c0.4252243,0.520462,0.7798691,1.1213684,1.1574783,1.6763
		c0.5927048,0.8734589,0.6304703,1.3134689,1.154213,2.2903595h0.632103
		c0.083725-0.3070297,0.1691055-0.6124039,0.2479172-0.9210739c0.1395569-0.54673,0.2495575-1.1049423,0.3891144-1.654953
		c0.3644867-1.4283981,0.7831421-2.8551331,1.2871857-4.2408371c0.6600113-1.7994461,1.7058563-3.4248505,2.6400604-5.0847397
		c0.967041-1.7140656,2.1934738-3.2639465,3.4379807-4.7760658c1.2133102-1.4743614,2.644989-2.6893082,4.1094894-3.8911285
		c1.0212173-0.8373375,2.0424423-1.5580902,3.1785736-2.2230415c2.85186-1.6664505,5.8547516-2.891243,9.046463-3.6924667
		c3.2114105-0.804493,6.5016251-0.948967,9.7918472-0.948967c1.8076477,0,3.6152954,0.0098457,5.4180298,0.1674614
		c3.3739471,0.2906075,6.8431244,0.9949493,10.0364685,2.149147c1.2691498,0.4597206,2.485733,1.0639076,3.7138214,1.6221352
		c1.1886902,0.5385094,2.2361755,1.2871857,3.3000641,2.0391426c1.1230164,0.7946472,2.357666,1.5268974,3.354248,2.4873657
		c1.0787048,1.0392799,2.1212463,2.2722893,2.88797,3.5742607h0.5779419
		c-0.1100006-3.6317177,0.031189-6.7840347,0.031189-10.253212c2.9536285-0.0410461,10.4633636-0.0410461,11.2382965-0.0410461
		c0.0459747-1.6451073-0.0410309-18.3785896-0.0410309-20.0236969c7.8331451,0.0164108,15.8731689,0.0180626,23.9082642,0.0180626
		c0.0246277,3.309906-0.0394135,18.3309746-0.0115051,20.0187721h9.7557373c1.2018127,0,2.4036407,0.0459709,3.6054535,0
		c0,1.3495789,0.0114899,6.6658096,0.0246277,7.9612122c0.3283539,0.1018028,0.7798767,0.021347,1.1164551,0.0082054
		c0.7782135-1.2264328,1.8650818-2.5661659,3.014389-3.4478302c3.1407928-2.4069099,6.6510162-3.9814224,10.4452972-4.9106979
		c1.3052368-0.3217964,2.5530243-0.6682205,3.8878326-0.8816643c1.8224335-0.2938881,3.6760406-0.3891144,5.518158-0.5171661
		c3.1506805-0.2183685,6.257019-0.1937447,9.4044037,0.1116333c1.709137,0.1674728,3.4822845,0.3234482,5.1832428,0.5762901
		c1.6089783,0.2413406,3.2196198,0.5779152,4.7891998,1.0146408c1.3134613,0.3644867,2.5103607,0.7618141,3.7778473,1.2592773
		c1.4480896,0.5680733,2.9076843,1.4398918,4.1751709,2.3576698c2.3215332,1.6812325,4.5511475,4.2441177,5.9171448,6.7840195
		c0.6567078,1.2280884,1.2510681,2.5185699,1.5039062,3.9026184c0.2495422,1.3807831,0.1723938,2.7845459,0.1690979,4.1784592
		c-7.2946472,0-14.5892639-0.0426941-21.8806305-0.0426941c-0.6320801-2.1557236-1.9652405-4.2851639-3.9026184-5.4508591
		c-1.7551117-1.0573425-5.0272522-1.1246567-7.0450745-0.9818115c-1.8191376,0.1280518-2.8748169,0.5122452-4.1833496,1.7682419
		c-1.2921143,1.2428665-1.41362,3.063652-0.7946625,4.6890564c0.3464203,0.9161377,1.2970581,1.5827179,2.1409454,1.9751205
		c1.0228577,0.4744797,2.1639404,0.7010498,3.2458954,1.0047989c1.5433197,0.4334412,3.1112518,0.7519531,4.6791992,1.077034
		c1.732132,0.3595657,3.5102234,0.3218002,5.2407074,0.6813583c2.0325928,0.4219437,4.1029358,0.7536011,6.1092529,1.288826
		c1.7452393,0.4646454,3.2819977,1.0967407,4.9681549,1.7222824c0.8258667,0.3070145,1.6763,0.6994095,2.4824219,1.0573349
		c2.1130371,0.9391174,4.9927979,2.4430313,6.2717896,4.4592056c0.210144,0.0032806,0.3956909,0.004921,0.6074829-0.0049362
		c-0.1756592-8.0301743,2.4923096-15.4692841,7.5359802-21.6244888c2.2624512-2.7615509,4.8138428-5.1077194,7.8479309-6.9679031
		c3.2573853-1.9981041,6.6526794-3.4035149,10.3861694-4.1899414c1.9849854-0.4170189,4.0569763-0.4843369,6.076416-0.6156845
		c3.9338074-0.2577629,7.7313538-0.0853806,11.6159058,0.6189651c1.8109436,0.3283615,3.6661987,0.5976219,5.4229736,1.1640549
		c1.4251099,0.4564285,2.7122803,1.0080795,4.0569458,1.6516724c1.3939209,0.6698723,2.8649902,1.405407,4.1439819,2.2985573
		c1.2444763,0.8701668,2.3609314,1.9439316,3.4133301,3.0390282c1.0967407,1.1410713,1.9767761,2.4660263,2.8354492,3.7909775
		h0.7913513c0.0295715-1.2100296,0.0098572-2.4282684,0.0098572-3.6415749c0-2.397068-0.0082092-4.7957726-0.0098572-7.1928368
		c1.3348083,0.0459709,2.6811218,0.0164108,4.0158997,0.0164108c2.1622925,0,4.3623352,0.0377655,6.5245972,0.0131378
		c0.0049438-6.6444626,0.0886841-13.320118,0.0935974-19.9662361h24.3565063c0,6.6822166,0.0377502,13.36446,0,20.0433998
		l13.2823792,0.0361252c0.0476074,2.195118,0,12.1790619-0.0558167,15.1967316c-4.6201477,0-8.7558594,0.0328445-13.2002869,0
		c0.0311584,0.6632996-0.0640259,1.3676453-0.0640259,2.0325851c0,1.3512268-0.0065918,2.7040863-0.0098877,4.0569534
		c-0.0163879,4.1751556-0.0410461,8.3486786-0.0344543,12.5238571c0,1.1213608,0.0048828,2.2410889,0.0164185,3.36409
		c0.0082092,0.8127136,0.0065613,1.6352692,0.0656738,2.4463196c0.0903015,1.2592926,0.2216187,3.2984314,0.9407654,4.3590469
		c0.1608887,0.2380753,0.242981,0.595993,0.4597168,0.7765961c0.7650452,0.6271744,1.421814,1.3315125,2.4036255,1.6434631
		c0.9506226,0.3004532,2.4462891,0.1953735,3.4822998,0.2561264c2.0062866,0.1149292,4.0471191,0.0410461,6.0550537,0.0640335
		v18.3096313c-1.9406433-0.0492554-3.8763428,0.2232895-5.8120422,0.3218079
		c-5.473877,0.2840347-10.9657898,0.8619461-16.4412537,0.2577667c-5.7332458-0.6321106-11.2054749-2.8337936-13.8060913-8.4357071
		c-1.9374084-4.1751633-1.7124329-11.30233-1.7124329-15.9240646c0-6.0402832,0.0738525-12.1330948,0.0919495-18.1733704
		c0.0082092-2.64991,0.0328064-5.3408585,0-7.9891205l-8.3963013-0.0147858
		c0.7601624,1.942276,1.4037476,3.9305267,1.9718018,5.9417648c1.0064697,3.5594788,1.904541,7.3931503,1.9685669,11.1151657
		c0.0328369,1.9472046,0.0016479,3.7023163,0,5.6528091c-15.6466064-0.0903015-31.2948608,0.052536-46.9430847,0
		c-0.016449,5.7250443,2.7434692,10.7999268,8.3289795,12.5566788c2.4857178,0.7815018,5.4525146,0.786438,7.9776306,0.1822433
		c2.4463196-0.5861282,4.9796448-1.8667603,6.2406006-4.1882935l22.8262939-0.0558243
		c-0.0705872,3.832016-3.2853088,7.7756882-5.8449097,10.3681335c-1.072113,1.0852356-2.2197571,2.0916901-3.4494934,2.9864807
		c-2.3757019,1.730484-4.8728943,3.301712-7.5917969,4.4132233c-4.4000854,1.8010788-9.2746582,2.5908051-13.9998474,2.7057343
		c-4.5544128,0.1116409-9.0907593-0.0837402-13.5368347-1.1985397c-8.8675232-2.2230301-15.9700623-7.3849258-20.3701477-15.5858459
		c-0.3332825-0.0197067-0.5598755,0.0082016-0.89151,0.0656738c-3.9765015,14.5153732-20.4785004,17.1061783-33.1534119,16.6398926
		c-2.6285553-0.0968628-5.2571106,0.0328445-7.8676147-0.3907471c-2.5792999-0.4203033-5.1799622-1.0868835-7.5901642-2.122879
		c-0.5812073-0.2495651-1.1591339-0.5089645-1.7337646-0.7700195c-1.1443634-0.523735-2.2886963-1.0606155-3.3509674-1.7403336
		c-0.4892731-0.3152313-1.9587097-1.3660049-2.229599-1.5433197c-0.4400177-0.2823944-0.8636017-0.58284-1.2642212-0.9210587
		c-0.4531403-0.3792725-2.101532-1.8158646-2.2542267-2.2328873l-0.6189575-0.0180664
		c0,1.4234772,0.0689697,6.7626877,0.0410614,8.0104828c-3.1441193,0.2249298-6.280014,0.5943375-9.432312,0.7240372
		c-2.0227203,0.080452-4.0454407,0.1083603-6.0698242,0.1083603c-1.986618,0-3.9945526,0.0903015-5.9811707-0.031189
		c-1.6319885-0.1001587-3.1802216-0.5221024-4.744873-0.9719696c-1.4251099-0.4071732-2.7878265-1.0113602-4.0553131-1.787941
		c-1.2986908-0.7995682-2.3182678-1.7469101-3.2935028-2.9060364c-1.1459961-1.3594284-1.9028778-2.5710907-2.4923096-4.2884521
		c-1.1821136-3.4232025-1.2559814-10.6209641-1.2740479-14.3873215c-0.0262604-5.1487579,0.1083679-9.9921494,0.1083679-15.1409149
		c0-1.9012299-0.0098724-3.907547,0-5.8104172c0.0114746-1.8092957-0.0131531-3.6120224,0-5.4213104
		c-2.750061,0.1116409-5.828476-0.1116486-8.524353,0c0.4925537,1.2855453,0.7880707,2.4545364,1.2379303,3.6596222
		c0.467926,1.2527161,0.8652344,2.5284119,1.1821136,3.828743c0.551651,2.2525864,0.9933014,4.4969711,1.1542053,6.8168564
		c0.0985107,1.4136124,0.1707306,2.830513,0.2479248,4.2457657c0.0656586,1.1985321,0.1723785,3.1555939,0.0279083,4.3311386
		c-2.2247009,0.0377655-37.5108032-0.0279083-47.1926575-0.083725c0.0459747,1.1788177,0.101799,2.3625793,0.3300171,3.5200653
		c0.2544785,1.2757034,0.7601624,2.4840851,1.4316635,3.5759048c0.5188141,0.8471756,1.157486,1.6877899,1.8404846,2.4298935
		c1.2954025,1.4070435,3.9124832,2.8338013,5.7562332,3.2967911c1.4645081,0.3677673,2.3675232,0.4826965,3.8435211,0.4744873
		c0.6238861-0.0032806,1.5252686-0.0853729,2.1491394-0.185524c0.8422546-0.1313477,1.7945251-0.3414993,2.5809631-0.6518097
		c0.7174683-0.2840271,1.3512115-0.6501694,2.0391541-1.0064392c0.6616516-0.3431396,1.3282166-0.9456863,1.8437653-1.4874878
		c0.5056915-0.5286636,1.0671844-0.9703293,1.4645081-1.6319809c7.5409088-0.0229874,15.0785217,0.0082169,22.6210785,0.0032806
		c-0.5286713,1.4694443-1.0556946,2.937233-1.814209,4.3032303c-0.7125549,1.2773438-1.4284058,2.5809479-2.3116913,3.7466431
		c-0.9095764,1.205101-2.0572205,2.2345276-3.1342468,3.2803726c-1.2001801,1.1624069-2.41185,2.3396072-3.823822,3.2409592
		c-2.7779694,1.7780991-5.767746,3.2114182-8.9085388,4.1915817c-3.1818695,0.9900208-6.4441833,1.6073608-9.7655792,1.7994461
		c-7.445694,0.4318008-15.1277847-0.472847-21.8691254-3.8730698c-1.6845169-0.8471832-3.3263397-1.7961578-4.8121948-2.9684219
		c-1.4645004-1.152565-2.7648315-2.5119858-4.0750122-3.8385849c-2.4709473-2.5054245-4.9172592-6.8414841-6.1075974-10.1694641
		c-0.1296921-0.0164261-0.5483704-0.0295639-0.6370316,0c-0.0229797,0.0082016-0.4038773,1.4398727-0.5500107,1.8306274
		c-0.1461105,0.4006119-0.7240448,1.9078064-0.9112091,2.2427292c-0.0755234,0.1362762-0.6632996,1.5071945-0.9374847,1.9554214
		c-0.3234329,0.520462-1.9389954,2.7336426-2.3707962,3.280365c-0.423584,0.5352325-0.9112091,1.0556946-1.421814,1.5055542
		c-0.4268799,0.3726959-1.7813797,1.6073456-2.1508026,1.9192963c-0.5073242,0.4318008-3.3755951,2.282135-4.1259003,2.6827469
		c-0.6961365,0.3743286-1.4546585,0.5549316-2.1606445,0.9144974c-0.7470322,0.3841858-1.5367584,0.732254-2.3346786,0.9900131
		c-1.5285416,0.494194-3.1391678,0.8570404-4.7054749,1.1854019c-1.5433197,0.3234329-3.1178284,0.5155411-4.6874161,0.6452332
		c-1.3742065,0.1149368-15.7746544,0.0509033-17.2408142,0.0640335c-2.9979706,0.0312042-6.0254974-0.0279083-9.0218277,0
		c-3.0406685,0.0279236-6.032074,0.0180664-9.0743713,0c-2.6696091-0.0147705-10.2860394-0.0197067-11.4402485,0
		c-2.4036274,0.0410461-4.784277-0.0180664-7.1846237-0.0279083c-0.0098515-7.4177628-0.0262737-84.1583557,0-89.7422028
		c2.9536457,0,5.9105721-0.022974,8.8674984-0.022974h26.1542892c4.8105507,0,9.6260223-0.0328426,14.4382133,0
		c1.5055542,0.0114746,3.0422974-0.1247845,4.5429306,0c1.0639114,0.0886593,2.1278152,0.1658211,3.1835098,0.3414879
		c1.3331528,0.2216377,2.6630402,0.5680847,3.9666519,0.9243546c1.0343399,0.2823887,1.9866028,0.6977787,2.961853,1.1361446
		c1.0442047,0.4695549,2.1212387,0.9128571,3.1030502,1.5154114c0.6731415,0.4137383,1.2724152,0.9029846,1.8864594,1.4021034
		c0.6944885,0.5648003,1.4251022,1.0671997,2.0292969,1.7419853c0.6156845,0.696125,1.2280807,1.4070358,1.756752,2.1737862
		c0.5155258,0.7437248,1.0819626,1.4562874,1.4940567,2.2657013c0.9079361,1.7879562,1.4004898,3.3427734,1.8536224,5.2916183
		c0.4334412,1.8536148,0.4482193,3.3181229,0.467926,5.1963654c0.0114822,1.0212212,0.1050797,2.0851288,0,3.1014099
		c-0.0722427,0.705986-0.1231461,1.3479385-0.2709045,2.0489998c-0.1658249,0.7765846-0.339859,1.5712318-0.6353912,2.3084068
		c-0.34478,0.8521156-0.7256851,1.718998-1.1821136,2.5136337c-0.5023956,0.8718185-1.1492767,1.6681023-1.7600327,2.4594536
		c-0.5483704,0.7076263-1.1148071,1.3430176-1.7879486,1.9291534C88.6612015,67.994133,87.360878,69.2107391,85.5794983,69.9347763
		 M121.167717,80.0500717c3.3920059,0.004921,21.5522385,0,23.5946732,0
		C143.4144592,63.4807549,120.3697891,66.8333664,121.167717,80.0500717 M290.0558167,80.2175293
		c3.3952637,0.0082169,21.675354,0.0328445,23.7194214,0.0328445
		C312.7819519,63.584198,289.5714722,67.3160706,290.0558167,80.2175293 M45.919548,81.8363724
		c-0.0820961,1.5137711,0.0279083,3.0652924,0.0279083,4.5856171v8.0974884c0,1.1673431-0.014782,2.336319-0.0213432,3.5036621
		l-0.0016403,0.7601547v0.1674805v0.0673141c0.0722351,0.0328293,8.3092766,0.0279083,9.1285477,0.0279083
		c1.4513779,0,2.8978195-0.0279083,4.3459167-0.0279083h4.3721733c0.9046555,0,1.781395-0.0508957,2.6663284-0.2511978
		c2.3297577-0.5221024,4.5150223-1.8289948,5.7972946-3.9141235c0.4646378-0.7601624,0.9588242-2.6876678,1.0868835-3.6087265
		c0.1822433-1.2625732-0.206871-4.0979996-0.9062805-5.1651917c-0.4252396-0.6501541-0.9243546-1.262558-1.5154114-1.7633209
		c-0.494194-0.4202957-0.9259949-0.896431-1.5104752-1.1886749c-3.091568-1.5400391-6.1617737-1.2904816-9.5275192-1.2904816
		h-9.0185585C49.2048416,81.8363724,47.5580788,81.8708572,45.919548,81.8363724 M196.4914093,70.0743408v9.0530167v8.8281097
		c0,3.7909698-0.182251,7.6394119,0.922699,10.3155899c1.1065826,2.67453,3.5479889,4.2900848,8.5916748,3.4855957v-2.6269226
		l11.4780121,0.0016403l11.5387421,0.0180664c0.6124115,5.5493698,5.8465576,7.7362823,10.5684357,7.5409012
		c4.7186279-0.1937332,8.5276489-2.5546875,7.5556946-6.8185043c-1.1230164-4.9287643-14.0458069-4.5856247-23.9624634-7.9874802
		c-9.6966248-3.3246994-17.5248413-8.7476578-15.6203156-21.846138c-1.730484,0-3.4199371,0.0295486-5.1339874,0.0361252
		C200.7076111,70.0809021,196.6145477,70.1022491,196.4914093,70.0743408 M45.8965645,51.327961l0.0082016,13.5795479
		c0,0.4219437-0.0213432,0.1411972,0.0246277,0.3628464l17.6479874-0.052536c2.5891533,0,6.332531-2.6203575,6.6494026-6.0074501
		l0.0361099-2.4610977c-0.4679108-3.9962006-5.4787674-5.5592232-7.6443367-5.4213104H46.2282066H45.8965645z"/>
</g>
<g>
	<path class="st0" d="M281.5939026,152.8144073v10.9120483h-6.1166687v-10.9120483l-6.8721619-15.0656128h6.4187622
		l3.7384338,9.8171387h0.0753784l3.9268494-9.8171387h5.7769165L281.5939026,152.8144073z"/>
	<path class="st0" d="M303.759613,163.7264557V152.47435h-6.5694885v11.2521057h-6.1549683v-25.9776611h6.1549683v10.7233429
		h6.5694885v-10.7233429h6.1549683v25.9776611H303.759613z"/>
	<path class="st0" d="M324.2265625,141.8643646v21.8620911h-6.1543579v-21.8620911h-4.5309753v-4.1155701h15.1786499v4.1155701
		H324.2265625z"/>
	<path class="st0" d="M332.4595642,163.7264557v-25.9776611h6.1172791v25.9776611H332.4595642z"/>
	<path class="st0" d="M352.9252625,164.104187c-7.2495728,0-10.1571655-6.0036316-10.1571655-13.3665619
		c0-7.3252411,2.9075928-13.3665619,10.1571655-13.3665619c7.2496033,0,10.157196,6.0413208,10.157196,13.3665619
		C363.0824585,158.1005554,360.1748657,164.104187,352.9252625,164.104187z M349.2628174,135.6343384
		c-1.434967,0-2.6055603-0.9818726-2.6055603-2.2654877c0-1.2836304,1.1705933-2.3031769,2.6055603-2.3031769
		c1.3972778,0,2.6055298,1.0195465,2.6055298,2.3031769C351.8683472,134.6524658,350.6600952,135.6343384,349.2628174,135.6343384z
		 M352.9252625,141.4112701c-3.2850342,0-3.9268494,4.6820221-3.9268494,9.0999603
		c0,4.4553223,0.604126,9.0996552,3.9268494,9.0996552c3.3604126,0,3.9268799-4.6443329,3.9268799-9.0996552
		C356.8521423,146.0932922,356.1726379,141.4112701,352.9252625,141.4112701z M356.587738,135.6343384
		c-1.3966675,0-2.5672302-0.9818726-2.5672302-2.2654877c0-1.2836304,1.1705627-2.3031769,2.5672302-2.3031769
		c1.434967,0,2.6055603,1.0195465,2.6055603,2.3031769C359.1932983,134.6524658,358.0227051,135.6343384,356.587738,135.6343384z"/>
	<path class="st0" d="M375.5066833,141.8643646v21.8620911h-6.1543579v-21.8620911h-4.5309753v-4.1155701H380v4.1155701H375.5066833
		z"/>
</g>
</svg>
