<svg width="400" height="141" viewBox="0 0 400 141" fill="none" xmlns="http://www.w3.org/2000/svg">
<path d="M19 122.011V126.704H257.285V122.011H19Z" fill="white"/>
<path d="M85.5795 42.5865L85.5532 43.2285C86.1853 43.4386 86.8683 43.8015 87.4774 44.0674C88.2458 44.4007 89.024 44.7274 89.7612 45.1297C91.0878 45.857 92.3175 46.7157 93.4734 47.6992C93.9971 48.1441 94.6095 48.8123 95.0397 49.3475C95.4649 49.868 95.8196 50.4689 96.1972 51.0238C96.7899 51.8973 96.8276 52.3373 97.3514 53.3142H97.9835C98.0672 53.0072 98.1526 52.7018 98.2314 52.3931C98.371 51.8464 98.481 51.2882 98.6205 50.7382C98.985 49.3098 99.4037 47.883 99.9077 46.4973C100.568 44.6979 101.614 43.0725 102.548 41.4126C103.515 39.6985 104.741 38.1487 105.986 36.6365C107.199 35.1622 108.631 33.9472 110.095 32.7454C111.116 31.9081 112.138 31.1873 113.274 30.5224C116.126 28.8559 119.129 27.6311 122.32 26.8299C125.532 26.0254 128.822 25.8809 132.112 25.8809C133.92 25.8809 135.727 25.8908 137.53 26.0484C140.904 26.339 144.373 27.0433 147.567 28.1975C148.836 28.6573 150.052 29.2614 151.28 29.8197C152.469 30.3582 153.517 31.1069 154.581 31.8588C155.704 32.6535 156.938 33.3857 157.935 34.3462C159.013 35.3855 160.056 36.6185 160.823 37.9204H161.401C161.291 34.2887 161.432 31.1364 161.432 27.6672C164.385 27.6262 171.895 27.6262 172.67 27.6262C172.716 25.9811 172.629 9.2476 172.629 7.60249C180.462 7.6189 188.502 7.62055 196.537 7.62055C196.562 10.9305 196.498 25.9515 196.526 27.6393H206.282C207.483 27.6393 208.685 27.6853 209.887 27.6393C209.887 28.9889 209.899 34.3051 209.912 35.6005C210.24 35.7023 210.692 35.6219 211.028 35.6087C211.806 34.3823 212.893 33.0426 214.043 32.1609C217.183 29.754 220.694 28.1795 224.488 27.2502C225.793 26.9284 227.041 26.582 228.376 26.3685C230.198 26.0747 232.052 25.9794 233.894 25.8514C237.045 25.633 240.151 25.6576 243.298 25.963C245.007 26.1305 246.781 26.2865 248.481 26.5393C250.09 26.7806 251.701 27.1172 253.271 27.5539C254.584 27.9184 255.781 28.3158 257.049 28.8132C258.497 29.3813 259.956 30.2531 261.224 31.1709C263.545 32.8521 265.775 35.415 267.141 37.9549C267.798 39.183 268.392 40.4735 268.645 41.8575C268.894 43.2383 268.817 44.6421 268.814 46.036C261.519 46.036 254.225 45.9933 246.933 45.9933C246.301 43.8376 244.968 41.7081 243.031 40.5424C241.275 39.4851 238.003 39.4178 235.986 39.5606C234.166 39.6887 233.111 40.0729 231.802 41.3289C230.51 42.5717 230.389 44.3925 231.008 46.0179C231.354 46.9341 232.305 47.6006 233.148 47.993C234.171 48.4675 235.312 48.6941 236.394 48.9978C237.938 49.4313 239.506 49.7498 241.074 50.0749C242.806 50.4344 244.584 50.3967 246.314 50.7562C248.347 51.1782 250.417 51.5098 252.424 52.0451C254.169 52.5097 255.706 53.1418 257.392 53.7673C258.218 54.0744 259.068 54.4668 259.874 54.8247C261.987 55.7638 264.867 57.2677 266.146 59.2839C266.356 59.2872 266.542 59.2888 266.753 59.2789C266.578 51.2488 269.246 43.8097 274.289 37.6545C276.552 34.8929 279.103 32.5467 282.137 30.6866C285.395 28.6885 288.79 27.283 292.523 26.4966C294.508 26.0796 296.58 26.0123 298.6 25.8809C302.534 25.6232 306.331 25.7956 310.216 26.4999C312.027 26.8283 313.882 27.0975 315.639 27.664C317.064 28.1204 318.351 28.672 319.696 29.3156C321.09 29.9855 322.561 30.721 323.84 31.6142C325.084 32.4843 326.201 33.5581 327.253 34.6532C328.35 35.7943 329.23 37.1192 330.088 38.4442H330.88C330.909 37.2342 330.89 36.0159 330.89 34.8026C330.89 32.4055 330.881 30.0068 330.88 27.6098C332.215 27.6557 333.561 27.6262 334.896 27.6262C337.058 27.6262 339.258 27.664 341.42 27.6393C341.425 20.9949 341.509 14.3192 341.514 7.67309H365.87C365.87 14.3553 365.908 21.0375 365.87 27.7165L379.153 27.7526C379.2 29.9477 379.153 39.9317 379.097 42.9493C374.477 42.9493 370.341 42.9822 365.897 42.9493C365.928 43.6126 365.833 44.317 365.833 44.9819C365.833 46.3332 365.826 47.686 365.823 49.0389C365.806 53.214 365.782 57.3876 365.788 61.5627C365.788 62.6841 365.793 63.8038 365.805 64.9268C365.813 65.7395 365.811 66.5621 365.87 67.3732C365.961 68.6324 366.092 70.6716 366.811 71.7322C366.972 71.9703 367.054 72.3282 367.271 72.5088C368.036 73.136 368.693 73.8403 369.674 74.1523C370.625 74.4527 372.121 74.3476 373.157 74.4084C375.163 74.5233 377.204 74.4494 379.212 74.4724V92.7821C377.271 92.7328 375.336 93.0053 373.4 93.1039C367.926 93.3879 362.434 93.9658 356.959 93.3616C351.225 92.7295 345.753 90.5278 343.152 84.9259C341.215 80.7508 341.44 73.6236 341.44 69.0019C341.44 62.9616 341.514 56.8688 341.532 50.8285C341.54 48.1786 341.565 45.4876 341.532 42.8394L333.136 42.8246C333.896 44.7668 334.539 46.7551 335.107 48.7663C336.114 52.3258 337.012 56.1595 337.076 59.8815C337.109 61.8287 337.078 63.5838 337.076 65.5343C321.429 65.444 305.781 65.5868 290.133 65.5343C290.117 71.2594 292.876 76.3342 298.462 78.091C300.948 78.8725 303.914 78.8774 306.44 78.2732C308.886 77.6871 311.419 76.4065 312.68 74.0849L335.506 74.0291C335.436 77.8611 332.221 81.8048 329.662 84.3973C328.589 85.4825 327.442 86.4889 326.212 87.3837C323.836 89.1142 321.339 90.6854 318.62 91.797C314.22 93.598 309.346 94.3878 304.62 94.5027C300.066 94.6143 295.53 94.419 291.084 93.3042C282.216 91.0811 275.114 85.9192 270.713 77.7183C270.38 77.6986 270.154 77.7265 269.822 77.784C265.845 92.2994 249.343 94.8902 236.669 94.4239C234.04 94.327 231.411 94.4567 228.801 94.0331C226.222 93.6128 223.621 92.9462 221.211 91.9102C220.63 91.6607 220.052 91.4013 219.477 91.1402C218.333 90.6165 217.188 90.0796 216.126 89.3999C215.637 89.0847 214.167 88.0339 213.896 87.8566C213.456 87.5742 213.033 87.2737 212.632 86.9355C212.179 86.5562 210.531 85.1197 210.378 84.7026L209.759 84.6846C209.759 86.108 209.828 91.4473 209.8 92.695C206.656 92.92 203.52 93.2894 200.368 93.4191C198.345 93.4995 196.322 93.5274 194.298 93.5274C192.311 93.5274 190.303 93.6177 188.317 93.4963C186.685 93.3961 185.137 92.9742 183.572 92.5243C182.147 92.1171 180.784 91.5129 179.517 90.7363C178.218 89.9368 177.198 88.9894 176.223 87.8303C175.077 86.4709 174.32 85.2592 173.731 83.5419C172.549 80.1187 172.475 72.9209 172.457 69.1545C172.43 64.0058 172.565 59.1624 172.565 54.0136C172.565 52.1124 172.555 50.1061 172.565 48.2032C172.577 46.3939 172.552 44.5912 172.565 42.7819C169.815 42.8935 166.737 42.6702 164.041 42.7819C164.533 44.0674 164.829 45.2364 165.279 46.4415C165.747 47.6942 166.144 48.9699 166.461 50.2703C167.012 52.5228 167.454 54.7672 167.615 57.0871C167.713 58.5007 167.786 59.9176 167.863 61.3329C167.929 62.5314 168.035 64.4885 167.891 65.664C165.666 65.7018 130.38 65.6361 120.698 65.5803C120.744 66.7591 120.8 67.9429 121.028 69.1004C121.283 70.3761 121.788 71.5844 122.46 72.6763C122.979 73.5234 123.617 74.3641 124.3 75.1062C125.596 76.5132 128.213 77.94 130.057 78.4029C131.521 78.7707 132.424 78.8856 133.9 78.8774C134.524 78.8742 135.425 78.7921 136.049 78.6919C136.891 78.5606 137.844 78.3504 138.63 78.0401C139.348 77.7561 139.981 77.3899 140.669 77.0337C141.331 76.6905 141.998 76.088 142.513 75.5462C143.019 75.0175 143.58 74.5758 143.978 73.9142C151.519 73.8912 159.056 73.9224 166.599 73.9175C166.07 75.3869 165.543 76.8547 164.784 78.2207C164.072 79.498 163.356 80.8017 162.473 81.9673C161.563 83.1724 160.416 84.2019 159.339 85.2477C158.138 86.4101 156.927 87.5873 155.515 88.4887C152.737 90.2668 149.747 91.7001 146.606 92.6803C143.424 93.6703 140.162 94.2876 136.841 94.4797C129.395 94.9115 121.713 94.0069 114.971 90.6066C113.287 89.7595 111.645 88.8105 110.159 87.6382C108.695 86.4856 107.394 85.1262 106.084 83.7996C103.613 81.2942 101.167 76.9581 99.9767 73.6302C99.847 73.6137 99.4283 73.6006 99.3396 73.6302C99.3167 73.6384 98.9358 75.07 98.7896 75.4608C98.6435 75.8614 98.0656 77.3686 97.8784 77.7035C97.8029 77.8398 97.2151 79.2107 96.9409 79.6589C96.6175 80.1794 95.0019 82.3926 94.5701 82.9393C94.1465 83.4745 93.6589 83.995 93.1483 84.4449C92.7214 84.8176 91.3669 86.0522 90.9975 86.3642C90.4902 86.796 87.6219 88.6463 86.8716 89.0469C86.1755 89.4212 85.417 89.6018 84.711 89.9614C83.9639 90.3456 83.1742 90.6937 82.3763 90.9514C80.8477 91.4456 79.2371 91.8085 77.6708 92.1368C76.1275 92.4603 74.553 92.6524 72.9834 92.7821C71.6092 92.897 57.2087 92.833 55.7426 92.8461C52.7446 92.8773 49.7171 92.8182 46.7208 92.8461C43.6801 92.874 40.6887 92.8642 37.6464 92.8461C34.9768 92.8313 27.3603 92.8264 26.2061 92.8461C23.8025 92.8871 21.4219 92.828 19.0215 92.8182C19.0117 85.4004 18.9952 8.65982 19.0215 3.07597C21.9752 3.07597 24.9321 3.053 27.889 3.053H54.0433C58.8539 3.053 63.6693 3.02015 68.4815 3.053C69.9871 3.06447 71.5238 2.92821 73.0244 3.053C74.0884 3.14166 75.1523 3.21882 76.208 3.39448C77.5411 3.61612 78.871 3.96257 80.1746 4.31884C81.2089 4.60123 82.1612 5.01662 83.1365 5.45498C84.1807 5.92454 85.2577 6.36784 86.2395 6.97039C86.9127 7.38413 87.5119 7.87338 88.126 8.3725C88.8205 8.9373 89.5511 9.4397 90.1553 10.1145C90.771 10.8106 91.3833 11.5215 91.912 12.2883C92.4275 13.032 92.994 13.7446 93.4061 14.554C94.314 16.3419 94.8066 17.8967 95.2597 19.8456C95.6931 21.6992 95.7079 23.1637 95.7276 25.042C95.7391 26.0632 95.8327 27.1271 95.7276 28.1434C95.6554 28.8493 95.6045 29.4913 95.4567 30.1924C95.2909 30.9689 95.1169 31.7636 94.8213 32.5008C94.4765 33.3529 94.0956 34.2198 93.6392 35.0144C93.1368 35.8862 92.4899 36.6825 91.8792 37.4739C91.3308 38.1815 90.7644 38.8169 90.0912 39.403C88.6612 40.6459 87.3609 41.8625 85.5795 42.5865ZM121.168 52.7018C124.56 52.7067 142.72 52.7018 144.762 52.7018C143.414 36.1325 120.37 39.4851 121.168 52.7018ZM290.056 52.8693C293.451 52.8775 311.731 52.9021 313.775 52.9021C312.782 36.2359 289.571 39.9678 290.056 52.8693ZM45.9195 54.4881C45.8375 56.0019 45.9475 57.5534 45.9475 59.0737V67.1712C45.9475 68.3386 45.9327 69.5075 45.9261 70.6749L45.9245 71.435V71.6698C45.9967 71.7027 54.2337 71.6977 55.053 71.6977C56.5044 71.6977 57.9508 71.6698 59.3989 71.6698H63.7711C64.6758 71.6698 65.5525 71.6189 66.4374 71.4186C68.7672 70.8965 70.9525 69.5896 72.2347 67.5045C72.6994 66.7443 73.1936 64.8168 73.3216 63.8958C73.5039 62.6332 73.1147 59.7978 72.4153 58.7306C71.9901 58.0804 71.491 57.468 70.8999 56.9673C70.4057 56.547 69.9739 56.0708 69.3895 55.7786C66.2979 54.2385 63.2277 54.4881 59.8619 54.4881H50.8434C49.2048 54.4881 47.5581 54.5226 45.9195 54.4881ZM196.491 42.7261V60.6072C196.491 64.3982 196.309 68.2466 197.414 70.9228C198.521 73.5973 200.962 75.2129 206.006 74.4084V71.7815L217.484 71.7831L229.023 71.8012C229.635 77.3505 234.869 79.5375 239.591 79.3421C244.31 79.1483 248.119 76.7874 247.147 72.5236C246.024 67.5948 233.101 67.9379 223.184 64.5361C213.488 61.2114 205.659 55.7884 207.564 42.6899C205.833 42.6899 204.144 42.7195 202.43 42.7261C200.708 42.7326 196.615 42.754 196.491 42.7261ZM45.8966 23.9797L45.9048 37.5592C45.9048 37.9812 45.8834 37.7004 45.9294 37.9221L63.5774 37.8695C66.1665 37.8695 69.9099 35.2492 70.2268 31.8621L70.2629 29.401C69.795 25.4048 64.7841 23.8418 62.6186 23.9797H45.8966Z" fill="white"/>
<path d="M281.594 125.466V136.378H275.477V125.466L268.605 110.401H275.024L278.762 120.218H278.838L282.764 110.401H288.541L281.594 125.466Z" fill="white"/>
<path d="M303.76 136.378V125.126H297.19V136.378H291.035V110.401H297.19V121.124H303.76V110.401H309.915V136.378H303.76Z" fill="white"/>
<path d="M324.227 114.516V136.378H318.072V114.516H313.541V110.401H328.72V114.516H324.227Z" fill="white"/>
<path d="M332.46 136.378V110.401H338.577V136.378H332.46Z" fill="white"/>
<path d="M352.925 136.756C345.676 136.756 342.768 130.752 342.768 123.389C342.768 116.064 345.676 110.023 352.925 110.023C360.175 110.023 363.082 116.064 363.082 123.389C363.082 130.752 360.175 136.756 352.925 136.756ZM349.263 108.286C347.828 108.286 346.657 107.304 346.657 106.021C346.657 104.737 347.828 103.717 349.263 103.717C350.66 103.717 351.868 104.737 351.868 106.021C351.868 107.304 350.66 108.286 349.263 108.286ZM352.925 114.063C349.64 114.063 348.998 118.745 348.998 123.163C348.998 127.618 349.603 132.263 352.925 132.263C356.286 132.263 356.852 127.618 356.852 123.163C356.852 118.745 356.173 114.063 352.925 114.063ZM356.588 108.286C355.191 108.286 354.021 107.304 354.021 106.021C354.021 104.737 355.191 103.717 356.588 103.717C358.023 103.717 359.193 104.737 359.193 106.021C359.193 107.304 358.023 108.286 356.588 108.286Z" fill="white"/>
<path d="M375.507 114.516V136.378H369.352V114.516H364.821V110.401H380V114.516H375.507Z" fill="white"/>
</svg>
