<svg width="605" height="117" viewBox="0 0 605 117" fill="none" xmlns="http://www.w3.org/2000/svg">
<path d="M158.73 44H138.332C137.464 44 137.03 43.566 137.03 42.698V5.436C137.03 4.568 137.464 4.134 138.332 4.134H143.602C144.47 4.134 144.904 4.568 144.904 5.436V36.436C144.904 36.8907 145.152 37.118 145.648 37.118H158.73C159.557 37.118 159.97 37.5727 159.97 38.482V42.698C159.97 43.566 159.557 44 158.73 44Z" fill="black"/>
<path d="M172.26 44H170.772C167.506 44 164.985 43.132 163.208 41.396C161.43 39.66 160.542 37.1593 160.542 33.894V22.486C160.542 19.2207 161.43 16.72 163.208 14.984C164.985 13.248 167.506 12.38 170.772 12.38H185.094C186.003 12.38 186.458 12.814 186.458 13.682V42.698C186.458 43.566 186.003 44 185.094 44H179.886C179.018 44 178.584 43.566 178.584 42.698V40.652H178.336C177.881 41.768 177.075 42.6153 175.918 43.194C174.76 43.7313 173.541 44 172.26 44ZM178.584 32.468V19.882C178.584 19.4273 178.336 19.2 177.84 19.2H172.012C170.689 19.2 169.759 19.4893 169.222 20.068C168.684 20.6053 168.416 21.5353 168.416 22.858V33.522C168.416 34.8447 168.684 35.7953 169.222 36.374C169.759 36.9113 170.689 37.18 172.012 37.18H174.306C177.158 37.18 178.584 35.6093 178.584 32.468Z" fill="black"/>
<path d="M196.723 44H191.453C190.585 44 190.151 43.566 190.151 42.698V1.716C190.151 0.848001 190.585 0.414001 191.453 0.414001H196.723C197.591 0.414001 198.025 0.848001 198.025 1.716V15.728H198.273C199.183 13.496 201.208 12.38 204.349 12.38H206.333C212.823 12.38 216.067 15.7487 216.067 22.486V42.698C216.067 43.566 215.613 44 214.703 44H209.495C208.627 44 208.193 43.566 208.193 42.698V22.858C208.193 21.5353 207.904 20.6053 207.325 20.068C206.788 19.4893 205.858 19.2 204.535 19.2H202.303C199.451 19.2 198.025 20.7707 198.025 23.912V42.698C198.025 43.566 197.591 44 196.723 44Z" fill="black"/>
<path d="M231.099 44H228.557C225.374 44 222.956 43.132 221.303 41.396C219.691 39.66 218.885 37.1593 218.885 33.894V22.486C218.885 19.2207 219.691 16.72 221.303 14.984C222.956 13.248 225.374 12.38 228.557 12.38H231.099C232.38 12.38 233.599 12.6693 234.757 13.248C235.914 13.7853 236.72 14.612 237.175 15.728H237.423V1.716C237.423 0.848001 237.857 0.414001 238.725 0.414001H243.995C244.863 0.414001 245.297 0.848001 245.297 1.716V42.698C245.297 43.566 244.863 44 243.995 44H238.725C237.857 44 237.423 43.566 237.423 42.698V40.652H237.175C236.72 41.768 235.914 42.6153 234.757 43.194C233.599 43.7313 232.38 44 231.099 44ZM237.423 32.468V23.912C237.423 20.7707 235.997 19.2 233.145 19.2H230.355C229.032 19.2 228.102 19.4893 227.565 20.068C227.027 20.6053 226.759 21.5353 226.759 22.858V33.522C226.759 34.8447 227.027 35.7953 227.565 36.374C228.102 36.9113 229.032 37.18 230.355 37.18H233.145C235.997 37.18 237.423 35.6093 237.423 32.468Z" fill="black"/>
<path d="M272.351 44H258.649C255.384 44 252.863 43.132 251.085 41.396C249.308 39.66 248.419 37.1593 248.419 33.894V22.486C248.419 19.2207 249.308 16.72 251.085 14.984C252.863 13.248 255.384 12.38 258.649 12.38H263.547C266.813 12.38 269.334 13.248 271.111 14.984C272.889 16.72 273.777 19.2207 273.777 22.486V30.36C273.777 31.228 273.343 31.662 272.475 31.662H256.913C256.417 31.662 256.169 31.8893 256.169 32.344V33.708C256.169 34.9893 256.438 35.9193 256.975 36.498C257.554 37.0353 258.505 37.304 259.827 37.304H272.351C273.219 37.304 273.653 37.7587 273.653 38.668V42.76C273.653 43.2147 273.55 43.5453 273.343 43.752C273.178 43.9173 272.847 44 272.351 44ZM256.913 26.392H265.345C265.8 26.392 266.027 26.1647 266.027 25.71V22.734C266.027 21.4113 265.759 20.4813 265.221 19.944C264.684 19.4067 263.754 19.138 262.431 19.138H259.827C258.505 19.138 257.575 19.4067 257.037 19.944C256.5 20.4813 256.231 21.4113 256.231 22.734V25.71C256.231 26.1647 256.459 26.392 256.913 26.392Z" fill="black"/>
<path d="M283.148 44H277.878C277.01 44 276.576 43.566 276.576 42.698V13.682C276.576 12.814 277.01 12.38 277.878 12.38H283.148C284.016 12.38 284.45 12.814 284.45 13.682V15.728H284.698C285.607 13.496 287.633 12.38 290.774 12.38H292.758C299.247 12.38 302.492 15.7487 302.492 22.486V42.698C302.492 43.566 302.037 44 301.128 44H295.92C295.052 44 294.618 43.566 294.618 42.698V22.858C294.618 21.5353 294.329 20.6053 293.75 20.068C293.213 19.4893 292.283 19.2 290.96 19.2H288.728C285.876 19.2 284.45 20.7707 284.45 23.912V42.698C284.45 43.566 284.016 44 283.148 44Z" fill="black"/>
<path d="M147.542 116H139.089C137.696 116 137 115.303 137 113.91V54.0902C137 52.6967 137.696 52 139.089 52H147.542C148.935 52 149.631 52.6967 149.631 54.0902V82.4572H149.83C150.36 80.8647 151.388 78.8077 152.913 76.2862L168.03 54.0902C168.892 52.6967 170.185 52 171.909 52H181.656C182.385 52 182.816 52.2322 182.949 52.6967C183.148 53.0949 182.982 53.6257 182.451 54.2893L163.555 80.4666L184.639 113.512C185.104 114.308 185.17 114.938 184.838 115.403C184.573 115.801 183.976 116 183.048 116H175.788C173.467 116 171.909 115.303 171.113 113.91L155.897 89.5241L149.631 96.8896V113.91C149.631 115.303 148.935 116 147.542 116Z" fill="black"/>
<path d="M221.102 116H188.58C187.187 116 186.491 115.303 186.491 113.91V54.0902C186.491 52.6967 187.187 52 188.58 52H221.102C222.428 52 223.091 52.6967 223.091 54.0902V60.8585C223.091 62.2519 222.428 62.9487 221.102 62.9487H200.315C199.52 62.9487 199.122 63.3136 199.122 64.0435V76.9829C199.122 77.7128 199.52 78.0778 200.315 78.0778H217.322C218.715 78.0778 219.411 78.7745 219.411 80.168V86.9362C219.411 88.3297 218.715 89.0264 217.322 89.0264H200.315C199.52 89.0264 199.122 89.3914 199.122 90.1213V103.956C199.122 104.686 199.52 105.051 200.315 105.051H221.102C222.428 105.051 223.091 105.748 223.091 107.142V113.91C223.091 115.303 222.428 116 221.102 116Z" fill="black"/>
<path d="M225.529 99.6765V97.6858C225.529 96.2924 226.225 95.5956 227.618 95.5956H236.071C237.464 95.5956 238.16 96.2924 238.16 97.6858V98.4821C238.16 101.004 238.657 102.729 239.652 103.658C240.646 104.587 242.47 105.051 245.122 105.051H249.796C252.382 105.051 254.173 104.554 255.167 103.558C256.228 102.563 256.758 100.705 256.758 97.9844V96.79C256.758 94.8657 255.963 93.4059 254.371 92.4106C252.846 91.3489 250.924 90.7185 248.603 90.5194C246.282 90.3204 243.763 89.9554 241.044 89.4246C238.392 88.8274 235.906 88.0975 233.585 87.2348C231.264 86.3059 229.308 84.5474 227.717 81.9596C226.192 79.3053 225.43 75.9212 225.43 71.8072V68.3235C225.43 63.1477 226.888 59.1332 229.806 56.2799C232.723 53.4266 236.768 52 241.939 52H251.885C257.123 52 261.201 53.4266 264.118 56.2799C267.035 59.1332 268.494 63.1477 268.494 68.3235V70.2146C268.494 71.6081 267.798 72.3048 266.406 72.3048H257.952C256.559 72.3048 255.863 71.6081 255.863 70.2146V69.6174C255.863 67.0295 255.366 65.2711 254.371 64.3421C253.377 63.4132 251.553 62.9487 248.901 62.9487H245.023C242.304 62.9487 240.448 63.4795 239.453 64.5412C238.525 65.5365 238.061 67.5272 238.061 70.5132V72.4044C238.061 75.5231 240.779 77.3147 246.216 77.7792C251.852 78.2437 256.858 79.3717 261.234 81.1633C263.555 82.1586 265.477 83.9502 267.002 86.5381C268.594 89.0596 269.389 92.311 269.389 96.2924V99.6765C269.389 104.852 267.931 108.867 265.013 111.72C262.096 114.573 258.051 116 252.88 116H242.039C236.867 116 232.823 114.573 229.905 111.72C226.988 108.867 225.529 104.852 225.529 99.6765Z" fill="black"/>
<path d="M294.558 116H286.204C284.745 116 284.016 115.303 284.016 113.91V64.0435C284.016 63.3136 283.651 62.9487 282.922 62.9487H271.584C270.191 62.9487 269.495 62.2519 269.495 60.8585V54.0902C269.495 52.6967 270.191 52 271.584 52H309.178C310.57 52 311.267 52.6967 311.267 54.0902V60.8585C311.267 62.2519 310.57 62.9487 309.178 62.9487H297.84C297.044 62.9487 296.646 63.3136 296.646 64.0435V113.91C296.646 115.303 295.95 116 294.558 116Z" fill="black"/>
<path d="M331.293 105.051H338.354C340.476 105.051 341.968 104.62 342.83 103.757C343.758 102.828 344.222 101.302 344.222 99.1789V68.8211C344.222 66.6978 343.758 65.2048 342.83 64.3421C341.968 63.4132 340.476 62.9487 338.354 62.9487H331.293C329.171 62.9487 327.679 63.4132 326.817 64.3421C325.955 65.2048 325.524 66.6978 325.524 68.8211V99.1789C325.524 101.302 325.955 102.828 326.817 103.757C327.679 104.62 329.171 105.051 331.293 105.051ZM340.443 116H329.304C324.066 116 320.021 114.607 317.17 111.82C314.319 109.033 312.894 105.018 312.894 99.7761V68.224C312.894 62.9819 314.319 58.9673 317.17 56.1804C320.021 53.3935 324.066 52 329.304 52H340.443C345.681 52 349.725 53.3935 352.577 56.1804C355.428 58.9673 356.853 62.9819 356.853 68.224V99.7761C356.853 105.018 355.428 109.033 352.577 111.82C349.725 114.607 345.681 116 340.443 116Z" fill="black"/>
<path d="M374.532 105.449H385.671C387.859 105.449 389.418 105.018 390.346 104.156C391.34 103.227 391.838 101.734 391.838 99.6765V93.9036C391.838 91.8466 391.34 90.3867 390.346 89.5241C389.351 88.6615 387.727 88.2302 385.472 88.2302H374.532C373.803 88.2302 373.438 88.5951 373.438 89.325V104.355C373.438 105.084 373.803 105.449 374.532 105.449ZM374.532 77.9782H384.677C386.799 77.9782 388.357 77.5469 389.351 76.6843C390.346 75.7553 390.843 74.2623 390.843 72.2053V68.3235C390.843 66.2665 390.346 64.8066 389.351 63.944C388.423 63.015 386.898 62.5505 384.776 62.5505H374.532C373.803 62.5505 373.438 62.9155 373.438 63.6454V76.8834C373.438 77.6133 373.803 77.9782 374.532 77.9782ZM360.807 113.91V54.0902C360.807 52.6967 361.504 52 362.896 52H386.765C392.003 52 396.048 53.3935 398.899 56.1804C401.75 58.9673 403.176 62.9487 403.176 68.1244V72.2053C403.176 77.8455 400.557 81.4951 395.319 83.154C397.971 83.5521 400.092 84.647 401.684 86.4386C403.275 88.1638 404.071 90.6521 404.071 93.9036V99.8756C404.071 105.051 402.645 109.033 399.794 111.82C396.943 114.607 392.932 116 387.76 116H362.896C361.504 116 360.807 115.303 360.807 113.91Z" fill="black"/>
<path d="M442.629 116H410.106C408.714 116 408.018 115.303 408.018 113.91V54.0902C408.018 52.6967 408.714 52 410.106 52H442.629C443.955 52 444.618 52.6967 444.618 54.0902V60.8585C444.618 62.2519 443.955 62.9487 442.629 62.9487H421.842C421.047 62.9487 420.649 63.3136 420.649 64.0435V76.9829C420.649 77.7128 421.047 78.0778 421.842 78.0778H438.849C440.242 78.0778 440.938 78.7745 440.938 80.168V86.9362C440.938 88.3297 440.242 89.0264 438.849 89.0264H421.842C421.047 89.0264 420.649 89.3914 420.649 90.1213V103.956C420.649 104.686 421.047 105.051 421.842 105.051H442.629C443.955 105.051 444.618 105.748 444.618 107.142V113.91C444.618 115.303 443.955 116 442.629 116Z" fill="black"/>
<path d="M472.417 116H464.063C462.604 116 461.875 115.303 461.875 113.91V64.0435C461.875 63.3136 461.51 62.9487 460.781 62.9487H449.443C448.05 62.9487 447.354 62.2519 447.354 60.8585V54.0902C447.354 52.6967 448.05 52 449.443 52H487.037C488.43 52 489.126 52.6967 489.126 54.0902V60.8585C489.126 62.2519 488.43 62.9487 487.037 62.9487H475.699C474.904 62.9487 474.506 63.3136 474.506 64.0435V113.91C474.506 115.303 473.81 116 472.417 116Z" fill="black"/>
<path d="M511.141 105.051H518.203C520.325 105.051 521.816 104.62 522.678 103.757C523.607 102.828 524.071 101.302 524.071 99.1789V68.8211C524.071 66.6978 523.607 65.2048 522.678 64.3421C521.816 63.4132 520.325 62.9487 518.203 62.9487H511.141C509.02 62.9487 507.528 63.4132 506.666 64.3421C505.804 65.2048 505.373 66.6978 505.373 68.8211V99.1789C505.373 101.302 505.804 102.828 506.666 103.757C507.528 104.62 509.02 105.051 511.141 105.051ZM520.291 116H509.152C503.914 116 499.87 114.607 497.019 111.82C494.168 109.033 492.742 105.018 492.742 99.7761V68.224C492.742 62.9819 494.168 58.9673 497.019 56.1804C499.87 53.3935 503.914 52 509.152 52H520.291C525.529 52 529.574 53.3935 532.425 56.1804C535.276 58.9673 536.702 62.9819 536.702 68.224V99.7761C536.702 105.018 535.276 109.033 532.425 111.82C529.574 114.607 525.529 116 520.291 116Z" fill="black"/>
<path d="M551.994 116H543.739C542.347 116 541.65 115.303 541.65 113.91V54.0902C541.65 52.6967 542.347 52 543.739 52H551.198C552.591 52 553.519 52.4645 553.983 53.3935L574.073 91.1166H574.471V54.0902C574.471 52.6967 575.167 52 576.559 52H584.814C586.207 52 586.903 52.6967 586.903 54.0902V113.91C586.903 115.303 586.207 116 584.814 116H577.554C576.095 116 575.034 115.336 574.371 114.009L554.48 76.9829H554.082V113.91C554.082 115.303 553.386 116 551.994 116Z" fill="black"/>
<path d="M605 54.0902V113.91C605 115.303 604.304 116 602.911 116H594.458C593.065 116 592.369 115.303 592.369 113.91V54.0902C592.369 52.6967 593.065 52 594.458 52H602.911C604.304 52 605 52.6967 605 54.0902Z" fill="black"/>
<path d="M0 2H119V56H81V40H37V56H0V2Z" fill="#0392DE"/>
<path d="M119 117L-1.41859e-05 117L-9.63992e-06 65L38 65L38 80.4074L82 80.4074L82 65L119 65L119 117Z" fill="#A8A8A8"/>
</svg>
