<svg xmlns="http://www.w3.org/2000/svg" viewBox="0 0 453.24 293.62"><defs></defs><title>Kovabetoni Oy logo</title><g id="footerLayer_2" data-name="footerLayer 2"><g id="footerLayer_1-2" data-name="footerLayer 1"><path fill="#c20f1b" d="M226.58.13c11.66,8.66,21,19.2,29.24,30.81C274,56.6,285.44,85.11,292,115.7a246.85,246.85,0,0,1,5.51,51.56,9.59,9.59,0,0,1-.33,3c-.91-20.13-8.09-37.47-22.91-51.2S241.46,99,221.2,100.4c-34.73,2.39-65.48,32.39-65.21,69.77a52.54,52.54,0,0,1-.15-10.49c1.93-45.41,14-87.68,39.43-125.7C203.85,21.16,213.91,9.61,226.58.13Z"></path><path fill="#c20f1b" d="M382.18,0a131.54,131.54,0,0,1,27.09,27.79c19.57,26.55,31.76,56.35,38.58,88.46a246,246,0,0,1,5.39,51,10.19,10.19,0,0,1-.33,3.08c-1-21.08-8.72-39-24.74-52.86s-34.74-19.24-55.7-16.54c-29.92,3.85-60,30.22-60.6,69.18-3.36-11,5.44-63.49,15.08-88.93C338.85,49.73,355.42,21.46,382.18,0Z"></path><path fill="#c20f1b" d="M.17,170a177.19,177.19,0,0,1,1.12-27.83,243.47,243.47,0,0,1,22-79.67c10-21,22.5-40.22,39.81-56,2.4-2.2,5-4.2,7.69-6.45A109.13,109.13,0,0,1,87.82,15.64C109.31,39.75,123.12,68,132,98.74a242.12,242.12,0,0,1,9.62,64.69c0,2.27.64,4.57-.33,6.86C140.41,148.35,132,130,115,116c-13.54-11.13-29.26-16.28-46.77-15.78C32.94,101.27.58,130.72.17,170Z"></path><path fill="#c10f1b" d="M278.35,172.26a51.91,51.91,0,0,1-103.81.16c-.24-28.71,23.27-52,52.48-52C255.3,120.49,278.35,143.75,278.35,172.26Z"></path><path fill="#c10f1b" d="M384,224.23c-27.77,1.41-52.06-20.93-53.59-49.27s20.55-53,48.66-54.45c29-1.51,53.71,20.43,55.06,48.92C435.5,198.85,413.65,222.73,384,224.23Z"></path><path fill="#c10f1b" d="M122.6,172.55a51.85,51.85,0,1,1-103.7-.43c0-28.82,23.23-51.69,52.38-51.66C99.67,120.49,122.61,143.77,122.6,172.55Z"></path><path fill="#000" d="M231.16,272.41a7.17,7.17,0,0,1,4.1,7.68,16.37,16.37,0,0,0,0,3c.5,6.09-1.76,10-9.61,10.29-10.17.39-20.37.09-30.72.09V252.52c10.52,0,20.9-.24,31.27.09,6,.19,8.48,3.46,8.45,9.55C234.61,265.86,235.51,269.87,231.16,272.41Zm-8.49,4.51h-15.2c.12,2.66-.26,5.18.22,7.55h15Zm-15.09-8.87H222V261.4H207.58Z"></path><path fill="#000" d="M423.42,252.52v40.77h-12L392,268.61v24.68H380.17V252.5h12.39l18.81,23.94V252.52Z"></path><path fill="#000" d="M329.6,273v-10.7c0-6,2.66-9.29,8.49-9.68a194.12,194.12,0,0,1,24.36,0c5.87.36,8.58,3.65,8.6,9.59q0,10.86,0,21.71c0,5.51-2.19,8.29-7.65,9.2-6,1-12.07.29-18.1.4a33,33,0,0,1-8.59-.45c-4.94-1.19-7.07-3.73-7.1-8.76C329.58,280.5,329.6,276.74,329.6,273Zm12.73-11.54v23h15.89v-23Z"></path><path fill="#000" d="M94.64,273c0,4,0,7.92,0,11.88-.07,4.28-2.07,6.86-6.18,7.95a18.13,18.13,0,0,1-4.39.65c-6.74.06-13.48,0-20.21,0a14.89,14.89,0,0,1-5.5-1.09,7.17,7.17,0,0,1-4.93-7.05c-.05-8.22-.07-16.44,0-24.66,0-4.43,2.64-7.49,7.6-7.94a147.45,147.45,0,0,1,25.82,0c5.47.46,7.78,3.67,7.8,9.28C94.66,265.66,94.64,269.32,94.64,273ZM81.91,284.5V261.44H66.18V284.5Z"></path><path fill="#000" d="M244,293.31V252.47h36.84v8.73H256.49v6.69h19.59v8.87H256.63c-.58,2.54-.13,5-.31,7.67h24.51v8.88Z"></path><path fill="#000" d="M37.12,252.44H51.83l-18.7,20.05,19.41,20.87H37.43L22.33,276.9H19.74v16.4H7.14V252.55H19.45v15c1.07.69,1.95.37,3,.41Z"></path><path fill="#000" d="M189.84,293.46H176.07l-3.47-8.74H156.34l-3.44,8.68H139.58l17.91-40.9h14.38C177.76,265.92,183.73,279.52,189.84,293.46Zm-25.38-30c-1.69,4.39-3.12,8.14-4.61,12h9.24C167.55,271.53,166.11,267.78,164.46,263.5Z"></path><path fill="#000" d="M97.69,252.48h13.8l10.29,28.79,10.29-28.77h13.49l-16.94,40.85h-14Z"></path><path fill="#000" d="M299.17,261.3H285v-8.78h40.49v8.71H311.65v32.08H299.17Z"></path><path fill="#000" d="M433.76,252.49H446v40.79H433.76Z"></path></g></g></svg>