<?xml version="1.0" encoding="UTF-8"?> <svg xmlns="http://www.w3.org/2000/svg" id="Layer_1" data-name="Layer 1" viewBox="0 0 221.668 80.7984"><defs><style>.cls-1{fill:#004e8f;fill-rule:evenodd;}.cls-2{fill:#72797f;}.cls-3{fill:#fff;}</style></defs><polygon class="cls-1" points="80.153 61.657 84.952 61.657 82.668 53.945 80.153 61.657 80.153 61.657"></polygon><polygon class="cls-1" points="154.158 61.657 158.957 61.657 156.674 53.945 154.158 61.657 154.158 61.657"></polygon><path class="cls-1" d="M106.035,51.6949h-4.601v5.99h4.601c1.655,0,2.118-.6289,2.118-3.045,0-2.1513-.662-2.9453-2.118-2.9453Z"></path><path class="cls-1" d="M161.736,71.2213l-1.588-4.8652h-7.314l-1.588,4.8652h-5.693l7.91-24.2266h6.289l7.644,24.2266Zm-24.359,0-1.621-14.86-3.078,14.86h-6.123l-3.209-14.86-1.457,14.86h-5.362l2.35-24.2266h7.545l3.144,15.2246,3.211-15.2246h7.512l2.416,24.2266Zm-29.224,0-3.608-8.9033-3.143-.4629v9.3662H95.9731V46.9947H106.664c4.004,0,6.982,1.7539,6.982,7.6455s-2.249,6.6856-3.739,7.2149l4.402,9.3662Zm-20.4211,0-1.5888-4.8652H78.8286l-1.5879,4.8652H71.5474l7.91-24.2266h6.2891l7.6445,24.2266Zm-22.87-8.6055c-1.3242-.0986-4.9971-.5957-5.1631-.6611v9.2666H54.271V46.9947H64.8618c3.1768,0,7.05.8936,7.05,7.6455,0,7.5459-4.1709,8.1416-7.05,7.9756ZM0,24.1051V80.7984H221.668V24.1051Z"></path><path class="cls-1" d="M64.3657,51.6949h-4.667v6.2217h4.667c1.3565,0,2.085-.86,2.085-3.21,0-2.3173-.9268-3.0117-2.085-3.0117Z"></path><path class="cls-2" d="M46.1968,5.2833c-.9829,0-1.65.2134-1.93.6313-.2525.3516-.2817.6368-.2817,2.0425v2.6416c0,1.2969.2084,2.0035.7758,2.3843a2.0134,2.0134,0,0,0,1.2647.4624H60.415c-.1787,1.9351-.3481,2.604-.8056,3.273-.9864,1.4443-3.2788,2.18-6.6157,2.18h-6.93c-2.9585,0-5.4585-.7-6.5835-1.8232-1.3018-1.2695-1.8653-3.0288-1.8653-5.5991V6.9024c0-2.5747.6968-4.3618,2.1846-5.49C41.1289.3873,43.1421,0,46.8691,0h4.6094c4.04,0,6.3018.5322,7.2881,1.6616.7.8057.8789,1.33,1.33,3.6216Z"></path><path class="cls-2" d="M78.6421,13.691c2.08,0,2.5083-.42,2.5083-2.4985V7.7457c0-1.8682-.5405-2.3193-2.7163-2.3193H71.748c-1.8632,0-2.4931.6269-2.4931,2.4218v3.4175a3.1419,3.1419,0,0,0,.7031,2.043c.2373.2812.9844.3823,2.249.3823ZM79.8774.1432c2.4268,0,3.4556.1709,4.6094.8432,1.8277.99,2.8565,3.07,2.8565,5.669V12.003c0,2.46-.4673,4.12-1.4522,5.2085C84.6626,18.5484,83.4,18.898,79.6333,18.898H71.32c-2.9082,0-4.01-.1005-4.8174-.3808-2.3891-.8809-3.6914-3.2407-3.6914-6.6216V7.2867c0-2.459.459-4.0459,1.5542-5.2832,1.2583-1.4043,2.6709-1.86,5.8741-1.86Z"></path><path class="cls-2" d="M90.1606.1432h5.8365c3.4189,0,3.9072.1709,5.2829,1.97l7.842,10.1328V.1432h6.197V18.898h-6.974a3.264,3.264,0,0,1-2.596-.8076,15.2808,15.2808,0,0,1-1.554-2.0786l-7.7389-9.85V18.898H90.1606V.1432Z"></path><path class="cls-2" d="M131.152,14.1808c2.286,0,2.708-.1739,2.708-1.0528a1.34,1.34,0,0,0-.237-.915c-.26-.1773-.26-.1773-2.258-.2441l-7.744-.3887c-2.923-.1778-4.048-.5274-4.957-1.6538a5.9447,5.9447,0,0,1-1.096-3.9043c0-2.2525.459-3.59,1.517-4.5391C120.247.4264,121.719.07,125.101.07h6.237c3.683,0,5.547.5,6.641,1.6914.667.74.814,1.128,1.236,3.0288H125.943c-1.722,0-2.042.1431-2.042.88,0,.8057.357,1.0513,1.687,1.0889l8.241.3545c2.708.1,3.869.4882,4.778,1.582.852.9849,1.163,2.145,1.163,4.1162,0,2.5991-.415,3.9375-1.473,4.7852-1.19,1.0244-2.537,1.3007-5.984,1.3007h-6.932c-3.729,0-5.593-.4882-6.755-1.7558-.628-.7031-.776-1.0928-1.094-2.9614Z"></path><path class="cls-2" d="M157.863,13.691c2.072,0,2.501-.42,2.501-2.4985V7.7457c0-1.8682-.531-2.3193-2.708-2.3193h-6.687c-1.871,0-2.508.6269-2.508,2.4218v3.4175a3.1338,3.1338,0,0,0,.71,2.043c.245.2812.99.3823,2.25.3823ZM159.099.1432c2.427,0,3.449.1709,4.609.8432,1.829.99,2.848,3.07,2.848,5.669V12.003c0,2.46-.459,4.12-1.442,5.2085-1.228,1.3369-2.5,1.6865-6.264,1.6865h-8.302c-2.923,0-4.017-.1005-4.823-.3808-2.397-.8809-3.691-3.2407-3.691-6.6216V7.2867c0-2.459.458-4.0459,1.546-5.2832,1.263-1.4043,2.669-1.86,5.872-1.86Z"></path><path class="cls-2" d="M175.745.1432V14.046h11.997v4.852H175.286c-2.81,0-3.979-.3193-4.89-1.3691a4.7417,4.7417,0,0,1-1.028-3.4829V.1432Z"></path><polygon class="cls-2" points="196.511 0.143 196.511 18.898 190.206 18.898 190.206 0.143 196.511 0.143 196.511 0.143"></polygon><path class="cls-2" d="M213.051,14.1808c2.285,0,2.708-.1739,2.708-1.0528a1.2519,1.2519,0,0,0-.253-.915c-.244-.1773-.244-.1773-2.249-.2441l-7.736-.3887c-2.923-.1778-4.047-.5274-4.965-1.6538a5.9394,5.9394,0,0,1-1.087-3.9043c0-2.2525.45-3.59,1.517-4.5391C202.139.4264,203.61.07,206.999.07h6.222c3.7,0,5.562.5,6.65,1.6914.674.74.807,1.128,1.235,3.0288H207.842c-1.723,0-2.041.1431-2.041.88,0,.8057.355,1.0513,1.687,1.0889l8.233.3545c2.707.1,3.869.4882,4.787,1.582.843.9849,1.16,2.145,1.16,4.1162,0,2.5991-.415,3.9375-1.479,4.7852-1.198,1.0244-2.529,1.3007-5.976,1.3007h-6.931c-3.737,0-5.602-.4882-6.764-1.7558-.635-.7031-.768-1.0928-1.085-2.9614Z"></path><path class="cls-3" d="M64.3657,57.9166c1.3565,0,2.085-.86,2.085-3.21,0-2.3173-.9268-3.0117-2.085-3.0117h-4.667v6.2217ZM54.271,46.9947H64.8618c3.1768,0,7.05.8936,7.05,7.6455,0,7.5459-4.1709,8.1416-7.05,7.9756-1.3242-.0986-4.9971-.5957-5.1631-.6611v9.2666H54.271V46.9947Z"></path><path class="cls-3" d="M84.9517,61.6568l-2.2832-7.7119-2.5157,7.7119ZM79.4575,46.9947h6.2891l7.6445,24.2266H87.7319l-1.5888-4.8652H78.8286l-1.5879,4.8652H71.5474l7.91-24.2266Z"></path><path class="cls-3" d="M106.035,57.6852c1.655,0,2.118-.6289,2.118-3.045,0-2.1513-.662-2.9453-2.118-2.9453h-4.601v5.99Zm-10.0619-10.69H106.664c4.004,0,6.982,1.7539,6.982,7.6455s-2.249,6.6856-3.739,7.2149l4.402,9.3662h-6.156l-3.608-8.9033-3.143-.4629v9.3662H95.9731V46.9947Z"></path><polygon class="cls-3" points="118.877 46.995 126.422 46.995 129.566 62.219 132.777 46.995 140.289 46.995 142.705 71.221 137.377 71.221 135.756 56.361 132.678 71.221 126.555 71.221 123.346 56.361 121.889 71.221 116.527 71.221 118.877 46.995 118.877 46.995"></polygon><path class="cls-3" d="M158.957,61.6568l-2.283-7.7119-2.516,7.7119Zm-5.494-14.6621h6.289l7.644,24.2266h-5.66l-1.588-4.8652h-7.314l-1.588,4.8652h-5.693l7.91-24.2266Z"></path></svg> 