<svg width="814" height="591" viewBox="0 0 814 591" fill="none" xmlns="http://www.w3.org/2000/svg">
<path d="M759.827 51.3133C759.827 76.112 742.741 93.2014 721.045 93.2014C696.913 93.2014 682.004 74.3467 682.004 51.3133C682.004 26.6333 699.095 9.44132 721.045 9.44132C742.741 9.44132 759.827 26.6333 759.827 51.3133ZM770.655 51.3133C770.655 20.8013 747.609 0.621337 721.045 0.621337C694.204 0.621337 671.159 20.8013 671.159 51.3133C671.159 80.1853 691.901 102.008 721.045 102.008C747.609 102.008 770.655 81.8133 770.655 51.3133ZM711.032 48.46V32.0547H722.145C727.711 32.0547 734.34 32.8854 734.34 39.6507C734.34 47.7894 728.239 48.46 721.313 48.46H711.032ZM711.032 56.3254H719.685L734.188 80.3147H744.615L728.925 55.6254C737.333 54.6974 743.539 50.4934 743.539 40.3174C743.539 28.96 736.643 24.212 723.087 24.212H701.821V80.3147H711.032V56.3254" fill="white"/>
<path d="M280.843 51.3133H214.4L90.6547 401.983H226.931L239.113 354.48H322.248L334.424 401.983H470.708L346.971 51.3133H280.525H280.843ZM256.111 270.875L280.947 163.732L306.044 270.875H256.111Z" fill="#F68712"/>
<path d="M554.271 94.5507H495.969L387.361 402.297H506.965L517.653 360.603H590.62L601.297 402.297H720.907L612.311 94.5507H554.009H554.271ZM532.575 287.235L554.364 193.208L576.403 287.235H532.575Z" fill="#F68712"/>
<path d="M45.2947 494.828C43.2373 497.511 40.3853 499.541 36.7401 500.921C33.0937 502.301 28.9531 502.992 24.3183 502.992C19.5527 502.992 15.3339 501.911 11.662 499.749C7.99014 497.588 5.15787 494.496 3.1656 490.472C1.17347 486.449 0.138535 481.755 0.0604019 476.391V471.937C0.0604019 463.344 2.1172 456.631 6.23227 451.8C10.3469 446.969 16.0891 444.555 23.4588 444.555C29.7869 444.555 34.8125 446.123 38.5369 449.261C42.2613 452.4 44.5 456.911 45.256 462.796H35.5683C34.4745 455.948 30.5031 452.523 23.6541 452.523C19.2265 452.523 15.8615 454.117 13.5563 457.304C11.2516 460.492 10.0604 465.169 9.98227 471.335V475.705C9.98227 481.845 11.2771 486.613 13.8688 490.009C16.4599 493.403 20.0604 495.101 24.6697 495.101C29.7219 495.101 33.3156 493.956 35.4511 491.664V480.531H23.7323V473.031H45.2947V494.828" fill="white"/>
<path d="M62.9507 481.508C62.9507 485.856 63.8493 489.261 65.6467 491.723C67.4427 494.183 69.9427 495.413 73.1467 495.413C76.3493 495.413 78.8427 494.164 80.6267 491.664C82.4093 489.164 83.3027 485.505 83.3027 480.687C83.3027 476.416 82.384 473.031 80.548 470.531C78.7133 468.031 76.2187 466.781 73.068 466.781C69.968 466.781 67.508 468.012 65.6853 470.472C63.8627 472.933 62.9507 476.612 62.9507 481.508V481.508ZM53.4586 480.687C53.4586 476.547 54.2787 472.816 55.92 469.496C57.56 466.176 59.8653 463.623 62.8333 461.84C65.8027 460.056 69.2147 459.164 73.068 459.164C78.7707 459.164 83.4 461 86.9547 464.672C90.5093 468.344 92.4293 473.213 92.716 479.281L92.756 481.508C92.756 485.675 91.9547 489.399 90.3533 492.679C88.752 495.96 86.46 498.5 83.4787 500.296C80.496 502.093 77.052 502.992 73.1467 502.992C67.1827 502.992 62.4093 501.007 58.8293 497.035C55.2493 493.064 53.4586 487.771 53.4586 481.156V480.687" fill="white"/>
<path d="M108.497 481.508C108.497 485.856 109.396 489.261 111.193 491.723C112.991 494.183 115.491 495.413 118.693 495.413C121.896 495.413 124.389 494.164 126.173 491.664C127.957 489.164 128.849 485.505 128.849 480.687C128.849 476.416 127.932 473.031 126.096 470.531C124.26 468.031 121.765 466.781 118.615 466.781C115.516 466.781 113.055 468.012 111.232 470.472C109.409 472.933 108.497 476.612 108.497 481.508V481.508ZM99.0053 480.687C99.0053 476.547 99.8253 472.816 101.467 469.496C103.107 466.176 105.412 463.623 108.381 461.84C111.349 460.056 114.761 459.164 118.615 459.164C124.319 459.164 128.947 461 132.501 464.672C136.056 468.344 137.976 473.213 138.264 479.281L138.303 481.508C138.303 485.675 137.501 489.399 135.9 492.679C134.299 495.96 132.007 498.5 129.025 500.296C126.043 502.093 122.6 502.992 118.693 502.992C112.729 502.992 107.957 501.007 104.377 497.035C100.796 493.064 99.0053 487.771 99.0053 481.156V480.687Z" fill="white"/>
<path d="M154.045 481.585C154.045 485.883 154.871 489.235 156.525 491.644C158.179 494.053 160.529 495.257 163.576 495.257C167.456 495.257 170.295 493.525 172.092 490.063V472.015C170.347 468.629 167.535 466.937 163.655 466.937C160.581 466.937 158.211 468.155 156.545 470.589C154.879 473.024 154.045 476.689 154.045 481.585V481.585ZM144.552 480.765C144.552 474.255 146.063 469.027 149.084 465.081C152.104 461.136 156.155 459.164 161.232 459.164C165.711 459.164 169.331 460.727 172.092 463.851V442.211H181.584V502.211H172.991L172.521 497.836C169.683 501.273 165.893 502.992 161.155 502.992C156.207 502.992 152.203 501 149.143 497.015C146.081 493.031 144.552 487.615 144.552 480.765" fill="white"/>
<path d="M255.724 483.695C255.152 489.763 252.912 494.496 249.005 497.895C245.1 501.292 239.904 502.992 233.42 502.992C228.888 502.992 224.897 501.917 221.447 499.769C217.996 497.621 215.333 494.567 213.459 490.609C211.584 486.651 210.607 482.055 210.529 476.82V471.508C210.529 466.143 211.48 461.416 213.381 457.328C215.281 453.239 218.009 450.088 221.564 447.875C225.119 445.661 229.227 444.555 233.888 444.555C240.164 444.555 245.216 446.253 249.045 449.652C252.873 453.051 255.1 457.861 255.724 464.085H245.881C245.412 459.997 244.22 457.048 242.307 455.237C240.392 453.428 237.585 452.523 233.888 452.523C229.592 452.523 226.291 454.093 223.987 457.233C221.681 460.375 220.503 464.983 220.451 471.056V476.1C220.451 482.251 221.551 486.943 223.752 490.176C225.952 493.407 229.175 495.023 233.42 495.023C237.3 495.023 240.216 494.151 242.169 492.405C244.123 490.661 245.359 487.757 245.881 483.695H255.724" fill="white"/>
<path d="M285.764 468.617C284.513 468.408 283.224 468.304 281.896 468.304C277.547 468.304 274.617 469.971 273.107 473.304V502.211H263.615V459.945H272.677L272.912 464.672C275.203 461 278.38 459.164 282.443 459.164C283.797 459.164 284.917 459.345 285.803 459.711L285.764 468.617" fill="white"/>
<path d="M309.24 466.781C306.636 466.781 304.533 467.692 302.932 469.515C301.329 471.339 300.308 473.877 299.865 477.132H317.951V476.429C317.741 473.252 316.896 470.849 315.412 469.223C313.928 467.595 311.871 466.781 309.24 466.781V466.781ZM310.373 502.992C304.357 502.992 299.48 501.097 295.744 497.308C292.007 493.519 290.139 488.473 290.139 482.172V481C290.139 476.781 290.952 473.012 292.58 469.691C294.207 466.371 296.492 463.787 299.436 461.937C302.379 460.088 305.659 459.164 309.279 459.164C315.035 459.164 319.48 461 322.619 464.672C325.757 468.344 327.325 473.539 327.325 480.257V484.085H299.709C299.995 487.575 301.16 490.336 303.205 492.367C305.249 494.399 307.82 495.413 310.92 495.413C315.269 495.413 318.811 493.656 321.545 490.14L326.661 495.023C324.968 497.549 322.711 499.509 319.884 500.901C317.059 502.295 313.888 502.992 310.373 502.992" fill="white"/>
<path d="M342.404 481.585C342.404 485.883 343.231 489.235 344.884 491.644C346.539 494.053 348.888 495.257 351.936 495.257C355.816 495.257 358.655 493.525 360.451 490.063V472.015C358.707 468.629 355.893 466.937 352.013 466.937C348.94 466.937 346.571 468.155 344.904 470.589C343.237 473.024 342.404 476.689 342.404 481.585V481.585ZM332.912 480.765C332.912 474.255 334.421 469.027 337.443 465.081C340.464 461.136 344.513 459.164 349.592 459.164C354.071 459.164 357.691 460.727 360.451 463.851V442.211H369.943V502.211H361.349L360.88 497.836C358.043 501.273 354.253 502.992 349.513 502.992C344.565 502.992 340.561 501 337.501 497.015C334.441 493.031 332.912 487.615 332.912 480.765" fill="white"/>
<path d="M389.943 502.211H380.451V459.945H389.943V502.211ZM379.865 448.968C379.865 447.511 380.327 446.299 381.252 445.336C382.176 444.372 383.497 443.891 385.216 443.891C386.936 443.891 388.264 444.372 389.201 445.336C390.139 446.299 390.607 447.511 390.607 448.968C390.607 450.4 390.139 451.592 389.201 452.543C388.264 453.493 386.936 453.968 385.216 453.968C383.497 453.968 382.176 453.493 381.252 452.543C380.327 451.592 379.865 450.4 379.865 448.968Z" fill="white"/>
<path d="M412.169 449.672V459.945H419.631V466.976H412.169V490.569C412.169 492.184 412.488 493.349 413.127 494.067C413.764 494.783 414.905 495.14 416.545 495.14C417.639 495.14 418.745 495.011 419.865 494.749V502.093C417.703 502.692 415.621 502.992 413.616 502.992C406.324 502.992 402.677 498.968 402.677 490.921V466.976H395.724V459.945H402.677V449.672H412.169Z" fill="white"/>
<path d="M464.007 489.124L470.725 459.945H479.983L468.46 502.211H460.647L451.584 473.187L442.679 502.211H434.865L423.303 459.945H432.561L439.397 488.812L448.069 459.945H455.217L464.007 489.124" fill="white"/>
<path d="M494.045 481.508C494.045 485.856 494.944 489.261 496.741 491.723C498.537 494.183 501.037 495.413 504.241 495.413C507.444 495.413 509.937 494.164 511.721 491.664C513.505 489.164 514.397 485.505 514.397 480.687C514.397 476.416 513.479 473.031 511.643 470.531C509.807 468.031 507.313 466.781 504.163 466.781C501.064 466.781 498.603 468.012 496.78 470.472C494.957 472.933 494.045 476.612 494.045 481.508V481.508ZM484.553 480.687C484.553 476.547 485.373 472.816 487.015 469.496C488.655 466.176 490.96 463.623 493.928 461.84C496.897 460.056 500.308 459.164 504.163 459.164C509.865 459.164 514.495 461 518.049 464.672C521.604 468.344 523.524 473.213 523.811 479.281L523.851 481.508C523.851 485.675 523.049 489.399 521.448 492.679C519.847 495.96 517.555 498.5 514.573 500.296C511.591 502.093 508.147 502.992 504.241 502.992C498.277 502.992 493.505 501.007 489.924 497.035C486.344 493.064 484.553 487.771 484.553 481.156V480.687Z" fill="white"/>
<path d="M554.007 468.617C552.756 468.408 551.467 468.304 550.139 468.304C545.791 468.304 542.86 469.971 541.351 473.304V502.211H531.857V459.945H540.92L541.155 464.672C543.447 461 546.624 459.164 550.685 459.164C552.04 459.164 553.16 459.345 554.045 459.711L554.007 468.617Z" fill="white"/>
<path d="M571.897 449.672V459.945H579.357V466.976H571.897V490.569C571.897 492.184 572.216 493.349 572.853 494.067C573.492 494.783 574.631 495.14 576.272 495.14C577.365 495.14 578.472 495.011 579.592 494.749V502.093C577.431 502.692 575.348 502.992 573.343 502.992C566.051 502.992 562.405 498.968 562.405 490.921V466.976H555.452V459.945H562.405V449.672H571.897Z" fill="white"/>
<path d="M595.96 464.555C599.059 460.96 602.977 459.164 607.717 459.164C616.728 459.164 621.297 464.307 621.428 474.593V502.211H611.936V474.945C611.936 472.028 611.304 469.964 610.041 468.753C608.779 467.543 606.923 466.937 604.475 466.937C600.673 466.937 597.835 468.629 595.96 472.015V502.211H586.467V442.211H595.96V464.555Z" fill="white"/>
<path d="M641.116 502.211H631.624V459.945H641.116V502.211ZM631.037 448.968C631.037 447.511 631.5 446.299 632.424 445.336C633.349 444.372 634.671 443.891 636.389 443.891C638.108 443.891 639.436 444.372 640.373 445.336C641.311 446.299 641.78 447.511 641.78 448.968C641.78 450.4 641.311 451.592 640.373 452.543C639.436 453.493 638.108 453.968 636.389 453.968C634.671 453.968 633.349 453.493 632.424 452.543C631.5 451.592 631.037 450.4 631.037 448.968Z" fill="white"/>
<path d="M660.256 459.945L660.529 464.828C663.655 461.052 667.756 459.164 672.835 459.164C681.636 459.164 686.116 464.203 686.272 474.281V502.211H676.78V474.828C676.78 472.145 676.2 470.16 675.041 468.871C673.883 467.581 671.988 466.937 669.357 466.937C665.529 466.937 662.679 468.669 660.803 472.132V502.211H651.311V459.945H660.256" fill="white"/>
<path d="M713.42 466.781C710.816 466.781 708.713 467.692 707.112 469.515C705.511 471.339 704.488 473.877 704.045 477.132H722.131V476.429C721.923 473.252 721.076 470.849 719.592 469.223C718.108 467.595 716.051 466.781 713.42 466.781V466.781ZM714.553 502.992C708.537 502.992 703.661 501.097 699.924 497.308C696.187 493.519 694.319 488.473 694.319 482.172V481C694.319 476.781 695.132 473.012 696.76 469.691C698.388 466.371 700.673 463.787 703.616 461.937C706.559 460.088 709.84 459.164 713.46 459.164C719.215 459.164 723.661 461 726.799 464.672C729.937 468.344 731.507 473.539 731.507 480.257V484.085H703.889C704.176 487.575 705.341 490.336 707.385 492.367C709.429 494.399 712.001 495.413 715.1 495.413C719.449 495.413 722.991 493.656 725.725 490.14L730.843 495.023C729.149 497.549 726.891 499.509 724.065 500.901C721.24 502.295 718.069 502.992 714.553 502.992" fill="white"/>
<path d="M762.561 490.727C762.561 489.033 761.864 487.744 760.471 486.859C759.077 485.973 756.767 485.192 753.537 484.515C750.308 483.839 747.613 482.979 745.452 481.937C740.712 479.645 738.343 476.325 738.343 471.976C738.343 468.331 739.879 465.284 742.952 462.836C746.024 460.388 749.931 459.164 754.671 459.164C759.723 459.164 763.804 460.413 766.916 462.913C770.028 465.413 771.584 468.656 771.584 472.64H762.092C762.092 470.817 761.415 469.3 760.061 468.089C758.707 466.879 756.909 466.273 754.671 466.273C752.587 466.273 750.888 466.755 749.573 467.719C748.257 468.681 747.6 469.971 747.6 471.585C747.6 473.044 748.212 474.177 749.436 474.984C750.66 475.791 753.133 476.605 756.857 477.425C760.581 478.245 763.505 479.223 765.628 480.355C767.749 481.488 769.325 482.848 770.353 484.437C771.383 486.025 771.897 487.953 771.897 490.219C771.897 494.02 770.321 497.1 767.171 499.456C764.019 501.813 759.892 502.992 754.788 502.992C751.324 502.992 748.239 502.367 745.529 501.117C742.821 499.867 740.712 498.148 739.201 495.96C737.691 493.773 736.936 491.416 736.936 488.891H746.155C746.285 491.129 747.131 492.855 748.693 494.067C750.256 495.277 752.327 495.883 754.905 495.883C757.405 495.883 759.305 495.407 760.608 494.456C761.909 493.507 762.561 492.263 762.561 490.727" fill="white"/>
<path d="M803.851 490.727C803.851 489.033 803.153 487.744 801.76 486.859C800.367 485.973 798.056 485.192 794.827 484.515C791.597 483.839 788.903 482.979 786.74 481.937C782.001 479.645 779.631 476.325 779.631 471.976C779.631 468.331 781.168 465.284 784.24 462.836C787.313 460.388 791.22 459.164 795.96 459.164C801.012 459.164 805.093 460.413 808.205 462.913C811.317 465.413 812.873 468.656 812.873 472.64H803.381C803.381 470.817 802.704 469.3 801.351 468.089C799.996 466.879 798.199 466.273 795.96 466.273C793.876 466.273 792.177 466.755 790.861 467.719C789.547 468.681 788.889 469.971 788.889 471.585C788.889 473.044 789.501 474.177 790.725 474.984C791.949 475.791 794.423 476.605 798.147 477.425C801.871 478.245 804.795 479.223 806.916 480.355C809.039 481.488 810.615 482.848 811.643 484.437C812.672 486.025 813.185 487.953 813.185 490.219C813.185 494.02 811.611 497.1 808.46 499.456C805.308 501.813 801.181 502.992 796.076 502.992C792.613 502.992 789.527 502.367 786.819 501.117C784.111 499.867 782.001 498.148 780.491 495.96C778.98 493.773 778.225 491.416 778.225 488.891H787.444C787.573 491.129 788.42 492.855 789.983 494.067C791.545 495.277 793.616 495.883 796.193 495.883C798.693 495.883 800.595 495.407 801.897 494.456C803.199 493.507 803.851 492.263 803.851 490.727" fill="white"/>
<path d="M211.691 554.952C211.691 556.823 211.161 558.25 210.104 559.235C209.047 560.221 207.551 560.713 205.617 560.713C203.697 560.713 202.159 560.067 201.003 558.777C199.847 557.487 199.269 555.728 199.269 553.501V551.483C199.269 549.331 199.853 547.608 201.021 546.317C202.189 545.026 203.721 544.381 205.617 544.381C207.575 544.381 209.079 544.884 210.132 545.887C211.184 546.889 211.711 548.303 211.711 550.124H209.031C209.031 548.907 208.74 548.037 208.159 547.513C207.577 546.992 206.731 546.731 205.617 546.731C204.468 546.731 203.563 547.154 202.903 548.001C202.241 548.847 201.911 550.025 201.911 551.535V553.616C201.911 555.088 202.241 556.247 202.903 557.093C203.563 557.941 204.468 558.364 205.617 558.364C206.743 558.364 207.591 558.107 208.159 557.589C208.728 557.072 209.012 556.193 209.012 554.952H211.691ZM194.937 552.519C194.937 554.623 195.427 556.568 196.407 558.359C197.384 560.15 198.715 561.554 200.397 562.567C202.079 563.581 203.899 564.089 205.856 564.089C207.813 564.089 209.631 563.581 211.305 562.567C212.983 561.554 214.309 560.15 215.288 558.359C216.267 556.568 216.756 554.623 216.756 552.519C216.756 550.443 216.272 548.516 215.307 546.744C214.34 544.972 213.016 543.574 211.333 542.555C209.652 541.533 207.825 541.023 205.856 541.023C203.899 541.023 202.076 541.528 200.388 542.536C198.7 543.545 197.369 544.941 196.397 546.726C195.424 548.511 194.937 550.443 194.937 552.519ZM192.828 552.528C192.828 550.059 193.4 547.764 194.544 545.648C195.687 543.531 197.271 541.864 199.296 540.647C201.321 539.431 203.508 538.821 205.856 538.821C208.205 538.821 210.388 539.431 212.408 540.647C214.425 541.864 216.007 543.531 217.151 545.648C218.295 547.764 218.867 550.059 218.867 552.528C218.867 554.938 218.316 557.196 217.215 559.3C216.113 561.404 214.551 563.096 212.527 564.373C210.501 565.652 208.279 566.291 205.856 566.291C203.445 566.291 201.229 565.659 199.204 564.392C197.18 563.125 195.611 561.441 194.497 559.337C193.384 557.233 192.828 554.962 192.828 552.528" fill="white"/>
<path d="M232.228 567.945V584.704H242.367C245.224 584.704 247.479 583.962 249.131 582.481C250.784 581 251.609 578.957 251.609 576.356C251.609 570.748 248.56 567.945 242.463 567.945H232.228ZM232.228 563.019H241.504C244.189 563.019 246.337 562.347 247.948 561.001C249.557 559.655 250.363 557.828 250.363 555.519C250.363 552.956 249.616 551.091 248.124 549.926C246.631 548.762 244.36 548.179 241.312 548.179H232.228V563.019ZM226.088 589.725V543.159H241.312C246.365 543.159 250.165 544.203 252.713 546.292C255.261 548.383 256.536 551.473 256.536 555.567C256.536 557.741 255.916 559.667 254.68 561.341C253.444 563.013 251.759 564.309 249.628 565.226C252.143 565.929 254.131 567.268 255.592 569.24C257.052 571.212 257.783 573.564 257.783 576.292C257.783 580.471 256.428 583.755 253.721 586.143C251.013 588.531 247.185 589.725 242.24 589.725H226.088" fill="white"/>
<path d="M272.367 589.725H266.451V555.12H272.367V589.725ZM265.971 545.941C265.971 544.981 266.263 544.172 266.851 543.511C267.436 542.849 268.305 542.517 269.456 542.517C270.608 542.517 271.481 542.849 272.079 543.511C272.676 544.172 272.975 544.981 272.975 545.941C272.975 546.9 272.676 547.7 272.079 548.34C271.481 548.979 270.608 549.299 269.456 549.299C268.305 549.299 267.436 548.979 266.851 548.34C266.263 547.7 265.971 546.9 265.971 545.941Z" fill="white"/>
<path d="M301.983 580.547C301.983 578.947 301.38 577.705 300.176 576.82C298.971 575.936 296.871 575.173 293.875 574.533C290.88 573.893 288.501 573.125 286.743 572.231C284.984 571.335 283.683 570.269 282.841 569.032C281.999 567.795 281.577 566.325 281.577 564.619C281.577 561.784 282.777 559.384 285.176 557.423C287.575 555.46 290.639 554.48 294.371 554.48C298.293 554.48 301.476 555.493 303.917 557.517C306.359 559.544 307.58 562.135 307.58 565.289H301.631C301.631 563.671 300.943 562.273 299.568 561.1C298.192 559.928 296.46 559.341 294.371 559.341C292.216 559.341 290.533 559.811 289.317 560.748C288.103 561.687 287.495 562.912 287.495 564.426C287.495 565.855 288.059 566.932 289.189 567.657C290.32 568.383 292.36 569.074 295.315 569.735C298.268 570.397 300.66 571.185 302.495 572.103C304.328 573.019 305.687 574.123 306.572 575.412C307.457 576.703 307.9 578.276 307.9 580.129C307.9 583.223 306.663 585.7 304.189 587.567C301.716 589.432 298.507 590.364 294.563 590.364C291.791 590.364 289.339 589.873 287.207 588.893C285.075 587.912 283.405 586.543 282.201 584.784C280.996 583.024 280.395 581.123 280.395 579.074H286.311C286.417 581.059 287.212 582.629 288.693 583.792C290.176 584.955 292.132 585.535 294.563 585.535C296.801 585.535 298.597 585.083 299.952 584.176C301.305 583.271 301.983 582.06 301.983 580.547" fill="white"/>
<path d="M321.205 555.12L321.396 559.469C324.04 556.143 327.493 554.48 331.759 554.48C339.072 554.48 342.761 558.605 342.824 566.857V589.725H336.908V566.825C336.887 564.331 336.316 562.487 335.197 561.292C334.077 560.099 332.335 559.501 329.968 559.501C328.048 559.501 326.364 560.012 324.915 561.036C323.464 562.06 322.335 563.403 321.524 565.067V589.725H315.608V555.12H321.205Z" fill="white"/>
<path d="M356.131 572.805C356.131 576.644 357.02 579.725 358.8 582.049C360.58 584.373 362.964 585.535 365.948 585.535C368.955 585.535 371.343 584.357 373.112 582.001C374.881 579.645 375.768 576.345 375.768 572.103C375.768 568.307 374.867 565.232 373.065 562.876C371.263 560.519 368.869 559.341 365.884 559.341C362.964 559.341 360.607 560.504 358.816 562.828C357.025 565.152 356.131 568.477 356.131 572.805ZM350.181 572.103C350.181 568.712 350.848 565.664 352.18 562.956C353.512 560.248 355.367 558.159 357.745 556.687C360.123 555.216 362.835 554.48 365.884 554.48C370.597 554.48 374.408 556.112 377.319 559.373C380.229 562.635 381.684 566.975 381.684 572.391V572.805C381.684 576.176 381.039 579.197 379.749 581.873C378.459 584.549 376.615 586.633 374.216 588.125C371.817 589.619 369.061 590.364 365.948 590.364C361.257 590.364 357.457 588.733 354.547 585.471C351.636 582.209 350.181 577.892 350.181 572.517V572.103" fill="white"/>
<path d="M393.581 572.805C393.581 576.729 394.391 579.8 396.012 582.016C397.632 584.235 399.871 585.344 402.728 585.344C406.481 585.344 409.22 583.66 410.948 580.289V564.395C409.177 561.132 406.46 559.501 402.792 559.501C399.892 559.501 397.632 560.621 396.012 562.859C394.391 565.099 393.581 568.413 393.581 572.805V572.805ZM387.664 572.135C387.664 566.825 388.923 562.556 391.439 559.325C393.955 556.095 397.248 554.48 401.321 554.48C405.372 554.48 408.581 555.867 410.948 558.637V540.6H416.864V589.725H411.428L411.14 586.015C408.773 588.915 405.479 590.364 401.257 590.364C397.248 590.364 393.981 588.723 391.455 585.44C388.928 582.156 387.664 577.871 387.664 572.581V572.135Z" fill="white"/>
<path d="M439.668 559.341C437.28 559.341 435.276 560.211 433.656 561.948C432.035 563.685 431.033 566.123 430.649 569.256H447.984V568.808C447.813 565.801 447.003 563.472 445.553 561.82C444.103 560.168 442.141 559.341 439.668 559.341ZM440.404 590.364C435.713 590.364 431.897 588.824 428.955 585.743C426.012 582.662 424.54 578.541 424.54 573.381V572.293C424.54 568.861 425.196 565.796 426.508 563.1C427.819 560.401 429.652 558.291 432.009 556.767C434.364 555.243 436.917 554.48 439.668 554.48C444.167 554.48 447.664 555.961 450.159 558.925C452.653 561.889 453.901 566.132 453.901 571.655V574.117H430.457C430.543 577.529 431.539 580.285 433.448 582.385C435.355 584.485 437.781 585.535 440.724 585.535C442.813 585.535 444.583 585.109 446.032 584.256C447.483 583.403 448.751 582.273 449.839 580.865L453.453 583.68C450.553 588.136 446.203 590.364 440.404 590.364" fill="white"/>
<path d="M506.864 589.725H476.352V585.471L492.472 567.561C494.859 564.854 496.507 562.652 497.413 560.956C498.319 559.261 498.773 557.508 498.773 555.695C498.773 553.265 498.037 551.272 496.567 549.715C495.095 548.159 493.132 547.38 490.681 547.38C487.739 547.38 485.452 548.217 483.82 549.891C482.189 551.565 481.373 553.895 481.373 556.879H475.457C475.457 552.593 476.837 549.128 479.599 546.484C482.36 543.841 486.055 542.517 490.681 542.517C495.009 542.517 498.431 543.654 500.948 545.924C503.464 548.195 504.721 551.217 504.721 554.992C504.721 559.576 501.8 565.035 495.959 571.367L483.485 584.896H506.864V589.725" fill="white"/>
<path d="M536.416 561.772C536.416 556.761 535.712 553.111 534.305 550.817C532.899 548.525 530.671 547.38 527.621 547.38C524.593 547.38 522.387 548.52 521.001 550.801C519.615 553.084 518.9 556.591 518.857 561.324V570.791C518.857 575.824 519.588 579.538 521.048 581.937C522.509 584.336 524.721 585.535 527.685 585.535C530.605 585.535 532.775 584.405 534.193 582.145C535.611 579.885 536.352 576.324 536.416 571.462V561.772ZM542.333 569.864C542.333 576.793 541.149 581.943 538.783 585.311C536.416 588.68 532.717 590.364 527.685 590.364C522.716 590.364 519.039 588.717 516.651 585.423C514.263 582.128 513.025 577.209 512.941 570.664V562.764C512.941 555.919 514.125 550.835 516.491 547.508C518.857 544.181 522.568 542.517 527.621 542.517C532.631 542.517 536.32 544.123 538.687 547.332C541.053 550.541 542.269 555.493 542.333 562.188V569.864Z" fill="white"/>
<path d="M580.424 589.725H549.912V585.471L566.032 567.561C568.419 564.854 570.067 562.652 570.973 560.956C571.879 559.261 572.333 557.508 572.333 555.695C572.333 553.265 571.597 551.272 570.127 549.715C568.655 548.159 566.692 547.38 564.241 547.38C561.297 547.38 559.012 548.217 557.38 549.891C555.749 551.565 554.933 553.895 554.933 556.879H549.017C549.017 552.593 550.397 549.128 553.159 546.484C555.92 543.841 559.615 542.517 564.241 542.517C568.569 542.517 571.991 543.654 574.508 545.924C577.023 548.195 578.281 551.217 578.281 554.992C578.281 559.576 575.36 565.035 569.519 571.367L557.045 584.896H580.424V589.725" fill="white"/>
<path d="M617.204 589.725H586.692V585.471L602.812 567.561C605.199 564.854 606.847 562.652 607.753 560.956C608.659 559.261 609.113 557.508 609.113 555.695C609.113 553.265 608.377 551.272 606.907 549.715C605.435 548.159 603.472 547.38 601.02 547.38C598.077 547.38 595.792 548.217 594.16 549.891C592.529 551.565 591.713 553.895 591.713 556.879H585.797C585.797 552.593 587.177 549.128 589.939 546.484C592.7 543.841 596.395 542.517 601.02 542.517C605.349 542.517 608.771 543.654 611.288 545.924C613.803 548.195 615.061 551.217 615.061 554.992C615.061 559.576 612.14 565.035 606.297 571.367L593.825 584.896H617.204V589.725" fill="white"/>
</svg>
