<svg width="447" height="421" viewBox="0 0 447 421" fill="none" xmlns="http://www.w3.org/2000/svg">
<path d="M28.6074 352.878V359H6.12061V352.878H28.6074ZM8.27393 314.211V359H0.552734V314.211H8.27393ZM52.8784 351.156V325.716H60.3228V359H53.3091L52.8784 351.156ZM53.9243 344.234L56.416 344.173C56.416 346.408 56.1699 348.469 55.6777 350.356C55.1855 352.222 54.4268 353.853 53.4014 355.247C52.376 356.621 51.0635 357.698 49.4639 358.477C47.8643 359.236 45.9468 359.615 43.7114 359.615C42.0913 359.615 40.6045 359.379 39.251 358.908C37.8975 358.436 36.7285 357.708 35.7441 356.724C34.7803 355.739 34.0317 354.458 33.4985 352.878C32.9653 351.299 32.6987 349.413 32.6987 347.218V325.716H40.1123V347.28C40.1123 348.49 40.2559 349.505 40.543 350.325C40.8301 351.125 41.2197 351.771 41.7119 352.263C42.2041 352.755 42.7783 353.104 43.4346 353.309C44.0908 353.514 44.7881 353.617 45.5264 353.617C47.6387 353.617 49.2998 353.207 50.5098 352.386C51.7402 351.545 52.6118 350.417 53.1245 349.002C53.6577 347.587 53.9243 345.998 53.9243 344.234ZM66.5059 342.727V342.02C66.5059 339.62 66.8545 337.395 67.5518 335.344C68.249 333.273 69.2539 331.479 70.5664 329.961C71.8994 328.423 73.5195 327.233 75.4268 326.393C77.3545 325.531 79.5283 325.101 81.9482 325.101C84.3887 325.101 86.5625 325.531 88.4697 326.393C90.3975 327.233 92.0278 328.423 93.3608 329.961C94.6938 331.479 95.709 333.273 96.4062 335.344C97.1035 337.395 97.4521 339.62 97.4521 342.02V342.727C97.4521 345.126 97.1035 347.352 96.4062 349.402C95.709 351.453 94.6938 353.248 93.3608 354.786C92.0278 356.303 90.4077 357.493 88.5005 358.354C86.5933 359.195 84.4297 359.615 82.0098 359.615C79.5693 359.615 77.3853 359.195 75.4575 358.354C73.5503 357.493 71.9302 356.303 70.5972 354.786C69.2642 353.248 68.249 351.453 67.5518 349.402C66.8545 347.352 66.5059 345.126 66.5059 342.727ZM73.9194 342.02V342.727C73.9194 344.224 74.0732 345.639 74.3809 346.972C74.6885 348.305 75.1704 349.474 75.8267 350.479C76.4829 351.484 77.3237 352.273 78.3491 352.848C79.3745 353.422 80.5947 353.709 82.0098 353.709C83.3838 353.709 84.5732 353.422 85.5781 352.848C86.6035 352.273 87.4443 351.484 88.1006 350.479C88.7568 349.474 89.2388 348.305 89.5464 346.972C89.8745 345.639 90.0386 344.224 90.0386 342.727V342.02C90.0386 340.543 89.8745 339.148 89.5464 337.836C89.2388 336.503 88.7466 335.324 88.0698 334.298C87.4136 333.273 86.5728 332.473 85.5474 331.899C84.5425 331.304 83.3428 331.007 81.9482 331.007C80.5537 331.007 79.3438 331.304 78.3184 331.899C77.3135 332.473 76.4829 333.273 75.8267 334.298C75.1704 335.324 74.6885 336.503 74.3809 337.836C74.0732 339.148 73.9194 340.543 73.9194 342.02ZM118.924 325.716V331.13H100.159V325.716H118.924ZM105.573 317.564H112.987V349.802C112.987 350.828 113.13 351.617 113.417 352.171C113.725 352.704 114.146 353.063 114.679 353.248C115.212 353.432 115.837 353.524 116.555 353.524C117.068 353.524 117.56 353.494 118.032 353.432C118.503 353.371 118.883 353.309 119.17 353.248L119.201 358.908C118.585 359.092 117.868 359.256 117.047 359.4C116.248 359.543 115.325 359.615 114.279 359.615C112.577 359.615 111.069 359.318 109.757 358.723C108.444 358.108 107.419 357.113 106.681 355.739C105.942 354.365 105.573 352.54 105.573 350.264V317.564ZM139.903 325.716V331.13H121.139V325.716H139.903ZM126.553 317.564H133.966V349.802C133.966 350.828 134.11 351.617 134.397 352.171C134.705 352.704 135.125 353.063 135.658 353.248C136.191 353.432 136.817 353.524 137.535 353.524C138.047 353.524 138.54 353.494 139.011 353.432C139.483 353.371 139.862 353.309 140.149 353.248L140.18 358.908C139.565 359.092 138.847 359.256 138.027 359.4C137.227 359.543 136.304 359.615 135.258 359.615C133.556 359.615 132.049 359.318 130.736 358.723C129.424 358.108 128.398 357.113 127.66 355.739C126.922 354.365 126.553 352.54 126.553 350.264V317.564ZM143.472 342.727V342.02C143.472 339.62 143.82 337.395 144.518 335.344C145.215 333.273 146.22 331.479 147.532 329.961C148.865 328.423 150.485 327.233 152.393 326.393C154.32 325.531 156.494 325.101 158.914 325.101C161.354 325.101 163.528 325.531 165.436 326.393C167.363 327.233 168.994 328.423 170.327 329.961C171.66 331.479 172.675 333.273 173.372 335.344C174.069 337.395 174.418 339.62 174.418 342.02V342.727C174.418 345.126 174.069 347.352 173.372 349.402C172.675 351.453 171.66 353.248 170.327 354.786C168.994 356.303 167.374 357.493 165.466 358.354C163.559 359.195 161.396 359.615 158.976 359.615C156.535 359.615 154.351 359.195 152.423 358.354C150.516 357.493 148.896 356.303 147.563 354.786C146.23 353.248 145.215 351.453 144.518 349.402C143.82 347.352 143.472 345.126 143.472 342.727ZM150.885 342.02V342.727C150.885 344.224 151.039 345.639 151.347 346.972C151.654 348.305 152.136 349.474 152.792 350.479C153.449 351.484 154.29 352.273 155.315 352.848C156.34 353.422 157.561 353.709 158.976 353.709C160.35 353.709 161.539 353.422 162.544 352.848C163.569 352.273 164.41 351.484 165.066 350.479C165.723 349.474 166.205 348.305 166.512 346.972C166.84 345.639 167.004 344.224 167.004 342.727V342.02C167.004 340.543 166.84 339.148 166.512 337.836C166.205 336.503 165.712 335.324 165.036 334.298C164.379 333.273 163.539 332.473 162.513 331.899C161.508 331.304 160.309 331.007 158.914 331.007C157.52 331.007 156.31 331.304 155.284 331.899C154.279 332.473 153.449 333.273 152.792 334.298C152.136 335.324 151.654 336.503 151.347 337.836C151.039 339.148 150.885 340.543 150.885 342.02ZM188.107 311.75V359H180.663V311.75H188.107ZM208.779 325.716L194.29 341.773L186.354 349.895L184.416 343.619L190.414 336.206L199.827 325.716H208.779ZM201.427 359L190.629 343.373L195.305 338.174L210.009 359H201.427ZM227.543 359.615C225.083 359.615 222.857 359.215 220.868 358.416C218.899 357.595 217.218 356.457 215.823 355.001C214.449 353.545 213.393 351.833 212.655 349.864C211.917 347.895 211.547 345.772 211.547 343.496V342.266C211.547 339.661 211.927 337.303 212.686 335.19C213.444 333.078 214.5 331.273 215.854 329.776C217.208 328.259 218.807 327.1 220.653 326.3C222.499 325.5 224.498 325.101 226.651 325.101C229.03 325.101 231.112 325.5 232.896 326.3C234.68 327.1 236.157 328.228 237.326 329.684C238.515 331.12 239.397 332.832 239.971 334.821C240.566 336.811 240.863 339.005 240.863 341.404V344.573H215.146V339.251H233.542V338.667C233.501 337.333 233.234 336.083 232.742 334.914C232.271 333.745 231.542 332.801 230.558 332.083C229.574 331.366 228.261 331.007 226.621 331.007C225.39 331.007 224.293 331.273 223.329 331.807C222.386 332.319 221.596 333.068 220.96 334.052C220.325 335.037 219.833 336.226 219.484 337.621C219.156 338.995 218.992 340.543 218.992 342.266V343.496C218.992 344.952 219.187 346.306 219.576 347.557C219.986 348.787 220.581 349.864 221.36 350.787C222.14 351.709 223.083 352.438 224.19 352.971C225.298 353.483 226.559 353.74 227.974 353.74C229.758 353.74 231.348 353.381 232.742 352.663C234.137 351.945 235.347 350.93 236.372 349.618L240.279 353.401C239.561 354.447 238.628 355.452 237.479 356.416C236.331 357.359 234.926 358.128 233.265 358.723C231.625 359.318 229.717 359.615 227.543 359.615ZM254.583 311.75V359H247.139V311.75H254.583ZM270.148 332.114V371.797H262.735V325.716H269.564L270.148 332.114ZM291.835 342.05V342.696C291.835 345.116 291.548 347.362 290.974 349.433C290.42 351.484 289.59 353.278 288.482 354.816C287.396 356.334 286.052 357.513 284.453 358.354C282.853 359.195 281.007 359.615 278.916 359.615C276.844 359.615 275.029 359.236 273.471 358.477C271.933 357.698 270.63 356.601 269.564 355.186C268.498 353.771 267.636 352.109 266.98 350.202C266.344 348.274 265.893 346.162 265.626 343.865V341.374C265.893 338.933 266.344 336.718 266.98 334.729C267.636 332.74 268.498 331.027 269.564 329.592C270.63 328.156 271.933 327.049 273.471 326.27C275.009 325.49 276.803 325.101 278.854 325.101C280.946 325.101 282.802 325.511 284.422 326.331C286.042 327.131 287.406 328.279 288.513 329.776C289.621 331.253 290.451 333.037 291.005 335.129C291.559 337.2 291.835 339.507 291.835 342.05ZM284.422 342.696V342.05C284.422 340.512 284.278 339.087 283.991 337.774C283.704 336.441 283.253 335.272 282.638 334.268C282.022 333.263 281.233 332.483 280.269 331.93C279.326 331.355 278.188 331.068 276.854 331.068C275.542 331.068 274.414 331.294 273.471 331.745C272.527 332.176 271.738 332.781 271.102 333.56C270.466 334.339 269.974 335.252 269.625 336.298C269.277 337.323 269.031 338.441 268.887 339.651V345.619C269.133 347.095 269.554 348.449 270.148 349.679C270.743 350.91 271.584 351.894 272.671 352.632C273.778 353.35 275.193 353.709 276.916 353.709C278.249 353.709 279.387 353.422 280.331 352.848C281.274 352.273 282.043 351.484 282.638 350.479C283.253 349.454 283.704 348.274 283.991 346.941C284.278 345.608 284.422 344.193 284.422 342.696ZM296.727 342.727V342.02C296.727 339.62 297.075 337.395 297.772 335.344C298.47 333.273 299.475 331.479 300.787 329.961C302.12 328.423 303.74 327.233 305.647 326.393C307.575 325.531 309.749 325.101 312.169 325.101C314.609 325.101 316.783 325.531 318.69 326.393C320.618 327.233 322.249 328.423 323.582 329.961C324.915 331.479 325.93 333.273 326.627 335.344C327.324 337.395 327.673 339.62 327.673 342.02V342.727C327.673 345.126 327.324 347.352 326.627 349.402C325.93 351.453 324.915 353.248 323.582 354.786C322.249 356.303 320.628 357.493 318.721 358.354C316.814 359.195 314.65 359.615 312.23 359.615C309.79 359.615 307.606 359.195 305.678 358.354C303.771 357.493 302.151 356.303 300.818 354.786C299.485 353.248 298.47 351.453 297.772 349.402C297.075 347.352 296.727 345.126 296.727 342.727ZM304.14 342.02V342.727C304.14 344.224 304.294 345.639 304.602 346.972C304.909 348.305 305.391 349.474 306.047 350.479C306.704 351.484 307.544 352.273 308.57 352.848C309.595 353.422 310.815 353.709 312.23 353.709C313.604 353.709 314.794 353.422 315.799 352.848C316.824 352.273 317.665 351.484 318.321 350.479C318.978 349.474 319.459 348.305 319.767 346.972C320.095 345.639 320.259 344.224 320.259 342.727V342.02C320.259 340.543 320.095 339.148 319.767 337.836C319.459 336.503 318.967 335.324 318.291 334.298C317.634 333.273 316.793 332.473 315.768 331.899C314.763 331.304 313.563 331.007 312.169 331.007C310.774 331.007 309.564 331.304 308.539 331.899C307.534 332.473 306.704 333.273 306.047 334.298C305.391 335.324 304.909 336.503 304.602 337.836C304.294 339.148 304.14 340.543 304.14 342.02ZM341.823 325.716V359H334.379V325.716H341.823ZM333.887 316.979C333.887 315.852 334.256 314.918 334.994 314.18C335.753 313.421 336.799 313.042 338.132 313.042C339.444 313.042 340.48 313.421 341.239 314.18C341.998 314.918 342.377 315.852 342.377 316.979C342.377 318.087 341.998 319.01 341.239 319.748C340.48 320.486 339.444 320.855 338.132 320.855C336.799 320.855 335.753 320.486 334.994 319.748C334.256 319.01 333.887 318.087 333.887 316.979ZM357.296 332.822V359H349.883V325.716H356.866L357.296 332.822ZM355.974 341.127L353.574 341.097C353.595 338.738 353.923 336.575 354.559 334.606C355.215 332.637 356.117 330.945 357.266 329.53C358.435 328.115 359.829 327.028 361.449 326.27C363.069 325.49 364.874 325.101 366.863 325.101C368.463 325.101 369.909 325.326 371.201 325.777C372.513 326.208 373.631 326.916 374.554 327.9C375.497 328.884 376.215 330.166 376.707 331.745C377.199 333.304 377.445 335.221 377.445 337.498V359H370.001V337.467C370.001 335.867 369.765 334.606 369.293 333.683C368.842 332.74 368.176 332.073 367.294 331.684C366.433 331.273 365.356 331.068 364.064 331.068C362.792 331.068 361.654 331.335 360.649 331.868C359.645 332.401 358.793 333.129 358.096 334.052C357.419 334.975 356.896 336.042 356.527 337.251C356.158 338.461 355.974 339.753 355.974 341.127ZM399.686 359.615C397.225 359.615 395 359.215 393.011 358.416C391.042 357.595 389.36 356.457 387.966 355.001C386.592 353.545 385.536 351.833 384.797 349.864C384.059 347.895 383.69 345.772 383.69 343.496V342.266C383.69 339.661 384.069 337.303 384.828 335.19C385.587 333.078 386.643 331.273 387.997 329.776C389.35 328.259 390.95 327.1 392.795 326.3C394.641 325.5 396.641 325.101 398.794 325.101C401.173 325.101 403.254 325.5 405.039 326.3C406.823 327.1 408.299 328.228 409.468 329.684C410.658 331.12 411.54 332.832 412.114 334.821C412.708 336.811 413.006 339.005 413.006 341.404V344.573H387.289V339.251H405.685V338.667C405.644 337.333 405.377 336.083 404.885 334.914C404.413 333.745 403.685 332.801 402.701 332.083C401.716 331.366 400.404 331.007 398.763 331.007C397.533 331.007 396.436 331.273 395.472 331.807C394.528 332.319 393.739 333.068 393.103 334.052C392.467 335.037 391.975 336.226 391.626 337.621C391.298 338.995 391.134 340.543 391.134 342.266V343.496C391.134 344.952 391.329 346.306 391.719 347.557C392.129 348.787 392.724 349.864 393.503 350.787C394.282 351.709 395.226 352.438 396.333 352.971C397.44 353.483 398.702 353.74 400.117 353.74C401.901 353.74 403.49 353.381 404.885 352.663C406.279 351.945 407.489 350.93 408.515 349.618L412.421 353.401C411.704 354.447 410.771 355.452 409.622 356.416C408.474 357.359 407.069 358.128 405.408 358.723C403.767 359.318 401.86 359.615 399.686 359.615ZM426.141 332.822V359H418.728V325.716H425.71L426.141 332.822ZM424.818 341.127L422.419 341.097C422.439 338.738 422.768 336.575 423.403 334.606C424.06 332.637 424.962 330.945 426.11 329.53C427.279 328.115 428.674 327.028 430.294 326.27C431.914 325.49 433.719 325.101 435.708 325.101C437.308 325.101 438.753 325.326 440.045 325.777C441.358 326.208 442.476 326.916 443.398 327.9C444.342 328.884 445.06 330.166 445.552 331.745C446.044 333.304 446.29 335.221 446.29 337.498V359H438.846V337.467C438.846 335.867 438.61 334.606 438.138 333.683C437.687 332.74 437.021 332.073 436.139 331.684C435.277 331.273 434.201 331.068 432.909 331.068C431.637 331.068 430.499 331.335 429.494 331.868C428.489 332.401 427.638 333.129 426.941 334.052C426.264 334.975 425.741 336.042 425.372 337.251C425.003 338.461 424.818 339.753 424.818 341.127Z" fill="white"/>
<path d="M100.544 403.707H91.7158L91.668 399.998H99.6831C101.007 399.998 102.163 399.775 103.152 399.328C104.141 398.882 104.907 398.243 105.449 397.414C106.007 396.569 106.287 395.564 106.287 394.399C106.287 393.123 106.039 392.087 105.545 391.289C105.066 390.476 104.325 389.885 103.32 389.519C102.331 389.136 101.071 388.944 99.5396 388.944H92.7446V420H88.127V385.164H99.5396C101.326 385.164 102.921 385.347 104.325 385.714C105.728 386.065 106.917 386.624 107.89 387.389C108.879 388.139 109.628 389.096 110.139 390.26C110.649 391.425 110.904 392.82 110.904 394.447C110.904 395.883 110.537 397.183 109.804 398.347C109.07 399.496 108.049 400.437 106.741 401.17C105.449 401.904 103.934 402.375 102.195 402.582L100.544 403.707ZM100.329 420H89.8975L92.5054 416.244H100.329C101.797 416.244 103.041 415.988 104.062 415.478C105.098 414.968 105.888 414.25 106.43 413.325C106.972 412.384 107.244 411.275 107.244 409.999C107.244 408.707 107.012 407.59 106.55 406.649C106.087 405.708 105.361 404.983 104.373 404.472C103.384 403.962 102.108 403.707 100.544 403.707H93.9648L94.0127 399.998H103.009L103.99 401.338C105.665 401.481 107.084 401.96 108.249 402.773C109.413 403.571 110.298 404.592 110.904 405.836C111.526 407.08 111.837 408.452 111.837 409.951C111.837 412.12 111.359 413.955 110.402 415.454C109.461 416.938 108.129 418.07 106.406 418.852C104.684 419.617 102.658 420 100.329 420ZM122.795 394.112V420H118.345V394.112H122.795ZM118.01 387.246C118.01 386.528 118.226 385.922 118.656 385.427C119.103 384.933 119.757 384.686 120.618 384.686C121.464 384.686 122.11 384.933 122.556 385.427C123.019 385.922 123.25 386.528 123.25 387.246C123.25 387.931 123.019 388.522 122.556 389.016C122.11 389.495 121.464 389.734 120.618 389.734C119.757 389.734 119.103 389.495 118.656 389.016C118.226 388.522 118.01 387.931 118.01 387.246ZM144.975 413.133C144.975 412.495 144.831 411.905 144.544 411.363C144.273 410.805 143.707 410.302 142.845 409.855C142 409.393 140.724 408.994 139.017 408.659C137.582 408.356 136.282 407.997 135.117 407.583C133.969 407.168 132.988 406.665 132.174 406.075C131.377 405.485 130.763 404.791 130.332 403.994C129.901 403.196 129.686 402.263 129.686 401.194C129.686 400.174 129.909 399.208 130.356 398.299C130.819 397.39 131.465 396.585 132.294 395.883C133.139 395.181 134.152 394.631 135.333 394.232C136.513 393.833 137.829 393.634 139.28 393.634C141.354 393.634 143.124 394.001 144.592 394.734C146.059 395.468 147.184 396.449 147.965 397.677C148.747 398.889 149.138 400.237 149.138 401.721H144.711C144.711 401.003 144.496 400.309 144.065 399.639C143.651 398.953 143.037 398.387 142.223 397.94C141.426 397.494 140.445 397.271 139.28 397.271C138.052 397.271 137.055 397.462 136.29 397.845C135.54 398.212 134.99 398.682 134.639 399.256C134.304 399.831 134.136 400.437 134.136 401.075C134.136 401.553 134.216 401.984 134.375 402.367C134.551 402.734 134.854 403.076 135.285 403.396C135.715 403.699 136.321 403.986 137.103 404.257C137.885 404.528 138.882 404.799 140.094 405.07C142.215 405.549 143.962 406.123 145.333 406.793C146.705 407.463 147.726 408.284 148.396 409.257C149.066 410.23 149.401 411.411 149.401 412.798C149.401 413.931 149.162 414.968 148.683 415.909C148.221 416.85 147.543 417.663 146.649 418.349C145.772 419.019 144.719 419.545 143.491 419.928C142.279 420.295 140.915 420.479 139.4 420.479C137.119 420.479 135.189 420.072 133.61 419.258C132.031 418.445 130.834 417.392 130.021 416.1C129.208 414.808 128.801 413.444 128.801 412.009H133.251C133.315 413.221 133.666 414.186 134.304 414.904C134.942 415.606 135.723 416.108 136.648 416.411C137.574 416.698 138.491 416.842 139.4 416.842C140.612 416.842 141.625 416.682 142.438 416.363C143.268 416.044 143.898 415.606 144.329 415.047C144.759 414.489 144.975 413.851 144.975 413.133ZM159.641 399.639V420H155.215V394.112H159.402L159.641 399.639ZM158.588 406.075L156.746 406.003C156.762 404.233 157.025 402.598 157.536 401.099C158.046 399.583 158.764 398.267 159.689 397.151C160.614 396.034 161.715 395.173 162.991 394.567C164.283 393.945 165.71 393.634 167.273 393.634C168.549 393.634 169.698 393.809 170.719 394.16C171.74 394.495 172.609 395.037 173.327 395.787C174.06 396.537 174.619 397.51 175.001 398.706C175.384 399.886 175.576 401.33 175.576 403.037V420H171.125V402.989C171.125 401.633 170.926 400.548 170.527 399.735C170.129 398.905 169.546 398.307 168.781 397.94C168.015 397.558 167.074 397.366 165.958 397.366C164.857 397.366 163.852 397.597 162.943 398.06C162.05 398.523 161.276 399.161 160.622 399.974C159.984 400.788 159.482 401.721 159.115 402.773C158.764 403.81 158.588 404.911 158.588 406.075ZM181.126 407.343V406.793C181.126 404.927 181.398 403.196 181.94 401.601C182.482 399.99 183.264 398.594 184.285 397.414C185.306 396.218 186.542 395.293 187.993 394.639C189.445 393.969 191.072 393.634 192.874 393.634C194.692 393.634 196.327 393.969 197.779 394.639C199.246 395.293 200.49 396.218 201.511 397.414C202.548 398.594 203.338 399.99 203.88 401.601C204.422 403.196 204.693 404.927 204.693 406.793V407.343C204.693 409.209 204.422 410.94 203.88 412.535C203.338 414.13 202.548 415.526 201.511 416.722C200.49 417.903 199.254 418.828 197.803 419.498C196.367 420.152 194.74 420.479 192.922 420.479C191.104 420.479 189.469 420.152 188.017 419.498C186.566 418.828 185.321 417.903 184.285 416.722C183.264 415.526 182.482 414.13 181.94 412.535C181.398 410.94 181.126 409.209 181.126 407.343ZM185.553 406.793V407.343C185.553 408.635 185.704 409.855 186.007 411.004C186.31 412.136 186.765 413.141 187.371 414.019C187.993 414.896 188.767 415.59 189.692 416.1C190.617 416.595 191.694 416.842 192.922 416.842C194.134 416.842 195.195 416.595 196.104 416.1C197.029 415.59 197.795 414.896 198.401 414.019C199.007 413.141 199.462 412.136 199.765 411.004C200.084 409.855 200.243 408.635 200.243 407.343V406.793C200.243 405.517 200.084 404.313 199.765 403.18C199.462 402.032 198.999 401.019 198.377 400.142C197.771 399.248 197.005 398.547 196.08 398.036C195.171 397.526 194.102 397.271 192.874 397.271C191.662 397.271 190.593 397.526 189.668 398.036C188.759 398.547 187.993 399.248 187.371 400.142C186.765 401.019 186.31 402.032 186.007 403.18C185.704 404.313 185.553 405.517 185.553 406.793ZM226.562 414.976V383.25H231.012V420H226.944L226.562 414.976ZM209.144 407.343V406.841C209.144 404.863 209.383 403.069 209.861 401.458C210.356 399.831 211.05 398.435 211.943 397.271C212.852 396.106 213.929 395.213 215.173 394.591C216.433 393.953 217.837 393.634 219.384 393.634C221.011 393.634 222.43 393.921 223.643 394.495C224.871 395.053 225.908 395.875 226.753 396.959C227.614 398.028 228.292 399.32 228.787 400.835C229.281 402.351 229.624 404.065 229.815 405.979V408.181C229.64 410.079 229.297 411.785 228.787 413.301C228.292 414.816 227.614 416.108 226.753 417.177C225.908 418.245 224.871 419.067 223.643 419.641C222.414 420.199 220.979 420.479 219.336 420.479C217.821 420.479 216.433 420.152 215.173 419.498C213.929 418.844 212.852 417.926 211.943 416.746C211.05 415.566 210.356 414.178 209.861 412.583C209.383 410.972 209.144 409.225 209.144 407.343ZM213.594 406.841V407.343C213.594 408.635 213.721 409.847 213.977 410.98C214.248 412.112 214.662 413.109 215.221 413.971C215.779 414.832 216.489 415.51 217.35 416.004C218.211 416.483 219.24 416.722 220.437 416.722C221.904 416.722 223.108 416.411 224.049 415.789C225.006 415.167 225.772 414.346 226.346 413.325C226.92 412.304 227.367 411.195 227.686 409.999V404.233C227.495 403.356 227.215 402.51 226.849 401.697C226.498 400.867 226.035 400.134 225.461 399.496C224.903 398.842 224.209 398.323 223.379 397.94C222.566 397.558 221.601 397.366 220.484 397.366C219.272 397.366 218.227 397.621 217.35 398.132C216.489 398.626 215.779 399.312 215.221 400.189C214.662 401.051 214.248 402.056 213.977 403.204C213.721 404.337 213.594 405.549 213.594 406.841ZM248.645 420.479C246.843 420.479 245.208 420.175 243.74 419.569C242.289 418.947 241.037 418.078 239.984 416.961C238.947 415.845 238.15 414.521 237.591 412.99C237.033 411.458 236.754 409.784 236.754 407.965V406.96C236.754 404.855 237.065 402.981 237.687 401.338C238.309 399.679 239.154 398.275 240.223 397.127C241.292 395.979 242.504 395.109 243.86 394.519C245.216 393.929 246.619 393.634 248.071 393.634C249.921 393.634 251.516 393.953 252.856 394.591C254.212 395.229 255.32 396.122 256.182 397.271C257.043 398.403 257.681 399.743 258.096 401.29C258.51 402.821 258.718 404.496 258.718 406.314V408.3H239.386V404.688H254.292V404.353C254.228 403.204 253.988 402.088 253.574 401.003C253.175 399.918 252.537 399.025 251.66 398.323C250.782 397.621 249.586 397.271 248.071 397.271C247.066 397.271 246.141 397.486 245.295 397.917C244.45 398.331 243.724 398.953 243.118 399.783C242.512 400.612 242.042 401.625 241.707 402.821C241.372 404.018 241.204 405.397 241.204 406.96V407.965C241.204 409.194 241.372 410.35 241.707 411.435C242.057 412.503 242.56 413.444 243.214 414.258C243.884 415.071 244.689 415.709 245.63 416.172C246.587 416.634 247.672 416.866 248.884 416.866C250.447 416.866 251.771 416.547 252.856 415.909C253.941 415.271 254.89 414.417 255.703 413.349L258.383 415.478C257.825 416.323 257.115 417.129 256.253 417.895C255.392 418.66 254.331 419.282 253.071 419.761C251.827 420.239 250.352 420.479 248.645 420.479ZM298.387 416.363V420H275.585V416.818L286.998 404.113C288.402 402.55 289.486 401.226 290.252 400.142C291.034 399.041 291.576 398.06 291.879 397.199C292.198 396.321 292.357 395.428 292.357 394.519C292.357 393.371 292.118 392.334 291.64 391.409C291.177 390.468 290.491 389.718 289.582 389.16C288.673 388.601 287.572 388.322 286.28 388.322C284.733 388.322 283.441 388.625 282.404 389.231C281.383 389.822 280.618 390.651 280.107 391.72C279.597 392.788 279.342 394.017 279.342 395.404H274.916C274.916 393.442 275.346 391.648 276.208 390.021C277.069 388.394 278.345 387.102 280.036 386.145C281.726 385.172 283.808 384.686 286.28 384.686C288.481 384.686 290.364 385.076 291.927 385.858C293.49 386.624 294.686 387.708 295.516 389.112C296.361 390.5 296.784 392.126 296.784 393.993C296.784 395.014 296.608 396.05 296.257 397.103C295.922 398.14 295.452 399.177 294.846 400.213C294.256 401.25 293.562 402.271 292.764 403.276C291.983 404.281 291.145 405.27 290.252 406.243L280.921 416.363H298.387ZM324.992 399.807V405.118C324.992 407.973 324.737 410.382 324.227 412.344C323.716 414.306 322.982 415.885 322.025 417.081C321.068 418.277 319.912 419.147 318.556 419.689C317.216 420.215 315.701 420.479 314.01 420.479C312.67 420.479 311.434 420.311 310.302 419.976C309.169 419.641 308.148 419.107 307.239 418.373C306.346 417.623 305.58 416.65 304.942 415.454C304.304 414.258 303.818 412.806 303.483 411.1C303.148 409.393 302.98 407.399 302.98 405.118V399.807C302.98 396.951 303.236 394.559 303.746 392.629C304.272 390.699 305.014 389.152 305.971 387.987C306.928 386.807 308.077 385.962 309.417 385.451C310.772 384.941 312.288 384.686 313.962 384.686C315.318 384.686 316.562 384.853 317.695 385.188C318.843 385.507 319.864 386.025 320.757 386.743C321.651 387.445 322.408 388.386 323.03 389.566C323.668 390.731 324.155 392.158 324.49 393.849C324.825 395.54 324.992 397.526 324.992 399.807ZM320.542 405.836V399.065C320.542 397.502 320.446 396.13 320.255 394.95C320.079 393.753 319.816 392.733 319.465 391.887C319.114 391.042 318.668 390.356 318.125 389.83C317.599 389.303 316.985 388.92 316.283 388.681C315.597 388.426 314.824 388.298 313.962 388.298C312.91 388.298 311.977 388.498 311.163 388.896C310.35 389.279 309.664 389.893 309.105 390.739C308.563 391.584 308.148 392.693 307.861 394.064C307.574 395.436 307.431 397.103 307.431 399.065V405.836C307.431 407.399 307.518 408.779 307.694 409.975C307.885 411.171 308.164 412.208 308.531 413.085C308.898 413.947 309.345 414.657 309.871 415.215C310.397 415.773 311.004 416.188 311.689 416.459C312.391 416.714 313.165 416.842 314.01 416.842C315.095 416.842 316.044 416.634 316.857 416.22C317.671 415.805 318.349 415.159 318.891 414.282C319.449 413.389 319.864 412.248 320.135 410.86C320.406 409.457 320.542 407.782 320.542 405.836ZM353.512 416.363V420H330.71V416.818L342.123 404.113C343.527 402.55 344.611 401.226 345.377 400.142C346.159 399.041 346.701 398.06 347.004 397.199C347.323 396.321 347.482 395.428 347.482 394.519C347.482 393.371 347.243 392.334 346.765 391.409C346.302 390.468 345.616 389.718 344.707 389.16C343.798 388.601 342.697 388.322 341.405 388.322C339.858 388.322 338.566 388.625 337.529 389.231C336.508 389.822 335.743 390.651 335.232 391.72C334.722 392.788 334.467 394.017 334.467 395.404H330.041C330.041 393.442 330.471 391.648 331.333 390.021C332.194 388.394 333.47 387.102 335.161 386.145C336.851 385.172 338.933 384.686 341.405 384.686C343.606 384.686 345.489 385.076 347.052 385.858C348.615 386.624 349.811 387.708 350.641 389.112C351.486 390.5 351.909 392.126 351.909 393.993C351.909 395.014 351.733 396.05 351.382 397.103C351.047 398.14 350.577 399.177 349.971 400.213C349.381 401.25 348.687 402.271 347.889 403.276C347.108 404.281 346.27 405.27 345.377 406.243L336.046 416.363H353.512ZM381.074 416.363V420H358.273V416.818L369.686 404.113C371.089 402.55 372.174 401.226 372.939 400.142C373.721 399.041 374.263 398.06 374.566 397.199C374.885 396.321 375.045 395.428 375.045 394.519C375.045 393.371 374.806 392.334 374.327 391.409C373.865 390.468 373.179 389.718 372.27 389.16C371.36 388.601 370.26 388.322 368.968 388.322C367.421 388.322 366.129 388.625 365.092 389.231C364.071 389.822 363.305 390.651 362.795 391.72C362.285 392.788 362.029 394.017 362.029 395.404H357.603C357.603 393.442 358.034 391.648 358.895 390.021C359.756 388.394 361.032 387.102 362.723 386.145C364.414 385.172 366.495 384.686 368.968 384.686C371.169 384.686 373.051 385.076 374.614 385.858C376.177 386.624 377.374 387.708 378.203 389.112C379.049 390.5 379.471 392.126 379.471 393.993C379.471 395.014 379.296 396.05 378.945 397.103C378.61 398.14 378.139 399.177 377.533 400.213C376.943 401.25 376.249 402.271 375.452 403.276C374.67 404.281 373.833 405.27 372.939 406.243L363.608 416.363H381.074Z" fill="white"/>
<path d="M74.8931 393.532H76.9604C76.9604 395.014 76.5356 396.128 75.686 396.874C74.8459 397.61 73.7036 397.979 72.2593 397.979C71.2586 397.979 70.3901 397.747 69.6538 397.285C68.9269 396.822 68.3605 396.18 67.9546 395.359C67.5581 394.538 67.3599 393.584 67.3599 392.499V390.87C67.3599 389.785 67.5581 388.831 67.9546 388.01C68.3605 387.188 68.9269 386.547 69.6538 386.084C70.3901 385.621 71.2586 385.39 72.2593 385.39C73.7036 385.39 74.8506 385.758 75.7002 386.495C76.5498 387.231 76.9746 388.34 76.9746 389.822H74.9072C74.9072 388.888 74.6807 388.217 74.2275 387.812C73.7839 387.406 73.1278 387.203 72.2593 387.203C71.6362 387.203 71.1123 387.358 70.6875 387.67C70.2627 387.981 69.9417 388.416 69.7246 388.973C69.5075 389.52 69.3989 390.148 69.3989 390.856V392.499C69.3989 393.216 69.5075 393.853 69.7246 394.41C69.9417 394.958 70.2627 395.387 70.6875 395.699C71.1123 396.01 71.6362 396.166 72.2593 396.166C73.1278 396.166 73.7839 395.963 74.2275 395.557C74.6712 395.151 74.8931 394.476 74.8931 393.532ZM64.0322 391.677C64.0322 392.933 64.2493 394.103 64.6836 395.189C65.1178 396.275 65.722 397.223 66.4961 398.035C67.2702 398.847 68.167 399.479 69.1865 399.933C70.2061 400.386 71.2964 400.612 72.4575 400.612C73.6187 400.612 74.7043 400.386 75.7144 399.933C76.7339 399.479 77.626 398.847 78.3906 398.035C79.1647 397.223 79.7689 396.275 80.2031 395.189C80.6374 394.103 80.8545 392.933 80.8545 391.677C80.8545 390.412 80.6374 389.242 80.2031 388.166C79.7689 387.089 79.1647 386.15 78.3906 385.348C77.626 384.536 76.7339 383.908 75.7144 383.464C74.7043 383.011 73.6187 382.785 72.4575 382.785C71.2964 382.785 70.2061 383.011 69.1865 383.464C68.167 383.908 67.2702 384.536 66.4961 385.348C65.722 386.15 65.1178 387.089 64.6836 388.166C64.2493 389.242 64.0322 390.412 64.0322 391.677ZM62.4038 391.677C62.4038 390.176 62.6634 388.784 63.1826 387.5C63.7018 386.216 64.424 385.097 65.3491 384.144C66.2743 383.181 67.341 382.435 68.5493 381.907C69.7671 381.369 71.0698 381.1 72.4575 381.1C73.8452 381.1 75.1432 381.369 76.3516 381.907C77.5693 382.435 78.6361 383.181 79.5518 384.144C80.4769 385.097 81.1991 386.216 81.7183 387.5C82.2375 388.784 82.4971 390.176 82.4971 391.677C82.4971 393.178 82.2375 394.571 81.7183 395.854C81.1991 397.138 80.4769 398.266 79.5518 399.239C78.6361 400.202 77.5693 400.952 76.3516 401.49C75.1432 402.028 73.8452 402.297 72.4575 402.297C71.0698 402.297 69.7671 402.028 68.5493 401.49C67.341 400.952 66.2743 400.202 65.3491 399.239C64.424 398.266 63.7018 397.138 63.1826 395.854C62.6634 394.571 62.4038 393.178 62.4038 391.677Z" fill="white"/>
<path d="M347.628 42.4185H336.451L336.349 35.856H346.756C348.192 35.8218 349.525 35.5654 350.755 35.0869C352.02 34.6084 353.028 33.9248 353.78 33.0361C354.566 32.1133 354.959 30.9854 354.959 29.6523C354.959 27.9434 354.669 26.5933 354.088 25.6021C353.507 24.6108 352.533 23.8931 351.166 23.4487C349.833 23.0044 348.004 22.7822 345.68 22.7822H338.707V59.7476H331.478V16.271H345.68C349.063 16.271 351.986 16.7495 354.447 17.7065C356.908 18.6636 358.805 20.1162 360.138 22.0645C361.471 23.9785 362.137 26.4053 362.137 29.3447C362.137 31.1904 361.71 32.8481 360.855 34.3179C360.001 35.7876 358.753 37.0522 357.113 38.1118C355.472 39.1714 353.473 40.0259 351.114 40.6753C351.012 40.6753 350.892 40.7949 350.755 41.0342C350.653 41.2393 350.55 41.3418 350.448 41.3418C349.867 41.6836 349.491 41.9399 349.32 42.1108C349.183 42.2476 349.029 42.333 348.858 42.3672C348.722 42.4014 348.312 42.4185 347.628 42.4185ZM347.115 42.4185L348.141 37.8042C353.438 37.8042 357.044 38.9321 358.958 41.188C360.907 43.4097 361.881 46.2295 361.881 49.6475V52.416C361.881 53.6807 361.949 54.894 362.086 56.0562C362.223 57.1841 362.445 58.1411 362.752 58.9272V59.7476H355.318C354.977 58.8589 354.771 57.5942 354.703 55.9536C354.669 54.313 354.652 53.1167 354.652 52.3647V49.6987C354.652 47.2036 354.071 45.375 352.909 44.2129C351.781 43.0166 349.85 42.4185 347.115 42.4185ZM315.79 38.6245C315.79 43.1704 316.576 47.4087 318.148 51.3394C319.72 55.27 321.908 58.7051 324.71 61.6445C327.513 64.584 330.76 66.874 334.452 68.5146C338.143 70.1553 342.091 70.9756 346.295 70.9756C350.499 70.9756 354.43 70.1553 358.087 68.5146C361.778 66.874 365.008 64.584 367.777 61.6445C370.58 58.7051 372.767 55.27 374.339 51.3394C375.912 47.4087 376.698 43.1704 376.698 38.6245C376.698 34.0444 375.912 29.8062 374.339 25.9097C372.767 22.0132 370.58 18.6123 367.777 15.707C365.008 12.7676 361.778 10.4946 358.087 8.88818C354.43 7.24756 350.499 6.42725 346.295 6.42725C342.091 6.42725 338.143 7.24756 334.452 8.88818C330.76 10.4946 327.513 12.7676 324.71 15.707C321.908 18.6123 319.72 22.0132 318.148 25.9097C316.576 29.8062 315.79 34.0444 315.79 38.6245ZM309.894 38.6245C309.894 33.1899 310.833 28.1484 312.713 23.5C314.593 18.8516 317.208 14.8013 320.558 11.3491C323.907 7.86279 327.77 5.1626 332.145 3.24854C336.554 1.30029 341.271 0.326172 346.295 0.326172C351.319 0.326172 356.019 1.30029 360.394 3.24854C364.803 5.1626 368.666 7.86279 371.981 11.3491C375.331 14.8013 377.945 18.8516 379.825 23.5C381.705 28.1484 382.645 33.1899 382.645 38.6245C382.645 44.0591 381.705 49.1006 379.825 53.749C377.945 58.3975 375.331 62.4819 371.981 66.0024C368.666 69.4888 364.803 72.2061 360.394 74.1543C356.019 76.1025 351.319 77.0767 346.295 77.0767C341.271 77.0767 336.554 76.1025 332.145 74.1543C327.77 72.2061 323.907 69.4888 320.558 66.0024C317.208 62.4819 314.593 58.3975 312.713 53.749C310.833 49.1006 309.894 44.0591 309.894 38.6245Z" fill="white"/>
<path fill-rule="evenodd" clip-rule="evenodd" d="M177 39H264.5L346 270H256L248 239H193L185 270H95L177 39ZM220.5 114L204 184H237L220.5 114Z" fill="#FFCB08"/>
</svg>
