<svg width="400" height="141" viewBox="0 0 400 141" fill="none" xmlns="http://www.w3.org/2000/svg">
<path d="M104.945 60.6848H91.4592C90.8853 60.6848 90.5984 60.3992 90.5984 59.8279V35.3051C90.5984 34.7338 90.8853 34.4482 91.4592 34.4482H94.9435C95.5174 34.4482 95.8043 34.7338 95.8043 35.3051V55.7068C95.8043 56.006 95.9683 56.1556 96.2962 56.1556H104.945C105.492 56.1556 105.765 56.4549 105.765 57.0533V59.8279C105.765 60.3992 105.492 60.6848 104.945 60.6848Z" fill="white"/>
<path d="M113.891 60.6848H112.907C110.748 60.6848 109.081 60.1136 107.906 58.9711C106.731 57.8286 106.143 56.1828 106.143 54.0338V46.526C106.143 44.3771 106.731 42.7313 107.906 41.5888C109.081 40.4463 110.748 39.8751 112.907 39.8751H122.376C122.977 39.8751 123.278 40.1607 123.278 40.7319V59.8279C123.278 60.3992 122.977 60.6848 122.376 60.6848H118.933C118.359 60.6848 118.072 60.3992 118.072 59.8279V58.4814H117.908C117.607 59.2159 117.074 59.7735 116.309 60.1544C115.544 60.508 114.738 60.6848 113.891 60.6848ZM118.072 53.0954V44.8123C118.072 44.513 117.908 44.3634 117.58 44.3634H113.727C112.852 44.3634 112.237 44.5538 111.882 44.9347C111.527 45.2883 111.349 45.9003 111.349 46.7708V53.789C111.349 54.6595 111.527 55.2851 111.882 55.666C112.237 56.0196 112.852 56.1964 113.727 56.1964H115.244C117.129 56.1964 118.072 55.1627 118.072 53.0954Z" fill="white"/>
<path d="M130.065 60.6848H126.581C126.007 60.6848 125.72 60.3992 125.72 59.8279V32.8569C125.72 32.2856 126.007 32 126.581 32H130.065C130.639 32 130.926 32.2856 130.926 32.8569V42.0784H131.09C131.691 40.6095 133.03 39.8751 135.107 39.8751H136.419C140.709 39.8751 142.854 42.0921 142.854 46.526V59.8279C142.854 60.3992 142.554 60.6848 141.952 60.6848H138.509C137.935 60.6848 137.648 60.3992 137.648 59.8279V46.7708C137.648 45.9003 137.457 45.2883 137.074 44.9347C136.719 44.5538 136.104 44.3634 135.23 44.3634H133.754C131.868 44.3634 130.926 45.3971 130.926 47.4645V59.8279C130.926 60.3992 130.639 60.6848 130.065 60.6848Z" fill="white"/>
<path d="M152.793 60.6848H151.112C149.008 60.6848 147.409 60.1136 146.316 58.9711C145.25 57.8286 144.717 56.1828 144.717 54.0338V46.526C144.717 44.3771 145.25 42.7313 146.316 41.5888C147.409 40.4463 149.008 39.8751 151.112 39.8751H152.793C153.64 39.8751 154.446 40.0655 155.211 40.4463C155.976 40.7999 156.509 41.344 156.81 42.0784H156.974V32.8569C156.974 32.2856 157.261 32 157.835 32H161.319C161.893 32 162.18 32.2856 162.18 32.8569V59.8279C162.18 60.3992 161.893 60.6848 161.319 60.6848H157.835C157.261 60.6848 156.974 60.3992 156.974 59.8279V58.4814H156.81C156.509 59.2159 155.976 59.7735 155.211 60.1544C154.446 60.508 153.64 60.6848 152.793 60.6848ZM156.974 53.0954V47.4645C156.974 45.3971 156.031 44.3634 154.145 44.3634H152.301C151.426 44.3634 150.811 44.5538 150.456 44.9347C150.101 45.2883 149.923 45.9003 149.923 46.7708V53.789C149.923 54.6595 150.101 55.2851 150.456 55.666C150.811 56.0196 151.426 56.1964 152.301 56.1964H154.145C156.031 56.1964 156.974 55.1627 156.974 53.0954Z" fill="white"/>
<path d="M180.067 60.6848H171.008C168.849 60.6848 167.182 60.1136 166.007 58.9711C164.832 57.8286 164.244 56.1828 164.244 54.0338V46.526C164.244 44.3771 164.832 42.7313 166.007 41.5888C167.182 40.4463 168.849 39.8751 171.008 39.8751H174.246C176.405 39.8751 178.072 40.4463 179.247 41.5888C180.423 42.7313 181.01 44.3771 181.01 46.526V51.7081C181.01 52.2793 180.723 52.5649 180.149 52.5649H169.86C169.532 52.5649 169.368 52.7145 169.368 53.0138V53.9114C169.368 54.7547 169.546 55.3667 169.901 55.7476C170.284 56.1012 170.912 56.278 171.786 56.278H180.067C180.641 56.278 180.928 56.5773 180.928 57.1757V59.8687C180.928 60.168 180.86 60.3856 180.723 60.5216C180.614 60.6304 180.395 60.6848 180.067 60.6848ZM169.86 49.0966H175.435C175.736 49.0966 175.886 48.947 175.886 48.6478V46.6892C175.886 45.8187 175.708 45.2067 175.353 44.8531C174.998 44.4995 174.383 44.3226 173.508 44.3226H171.786C170.912 44.3226 170.298 44.4995 169.942 44.8531C169.587 45.2067 169.409 45.8187 169.409 46.6892V48.6478C169.409 48.947 169.56 49.0966 169.86 49.0966Z" fill="white"/>
<path d="M187.205 60.6848H183.721C183.147 60.6848 182.86 60.3992 182.86 59.8279V40.7319C182.86 40.1607 183.147 39.8751 183.721 39.8751H187.205C187.779 39.8751 188.066 40.1607 188.066 40.7319V42.0784H188.23C188.831 40.6095 190.171 39.8751 192.247 39.8751H193.559C197.849 39.8751 199.995 42.0921 199.995 46.526V59.8279C199.995 60.3992 199.694 60.6848 199.093 60.6848H195.65C195.076 60.6848 194.789 60.3992 194.789 59.8279V46.7708C194.789 45.9003 194.598 45.2883 194.215 44.9347C193.86 44.5538 193.245 44.3634 192.37 44.3634H190.895C189.009 44.3634 188.066 45.3971 188.066 47.4645V59.8279C188.066 60.3992 187.779 60.6848 187.205 60.6848Z" fill="white"/>
<path d="M97.5485 108.069H91.9597C91.0387 108.069 90.5785 107.611 90.5785 106.694V67.3254C90.5785 66.4083 91.0387 65.9498 91.9597 65.9498H97.5485C98.4694 65.9498 98.9296 66.4083 98.9296 67.3254V85.9943H99.0612C99.4116 84.9462 100.091 83.5924 101.1 81.933L111.094 67.3254C111.664 66.4083 112.519 65.9498 113.659 65.9498H120.103C120.585 65.9498 120.87 66.1026 120.958 66.4083C121.09 66.6703 120.98 67.0197 120.629 67.4564L108.136 84.6842L122.075 106.432C122.383 106.956 122.426 107.371 122.207 107.677C122.032 107.938 121.637 108.069 121.023 108.069H116.223C114.689 108.069 113.659 107.611 113.133 106.694L103.072 90.6451L98.9296 95.4925V106.694C98.9296 107.611 98.4694 108.069 97.5485 108.069Z" fill="white"/>
<path d="M146.183 108.069H124.681C123.76 108.069 123.3 107.611 123.3 106.694V67.3254C123.3 66.4083 123.76 65.9498 124.681 65.9498H146.183C147.06 65.9498 147.498 66.4083 147.498 67.3254V71.7797C147.498 72.6967 147.06 73.1553 146.183 73.1553H132.44C131.914 73.1553 131.651 73.3955 131.651 73.8758V82.3915C131.651 82.8719 131.914 83.1121 132.44 83.1121H143.684C144.605 83.1121 145.065 83.5706 145.065 84.4877V88.942C145.065 89.8591 144.605 90.3176 143.684 90.3176H132.44C131.914 90.3176 131.651 90.5578 131.651 91.0381V100.143C131.651 100.623 131.914 100.864 132.44 100.864H146.183C147.06 100.864 147.498 101.322 147.498 102.24V106.694C147.498 107.611 147.06 108.069 146.183 108.069Z" fill="white"/>
<path d="M149.11 97.3266V96.0165C149.11 95.0995 149.57 94.6409 150.491 94.6409H156.08C157.001 94.6409 157.461 95.0995 157.461 96.0165V96.5406C157.461 98.2003 157.79 99.3355 158.448 99.9469C159.105 100.558 160.311 100.864 162.064 100.864H165.154C166.864 100.864 168.048 100.537 168.705 99.8811C169.407 99.2263 169.757 98.0035 169.757 96.213V95.4269C169.757 94.1605 169.232 93.1998 168.179 92.5448C167.171 91.8461 165.9 91.4312 164.366 91.3001C162.831 91.1692 161.166 90.929 159.368 90.5796C157.615 90.1866 155.971 89.7062 154.436 89.1385C152.902 88.5272 151.609 87.3699 150.557 85.6668C149.548 83.9199 149.045 81.6928 149.045 78.9853V76.6926C149.045 73.2863 150.009 70.6443 151.938 68.7665C153.866 66.8886 156.541 65.9498 159.96 65.9498H166.536C169.999 65.9498 172.695 66.8886 174.623 68.7665C176.552 70.6443 177.517 73.2863 177.517 76.6926V77.9372C177.517 78.8542 177.057 79.3128 176.136 79.3128H170.547C169.626 79.3128 169.166 78.8542 169.166 77.9372V77.5441C169.166 75.841 168.837 74.6837 168.179 74.0723C167.522 73.461 166.316 73.1553 164.563 73.1553H161.999C160.201 73.1553 158.974 73.5047 158.316 74.2034C157.702 74.8584 157.396 76.1685 157.396 78.1337V79.3783C157.396 81.4308 159.193 82.6099 162.787 82.9156C166.514 83.2213 169.823 83.9636 172.717 85.1427C174.251 85.7977 175.522 86.9768 176.53 88.68C177.583 90.3394 178.108 92.4792 178.108 95.0995V97.3266C178.108 100.733 177.144 103.375 175.215 105.253C173.287 107.13 170.612 108.069 167.193 108.069H160.026C156.606 108.069 153.933 107.13 152.003 105.253C150.075 103.375 149.11 100.733 149.11 97.3266Z" fill="white"/>
<path d="M194.749 108.069H189.226C188.261 108.069 187.779 107.611 187.779 106.694V73.8758C187.779 73.3955 187.538 73.1553 187.056 73.1553H179.56C178.639 73.1553 178.179 72.6967 178.179 71.7797V67.3254C178.179 66.4083 178.639 65.9498 179.56 65.9498H204.415C205.336 65.9498 205.796 66.4083 205.796 67.3254V71.7797C205.796 72.6967 205.336 73.1553 204.415 73.1553H196.919C196.393 73.1553 196.13 73.3955 196.13 73.8758V106.694C196.13 107.611 195.669 108.069 194.749 108.069Z" fill="white"/>
<path d="M219.037 100.864H223.705C225.108 100.864 226.095 100.58 226.664 100.012C227.278 99.4007 227.585 98.3964 227.585 96.9991V77.0201C227.585 75.6227 227.278 74.6401 226.664 74.0723C226.095 73.461 225.108 73.1553 223.705 73.1553H219.037C217.634 73.1553 216.647 73.461 216.077 74.0723C215.507 74.6401 215.223 75.6227 215.223 77.0201V96.9991C215.223 98.3964 215.507 99.4007 216.077 100.012C216.647 100.58 217.634 100.864 219.037 100.864ZM225.086 108.069H217.722C214.259 108.069 211.584 107.153 209.699 105.318C207.814 103.484 206.872 100.842 206.872 97.3922V76.6271C206.872 73.1772 207.814 70.5351 209.699 68.701C211.584 66.8669 214.259 65.9498 217.722 65.9498H225.086C228.549 65.9498 231.223 66.8669 233.109 68.701C234.994 70.5351 235.936 73.1772 235.936 76.6271V97.3922C235.936 100.842 234.994 103.484 233.109 105.318C231.223 107.153 228.549 108.069 225.086 108.069Z" fill="white"/>
<path d="M247.624 101.126H254.989C256.436 101.126 257.466 100.842 258.08 100.275C258.737 99.6633 259.066 98.6807 259.066 97.3266V93.5274C259.066 92.1736 258.737 91.2128 258.08 90.6451C257.422 90.0774 256.348 89.7936 254.858 89.7936H247.624C247.143 89.7936 246.901 90.0337 246.901 90.5141V100.406C246.901 100.885 247.143 101.126 247.624 101.126ZM247.624 83.0465H254.332C255.735 83.0465 256.765 82.7627 257.422 82.195C258.08 81.5836 258.409 80.601 258.409 79.2473V76.6926C258.409 75.3388 258.08 74.378 257.422 73.8103C256.809 73.199 255.8 72.8933 254.397 72.8933H247.624C247.143 72.8933 246.901 73.1335 246.901 73.6138V82.326C246.901 82.8064 247.143 83.0465 247.624 83.0465ZM238.55 106.694V67.3254C238.55 66.4083 239.011 65.9498 239.931 65.9498H255.712C259.176 65.9498 261.85 66.8669 263.735 68.701C265.62 70.5351 266.563 73.1553 266.563 76.5616V79.2473C266.563 82.9592 264.831 85.3611 261.368 86.4528C263.121 86.7148 264.524 87.4354 265.576 88.6145C266.628 89.7499 267.154 91.3875 267.154 93.5274V97.4576C267.154 100.864 266.212 103.484 264.327 105.318C262.442 107.153 259.79 108.069 256.37 108.069H239.931C239.011 108.069 238.55 107.611 238.55 106.694Z" fill="white"/>
<path d="M292.647 108.069H271.144C270.224 108.069 269.764 107.611 269.764 106.694V67.3254C269.764 66.4083 270.224 65.9498 271.144 65.9498H292.647C293.524 65.9498 293.962 66.4083 293.962 67.3254V71.7797C293.962 72.6967 293.524 73.1553 292.647 73.1553H278.904C278.378 73.1553 278.115 73.3955 278.115 73.8758V82.3915C278.115 82.8719 278.378 83.1121 278.904 83.1121H290.148C291.069 83.1121 291.529 83.5706 291.529 84.4877V88.942C291.529 89.8591 291.069 90.3176 290.148 90.3176H278.904C278.378 90.3176 278.115 90.5578 278.115 91.0381V100.143C278.115 100.623 278.378 100.864 278.904 100.864H292.647C293.524 100.864 293.962 101.322 293.962 102.24V106.694C293.962 107.611 293.524 108.069 292.647 108.069Z" fill="white"/>
<path d="M312.342 108.069H306.819C305.854 108.069 305.372 107.611 305.372 106.694V73.8758C305.372 73.3955 305.131 73.1553 304.649 73.1553H297.152C296.231 73.1553 295.771 72.6967 295.771 71.7797V67.3254C295.771 66.4083 296.231 65.9498 297.152 65.9498H322.008C322.929 65.9498 323.389 66.4083 323.389 67.3254V71.7797C323.389 72.6967 322.929 73.1553 322.008 73.1553H314.512C313.986 73.1553 313.723 73.3955 313.723 73.8758V106.694C313.723 107.611 313.263 108.069 312.342 108.069Z" fill="white"/>
<path d="M337.944 100.864H342.614C344.017 100.864 345.002 100.58 345.572 100.012C346.186 99.4007 346.493 98.3964 346.493 96.9991V77.0201C346.493 75.6227 346.186 74.6401 345.572 74.0723C345.002 73.461 344.017 73.1553 342.614 73.1553H337.944C336.542 73.1553 335.556 73.461 334.986 74.0723C334.416 74.6401 334.131 75.6227 334.131 77.0201V96.9991C334.131 98.3964 334.416 99.4007 334.986 100.012C335.556 100.58 336.542 100.864 337.944 100.864ZM343.994 108.069H336.629C333.166 108.069 330.493 107.153 328.608 105.318C326.723 103.484 325.78 100.842 325.78 97.3922V76.6271C325.78 73.1772 326.723 70.5351 328.608 68.701C330.493 66.8669 333.166 65.9498 336.629 65.9498H343.994C347.457 65.9498 350.132 66.8669 352.017 68.701C353.901 70.5351 354.844 73.1772 354.844 76.6271V97.3922C354.844 100.842 353.901 103.484 352.017 105.318C350.132 107.153 347.457 108.069 343.994 108.069Z" fill="white"/>
<path d="M364.955 108.069H359.497C358.577 108.069 358.116 107.611 358.116 106.694V67.3254C358.116 66.4083 358.577 65.9498 359.497 65.9498H364.428C365.349 65.9498 365.963 66.2555 366.27 66.8669L379.552 91.6932H379.816V67.3254C379.816 66.4083 380.276 65.9498 381.196 65.9498H386.654C387.575 65.9498 388.035 66.4083 388.035 67.3254V106.694C388.035 107.611 387.575 108.069 386.654 108.069H381.854C380.889 108.069 380.188 107.632 379.749 106.759L366.598 82.3915H366.335V106.694C366.335 107.611 365.875 108.069 364.955 108.069Z" fill="white"/>
<path d="M400 67.3254V106.694C400 107.611 399.54 108.069 398.619 108.069H393.03C392.109 108.069 391.649 107.611 391.649 106.694V67.3254C391.649 66.4083 392.109 65.9498 393.03 65.9498H398.619C399.54 65.9498 400 66.4083 400 67.3254Z" fill="white"/>
<path d="M1.52588e-05 33.0438H78.6777V68.5823H53.5537V58.0523H24.4628V68.5823H1.52588e-05V33.0438Z" fill="white"/>
<path d="M78.6777 108.728H0L3.00561e-06 74.5053H25.124V84.6452H54.2149V74.5053H78.6777V108.728Z" fill="white"/>
</svg>
