<svg width="301" height="195" viewBox="0 0 301 195" fill="none" xmlns="http://www.w3.org/2000/svg">
<g clip-path="url(#clip0_1_33)">
<path d="M150.477 7.21231C157.654 12.543 163.403 19.0309 168.475 26.1774C179.665 41.9724 186.707 59.5217 190.745 78.3513C192.986 88.7821 194.123 99.42 194.136 110.089C194.167 110.711 194.098 111.335 193.933 111.936C193.373 99.5446 188.954 88.871 179.831 80.4195C170.709 71.9681 159.636 68.0716 147.165 68.9334C125.788 70.4046 106.86 88.871 107.026 111.88C106.78 109.736 106.749 107.573 106.934 105.423C108.122 77.4711 115.551 51.4518 131.204 28.0486C136.485 20.1573 142.678 13.0477 150.477 7.21231Z" fill="white"/>
<path d="M246.254 7.13229C252.627 11.9785 258.247 17.7433 262.928 24.2384C274.974 40.5812 282.478 58.9246 286.676 78.6899C288.872 89.01 289.984 99.5315 289.993 110.083C290.023 110.721 289.954 111.361 289.79 111.979C289.175 99.003 284.423 87.9723 274.562 79.4408C264.701 70.9093 253.178 67.5977 240.277 69.2597C221.86 71.6295 203.345 87.8615 202.975 111.843C200.907 105.072 206.324 72.7621 212.258 57.1026C219.583 37.7435 229.782 20.342 246.254 7.13229Z" fill="white"/>
<path d="M11.1136 111.776C10.8935 106.056 11.1241 100.328 11.803 94.6449C13.489 77.6456 18.0689 61.0598 25.3447 45.6041C31.5001 32.6776 39.1942 20.8467 49.8491 11.1333C51.3264 9.77914 52.9268 8.54804 54.5826 7.16306C58.4063 9.98218 61.9201 13.199 65.0651 16.7595C78.2929 31.6004 86.7935 48.9896 92.2594 67.9116C96.025 80.856 98.017 94.2514 98.1808 107.731C98.1808 109.129 98.5748 110.545 97.9777 111.954C97.436 98.449 92.2594 87.1536 81.7953 78.536C73.461 71.6849 63.7848 68.5148 53.0068 68.8226C31.2846 69.4689 11.366 87.5968 11.1136 111.776Z" fill="white"/>
<path d="M182.343 113.167C182.24 121.564 178.835 129.584 172.865 135.49C166.895 141.397 158.84 144.715 150.442 144.728C142.044 144.741 133.979 141.447 127.991 135.559C122.002 129.671 118.573 121.662 118.444 113.265C118.296 95.5928 132.768 81.2567 150.747 81.2567C168.155 81.2998 182.343 95.6175 182.343 113.167Z" fill="white"/>
<path d="M247.374 145.157C230.281 146.025 215.329 132.273 214.387 114.829C213.446 97.3841 227.037 82.2046 244.339 81.3121C262.19 80.3826 277.4 93.8878 278.231 111.425C279.074 129.534 265.624 144.234 247.374 145.157Z" fill="white"/>
<path d="M86.4734 113.345C86.456 117.537 85.6133 121.683 83.9933 125.549C82.3734 129.415 80.0079 132.923 77.032 135.875C74.0561 138.826 70.528 141.162 66.6492 142.75C62.7704 144.338 58.6168 145.147 54.4256 145.129C50.2344 145.112 46.0877 144.269 42.2222 142.649C38.3567 141.029 34.8481 138.664 31.8968 135.688C28.9454 132.712 26.6091 129.183 25.0213 125.304C23.4335 121.426 22.6252 117.272 22.6425 113.081C22.6425 95.3405 36.9414 81.2629 54.8842 81.2813C72.3592 81.2998 86.4796 95.6298 86.4734 113.345Z" fill="white"/>
<path d="M153.296 174.814C154.177 175.216 154.901 175.897 155.357 176.751C155.813 177.605 155.976 178.586 155.819 179.541C155.763 180.156 155.763 180.774 155.819 181.388C156.127 185.137 154.736 187.544 149.904 187.722C143.644 187.962 137.366 187.777 130.995 187.777V162.571C137.47 162.571 143.86 162.423 150.243 162.626C153.936 162.743 155.462 164.756 155.444 168.505C155.419 170.782 155.973 173.25 153.296 174.814ZM148.07 177.59H138.714C138.788 179.227 138.554 180.779 138.849 182.238H148.082L148.07 177.59ZM138.781 172.13H147.657V168.037H138.781V172.13Z" fill="white"/>
<path d="M271.638 162.571V187.667H264.252L252.298 172.475V187.667H245.016V162.558H252.643L264.221 177.295V162.571H271.638Z" fill="white"/>
<path d="M213.889 175.177V168.591C213.889 164.897 215.526 162.872 219.115 162.632C224.108 162.318 229.116 162.318 234.109 162.632C237.722 162.854 239.39 164.879 239.403 168.535C239.403 172.992 239.403 177.446 239.403 181.899C239.403 185.291 238.055 187.002 234.694 187.562C231.001 188.178 227.264 187.74 223.553 187.808C221.786 187.947 220.008 187.854 218.265 187.531C215.225 186.799 213.914 185.235 213.895 182.139C213.877 179.794 213.889 177.479 213.889 175.177ZM221.725 168.074V182.231H231.505V168.074H221.725Z" fill="white"/>
<path d="M69.2631 175.177C69.2631 177.639 69.2631 180.052 69.2631 182.49C69.22 185.124 67.9889 186.713 65.4591 187.383C64.5781 187.627 63.6706 187.761 62.7569 187.784C58.6082 187.821 54.4595 187.784 50.3169 187.784C49.1562 187.776 48.0073 187.549 46.9315 187.113C46.0244 186.815 45.2382 186.231 44.6911 185.449C44.1439 184.666 43.8653 183.727 43.8969 182.773C43.8661 177.713 43.8538 172.653 43.8969 167.594C43.8969 164.867 45.5219 162.983 48.575 162.706C53.8625 162.241 59.1806 162.241 64.4681 162.706C67.835 162.989 69.2569 164.965 69.2692 168.418C69.2754 170.659 69.2631 172.912 69.2631 175.177ZM61.4273 182.256V168.061H51.745V182.256H61.4273Z" fill="white"/>
<path d="M161.199 187.679V162.54H183.875V167.914H168.887V172.032H180.946V177.492H168.973C168.616 179.055 168.893 180.569 168.783 182.213H183.869V187.679H161.199Z" fill="white"/>
<path d="M33.8576 162.521H42.9121L31.4016 174.863L43.3491 187.71H34.0484L24.7538 177.578H23.1596V187.673H15.4039V162.589H22.9811V171.822C23.6397 172.247 24.1814 172.05 24.8277 172.075L33.8576 162.521Z" fill="white"/>
<path d="M127.862 187.771H119.386L117.25 182.391H107.241L105.124 187.734H96.9252L107.949 162.558H116.801C120.426 170.819 124.101 179.191 127.862 187.771ZM112.24 169.305C111.199 172.007 110.319 174.315 109.402 176.691H115.09C114.142 174.272 113.255 171.964 112.24 169.329V169.305Z" fill="white"/>
<path d="M71.1404 162.546H79.6348L85.9686 180.268L92.3025 162.558H100.606L90.1789 187.704H81.5614L71.1404 162.546Z" fill="white"/>
<path d="M195.158 167.975H186.436V162.571H211.359V167.932H202.84V187.679H195.158V167.975Z" fill="white"/>
<path d="M278.003 162.552H285.537V187.66H278.003V162.552Z" fill="white"/>
</g>
<defs>
<clipPath id="clip0_1_33">
<rect width="301" height="195" fill="white"/>
</clipPath>
</defs>
</svg>
